<svg id="MUJERDOS" xmlns="http://www.w3.org/2000/svg" xmlns:xlink="http://www.w3.org/1999/xlink" width="316.458" height="250.539" viewBox="0 0 316.458 250.539">
  <defs>
    <clipPath id="clip-path">
      <rect id="Rect치ngulo_106" data-name="Rect치ngulo 106" width="316.458" height="250.539" fill="none"/>
    </clipPath>
    <clipPath id="clip-path-3">
      <rect id="Rect치ngulo_104" data-name="Rect치ngulo 104" width="8.407" height="40.029" fill="none"/>
    </clipPath>
  </defs>
  <g id="Grupo_267" data-name="Grupo 267" clip-path="url(#clip-path)">
    <g id="Grupo_266" data-name="Grupo 266">
      <g id="Grupo_265" data-name="Grupo 265" clip-path="url(#clip-path)">
        <path id="Trazado_1482" data-name="Trazado 1482" d="M260.407,121.09c7.89-.683,15.905-1.364,23.744-.419s15.619,3.752,19.867,8.662c3.578,4.134,4.277,9.215,4.883,14.088q2.6,20.87,5.194,41.741c.441,3.546.864,7.217-.721,10.583-3.465,7.355-16.222,10.827-26.385,8.529a31.3,31.3,0,0,1-21.146-16.359c-3.625-7.314-4.087-15.232-4.512-23.005q-1.156-21.147-2.312-42.293l1.028-.668" transform="translate(-41.236 -19.137)" fill="#263238"/>
        <path id="Trazado_1483" data-name="Trazado 1483" d="M0,207.04l2.449,8.609L236.092,283.5l80.366-53.037v-7.233Z" transform="translate(0 -32.961)" fill="#263238"/>
        <path id="Trazado_1484" data-name="Trazado 1484" d="M83.815,160.745l232.643,55.114L236.092,268.3,0,199.669Z" transform="translate(0 -25.59)" fill="#455a64"/>
        <path id="Trazado_1485" data-name="Trazado 1485" d="M221.8,212.742l-44.5,21.507L95.725,212l40.047-21.878Z" transform="translate(-15.239 -30.267)" fill="#263238"/>
        <path id="Trazado_1486" data-name="Trazado 1486" d="M186.163,214.45l11.814,3.9,10.937-5.947-18.2-5.839-10.632,5.51Z" transform="translate(-28.668 -32.885)" fill="#455a64"/>
        <path id="Trazado_1487" data-name="Trazado 1487" d="M83.376,144.7c.371,1.483,10.382,60.07,10.382,60.07l81.577,22.248-10.753-62.666Z" transform="translate(-13.273 -23.036)" fill="#263238"/>
        <path id="Trazado_1488" data-name="Trazado 1488" d="M185.684,201.454c.119-.02,1.545,7.708,3.184,17.262s2.872,17.317,2.753,17.337-1.545-7.708-3.184-17.263-2.872-17.315-2.753-17.336" transform="translate(-29.56 -32.071)" fill="#455a64"/>
        <path id="Trazado_1489" data-name="Trazado 1489" d="M139.073,191.178c.992,2.563.009,5.332-2.2,6.187s-4.8-.53-5.791-3.092-.008-5.332,2.2-6.187,4.8.53,5.791,3.092" transform="translate(-20.807 -29.903)" fill="#455a64"/>
        <path id="Trazado_1490" data-name="Trazado 1490" d="M179.958,161.858c3.631-4.192,5.743-32.826,5.743-32.826l26.925,3.03s-3.871,41.882-16.17,46.907L184.156,184" transform="translate(-28.649 -20.542)" fill="#ffbe9d"/>
        <path id="Trazado_1491" data-name="Trazado 1491" d="M286.285,125.209c-.515-23.362-9.749-34.8-10.128-36.281a36.426,36.426,0,0,0-26.875-11.821l-25.081.407a58.4,58.4,0,0,0-18.574,5.4l-.619.18.005.129c-7.09,3.706-14.71,9.477-15.915,19.2l-3.03,18.94,17.435.831c-1.772,6.341-3.732,7.156-1.692,13.417l6.645,11.019c0,8.791-.591,3.469-3.289,22.523l67.37,15.961c3.906-3.851.932-14.281-9.5-33.27-1.559-2.838,6.523-31.425,6.523-31.425l15.077,5.28" transform="translate(-29.622 -12.273)" fill="#9cce4a"/>
        <path id="Trazado_1492" data-name="Trazado 1492" d="M210.281,122.178a7.968,7.968,0,0,1-.607,1.191c-.413.753-1.024,1.834-1.735,3.191-1.384,2.694-3.309,6.607-3.494,11.273a14.181,14.181,0,0,0,1.157,6.347,20.53,20.53,0,0,0,2.851,4.5c.96,1.189,1.8,2.1,2.376,2.739a8.033,8.033,0,0,1,.865,1.018,7.506,7.506,0,0,1-.988-.9c-.61-.6-1.492-1.485-2.492-2.66a19.748,19.748,0,0,1-2.981-4.534,14.277,14.277,0,0,1-1.226-6.527,20.973,20.973,0,0,1,1.357-6.5,36.087,36.087,0,0,1,2.3-4.9c.749-1.344,1.4-2.4,1.861-3.13a7.688,7.688,0,0,1,.753-1.1" transform="translate(-32.476 -19.451)" fill="#263238"/>
        <path id="Trazado_1493" data-name="Trazado 1493" d="M284.313,109.607a1.087,1.087,0,0,1-.193.171c-.134.1-.326.272-.6.462a10.477,10.477,0,0,1-2.615,1.269,18.073,18.073,0,0,1-10.571-.344c-2.171-.64-4.46-1.58-6.93-2.516a29.48,29.48,0,0,0-8.1-2.1,26.255,26.255,0,0,0-9.167.93,93.344,93.344,0,0,0-9.455,3.246,73.855,73.855,0,0,1-9.551,3.124,25.23,25.23,0,0,1-9.346.543,34.314,34.314,0,0,1-8.083-2.554c-2.437-1.036-4.683-2.052-6.814-2.746a22.825,22.825,0,0,0-5.908-1.152,14.534,14.534,0,0,0-4.511.455,12.068,12.068,0,0,0-3.5,1.657,1.094,1.094,0,0,1,.2-.166c.136-.1.335-.261.61-.447a10.722,10.722,0,0,1,2.644-1.208,14.394,14.394,0,0,1,4.568-.536,22.779,22.779,0,0,1,5.993,1.1c2.159.684,4.422,1.688,6.859,2.707a34.275,34.275,0,0,0,8,2.49,24.958,24.958,0,0,0,9.189-.562,74.371,74.371,0,0,0,9.492-3.116,92.446,92.446,0,0,1,9.5-3.252,26.518,26.518,0,0,1,9.314-.916,29.568,29.568,0,0,1,8.191,2.158c2.473.953,4.745,1.906,6.89,2.559a18.169,18.169,0,0,0,10.43.477,11.861,11.861,0,0,0,3.458-1.739" transform="translate(-30.084 -16.883)" fill="#263238"/>
        <path id="Trazado_1494" data-name="Trazado 1494" d="M267.332,158.971a2.892,2.892,0,0,1-.542.208l-1.582.507a42.353,42.353,0,0,1-5.952,1.425,21.921,21.921,0,0,1-4.236.248,20.381,20.381,0,0,1-4.8-.845c-3.305-.966-6.652-2.722-10.309-4.112a37.885,37.885,0,0,0-5.482-1.572,40.286,40.286,0,0,0-5.273-.666,37.671,37.671,0,0,0-8.971.613,36.954,36.954,0,0,0-5.859,1.618c-.684.225-1.19.467-1.548.593a2.835,2.835,0,0,1-.55.188,2.953,2.953,0,0,1,.515-.268c.347-.153.844-.42,1.522-.672a33.424,33.424,0,0,1,5.86-1.762,36.8,36.8,0,0,1,9.051-.712,39.777,39.777,0,0,1,5.337.649,37.523,37.523,0,0,1,5.552,1.582c3.7,1.406,7.021,3.164,10.271,4.135a20.345,20.345,0,0,0,4.7.869,22.174,22.174,0,0,0,4.174-.193,48.748,48.748,0,0,0,5.949-1.281l1.6-.428a2.924,2.924,0,0,1,.568-.124" transform="translate(-33.786 -24.473)" fill="#263238"/>
        <path id="Trazado_1495" data-name="Trazado 1495" d="M236.258,188.286a4.945,4.945,0,0,1-1.122-.12,25.931,25.931,0,0,1-2.992-.709c-2.506-.691-5.8-2.118-9.567-3.231a19.518,19.518,0,0,0-9.879-.538,14.925,14.925,0,0,0-3.8,1.631c-.009-.012.065-.08.214-.2a5.97,5.97,0,0,1,.68-.491,10.285,10.285,0,0,1,2.825-1.24,18.868,18.868,0,0,1,10.079.416c3.811,1.128,7.074,2.6,9.538,3.356,1.225.4,2.232.673,2.934.837a6.449,6.449,0,0,1,1.087.288" transform="translate(-33.257 -29.115)" fill="#263238"/>
        <g id="Grupo_264" data-name="Grupo 264" transform="translate(228.769 107.781)" opacity="0.1">
          <g id="Grupo_263" data-name="Grupo 263">
            <g id="Grupo_262" data-name="Grupo 262" clip-path="url(#clip-path-3)">
              <path id="Trazado_1496" data-name="Trazado 1496" d="M277.409,128.188s-10.981,24.2-1.406,40.029l4.488-1.676-3.758-6.558a7.248,7.248,0,0,1-.125-3.04c.555-3.449,1.622-9.071,3.05-14.745Z" transform="translate(-272.084 -128.188)"/>
            </g>
          </g>
        </g>
        <path id="Trazado_1497" data-name="Trazado 1497" d="M256.614,21.033c5.411,4.72,7.827,12.156,8,19.335s-.458,15.325-.286,22.819l10.978-.216c7.26.216,15.481-.546,22.427-1.083a6.75,6.75,0,0,0,3.325-.852c1.6-1.084,1.956-3.245,2.173-5.164.342-3.019.678-6.136-.192-9.048s-3.268-5.59-6.3-5.806a10.333,10.333,0,0,1-3.181-.256,4,4,0,0,1-2.139-2.932c-.279-1.226-.237-2.5-.424-3.747a10.494,10.494,0,0,0-6.868-8.2c-2.251-.76-4.968-.865-6.448-2.724-1.8-2.259-.62-5.529-.525-8.416a10.49,10.49,0,0,0-16.988-8.574" transform="translate(-40.853 -0.628)" fill="#263238"/>
        <path id="Trazado_1498" data-name="Trazado 1498" d="M241.755,79.662h0a12.857,12.857,0,0,1-12.847-12.311c-.235-5.528-.429-10.775-.429-10.775s-10.546-.98-11.319-11.415-.443-34.529-.443-34.529a36.365,36.365,0,0,1,36.755,2.334l1.621,1.1-.481,52.858a12.858,12.858,0,0,1-12.858,12.742" transform="translate(-34.49 -1.071)" fill="#ffbe9d"/>
        <path id="Trazado_1499" data-name="Trazado 1499" d="M221.738,34.429a1.519,1.519,0,1,0-2.149.028,1.519,1.519,0,0,0,2.149-.028" transform="translate(-34.885 -5.07)" fill="#263238"/>
        <path id="Trazado_1500" data-name="Trazado 1500" d="M217.808,30.8c.174.171,1.151-.682,2.588-.777,1.437-.117,2.528.583,2.676.388.072-.087-.111-.4-.588-.721a3.551,3.551,0,0,0-4.2.31c-.425.385-.559.725-.474.8" transform="translate(-34.671 -4.64)" fill="#263238"/>
        <path id="Trazado_1501" data-name="Trazado 1501" d="M237.482,32.127a1.519,1.519,0,1,0,2.117.368,1.52,1.52,0,0,0-2.117-.368" transform="translate(-37.704 -5.07)" fill="#263238"/>
        <path id="Trazado_1502" data-name="Trazado 1502" d="M236.471,31.185c.175.171,1.152-.682,2.589-.777,1.437-.117,2.528.583,2.676.388.072-.087-.111-.4-.588-.721a3.551,3.551,0,0,0-4.2.31c-.425.385-.559.724-.475.8" transform="translate(-37.642 -4.701)" fill="#263238"/>
        <path id="Trazado_1503" data-name="Trazado 1503" d="M229.687,42.411a6.991,6.991,0,0,0-2.357-.349c-.378-.018-.679-.085-.719-.286a2.051,2.051,0,0,1,.2-1.094l.957-2.993c1.314-4.26,2.2-7.768,1.988-7.835s-1.457,3.332-2.772,7.593c-.309,1.039-.6,2.031-.9,3.012a2.41,2.41,0,0,0-.109,1.576.988.988,0,0,0,.685.561,2.417,2.417,0,0,0,.647.045,6.99,6.99,0,0,0,2.371-.23" transform="translate(-35.96 -4.753)" fill="#263238"/>
        <path id="Trazado_1504" data-name="Trazado 1504" d="M234.769,46.3c1.444-.985-3.991,2.447-6.927,2.485a3.983,3.983,0,0,0,4.788,1.293c3.055-1.337,2.139-3.778,2.139-3.778" transform="translate(-36.272 -7.343)" fill="#fff"/>
        <path id="Trazado_1505" data-name="Trazado 1505" d="M230.689,64.944a24.332,24.332,0,0,0,13.376-4.709s-2.755,7.714-13.233,7.417Z" transform="translate(-36.725 -9.589)" fill="#eb996e"/>
        <path id="Trazado_1506" data-name="Trazado 1506" d="M259,34.62c-3.781,3.043-8.348-4.831-10.376-9.771s-2.654-10.4-2.949-15.785c-.1-1.765-.112-3.7.913-5.087,1.082-1.466,1.455.231,2.745-1.043,2.227-2.2.11-2.211,2.337-1.941,3.81.462,12.112,7.063,12.81,11.056s.133,8.1-.432,12.117q-.386,2.752-.774,5.5a8.993,8.993,0,0,1-1.087,3.719A2.659,2.659,0,0,1,259,34.62" transform="translate(-39.104 -0.139)" fill="#263238"/>
        <path id="Trazado_1507" data-name="Trazado 1507" d="M261.675,30.5a1.576,1.576,0,0,1,1.508-1.58c1.948-.055,5.136.719,5.435,6.1.428,7.682-6.962,5.766-6.987,5.547-.02-.172.024-7.078.045-10.064" transform="translate(-41.65 -4.603)" fill="#ffbe9d"/>
        <path id="Trazado_1508" data-name="Trazado 1508" d="M263.643,38.01c.032-.027.139.087.371.177a1.341,1.341,0,0,0,1-.035c.8-.343,1.407-1.67,1.367-3.056a4.414,4.414,0,0,0-.482-1.9,1.547,1.547,0,0,0-1.064-.971.682.682,0,0,0-.769.41c-.091.221-.034.372-.074.387-.02.02-.172-.119-.128-.441a.859.859,0,0,1,.276-.5,1.018,1.018,0,0,1,.729-.237,1.885,1.885,0,0,1,1.465,1.114,4.537,4.537,0,0,1,.583,2.115c.038,1.55-.674,3.043-1.767,3.426a1.437,1.437,0,0,1-1.235-.135c-.248-.177-.3-.346-.272-.362" transform="translate(-41.971 -5.07)" fill="#eb996e"/>
        <path id="Trazado_1509" data-name="Trazado 1509" d="M241.386,3.93a24.606,24.606,0,0,1-14.622,15.621,1.9,1.9,0,0,1-1.812.015c-.641-.5-.393-1.561.142-2.174s1.288-1.046,1.681-1.759l-3.91,2.214a6.287,6.287,0,0,1-2.02.849,2.133,2.133,0,0,1-2.005-.631,1.309,1.309,0,0,1,.269-1.91,3.082,3.082,0,0,1-4.447.494A4.6,4.6,0,0,1,213.439,12a9.455,9.455,0,0,1,2.743-4.2c5.41-5.262,13.264-7.167,20.794-7.685a24.262,24.262,0,0,1,6.954.3c2.272.509,5.783.322,9.878,4.808" transform="translate(-33.951 0)" fill="#263238"/>
        <path id="Trazado_1510" data-name="Trazado 1510" d="M223.542,26.276c-.083.239-1.459-.065-3.15-.019-1.692.024-3.054.383-3.147.148-.1-.207,1.251-.991,3.129-1.023s3.261.684,3.168.895" transform="translate(-34.584 -4.04)" fill="#263238"/>
        <path id="Trazado_1511" data-name="Trazado 1511" d="M241.849,26.46c-.086.236-1.41-.054-3.042-.129-1.633-.092-2.98.06-3.04-.184-.068-.222,1.3-.788,3.085-.69s3.087.79,3,1" transform="translate(-37.533 -4.051)" fill="#263238"/>
        <path id="Trazado_1512" data-name="Trazado 1512" d="M266.046,18.885a18.39,18.39,0,0,1,.585-2.152,9.322,9.322,0,0,0-.277-5.121,9.322,9.322,0,0,0-3.05-4.125c-1.065-.828-1.87-1.154-1.821-1.286.025-.1.932.023,2.173.776a8.461,8.461,0,0,1,3.571,9.924c-.478,1.372-1.1,2.041-1.181,1.983" transform="translate(-41.627 -0.983)" fill="#455a64"/>
        <path id="Trazado_1513" data-name="Trazado 1513" d="M270.424,128.188l5.982,37.27-48.2,18,7.8,16.079,50.728-15.846a17.215,17.215,0,0,0,11.811-19.478l-6.477-36.023Z" transform="translate(-36.33 -20.407)" fill="#ffbe9d"/>
        <path id="Trazado_1514" data-name="Trazado 1514" d="M222.229,193.037s-8.972-2.86-13.274-3.957c-1.677-.427-8.856,3.361-13.815,6.509,0,0-6.83,4.048-6.277,5.3.608,1.373,3.127,1.092,7.143-.8,0,0-1.4,4.069,1.349,3.981,0,0-1.365,4.4,1.213,4.852s3.184-5.156,5.459-5.459,6.975-.606,6.975-.606,3.915,6.483,6.948,6.938,12.072-.572,12.072-.572Z" transform="translate(-30.062 -30.096)" fill="#ffbe9d"/>
        <path id="Trazado_1515" data-name="Trazado 1515" d="M205.621,195.91a39.724,39.724,0,0,1-7.047,4.444,39.8,39.8,0,0,1,7.047-4.444" transform="translate(-31.613 -31.187)" fill="#eb996e"/>
        <path id="Trazado_1516" data-name="Trazado 1516" d="M206.27,198.882a24.9,24.9,0,0,1-4.134,2.149,24.949,24.949,0,0,1-4.318,1.752,24.891,24.891,0,0,1,4.134-2.15,24.957,24.957,0,0,1,4.318-1.751" transform="translate(-31.492 -31.66)" fill="#eb996e"/>
        <path id="Trazado_1517" data-name="Trazado 1517" d="M205.115,206.082a19.721,19.721,0,0,1-5.813.8,19.805,19.805,0,0,1,5.813-.8" transform="translate(-31.729 -32.799)" fill="#eb996e"/>
      </g>
    </g>
  </g>
</svg>
