<svg id="MUJERTRES" xmlns="http://www.w3.org/2000/svg" xmlns:xlink="http://www.w3.org/1999/xlink" width="370.17" height="374.819" viewBox="0 0 370.17 374.819">
  <defs>
    <clipPath id="clip-path">
      <rect id="Rectángulo_161" data-name="Rectángulo 161" width="370.17" height="374.819" fill="none"/>
    </clipPath>
    <clipPath id="clip-path-2">
      <rect id="Rectángulo_160" data-name="Rectángulo 160" width="370.171" height="374.819" fill="none"/>
    </clipPath>
    <clipPath id="clip-path-3">
      <rect id="Rectángulo_146" data-name="Rectángulo 146" width="47.922" height="66.985" fill="none"/>
    </clipPath>
    <clipPath id="clip-path-4">
      <rect id="Rectángulo_147" data-name="Rectángulo 147" width="32.591" height="100.102" fill="none"/>
    </clipPath>
    <clipPath id="clip-path-5">
      <rect id="Rectángulo_148" data-name="Rectángulo 148" width="0.003" height="0.013" fill="none"/>
    </clipPath>
    <clipPath id="clip-path-6">
      <rect id="Rectángulo_149" data-name="Rectángulo 149" width="82.508" height="161.983" fill="none"/>
    </clipPath>
    <clipPath id="clip-path-7">
      <rect id="Rectángulo_150" data-name="Rectángulo 150" width="14.795" height="47.859" fill="none"/>
    </clipPath>
    <clipPath id="clip-path-8">
      <rect id="Rectángulo_151" data-name="Rectángulo 151" width="7.466" height="28.279" fill="none"/>
    </clipPath>
    <clipPath id="clip-path-9">
      <rect id="Rectángulo_152" data-name="Rectángulo 152" width="31.01" height="29.576" fill="none"/>
    </clipPath>
    <clipPath id="clip-path-10">
      <rect id="Rectángulo_153" data-name="Rectángulo 153" width="26.762" height="35.722" fill="none"/>
    </clipPath>
    <clipPath id="clip-path-11">
      <rect id="Rectángulo_154" data-name="Rectángulo 154" width="0.103" height="0.631" fill="none"/>
    </clipPath>
    <clipPath id="clip-path-12">
      <rect id="Rectángulo_155" data-name="Rectángulo 155" width="49.445" height="130.037" fill="none"/>
    </clipPath>
    <clipPath id="clip-path-13">
      <rect id="Rectángulo_156" data-name="Rectángulo 156" width="25.433" height="85.784" fill="none"/>
    </clipPath>
    <clipPath id="clip-path-14">
      <rect id="Rectángulo_157" data-name="Rectángulo 157" width="8.215" height="51.694" fill="none"/>
    </clipPath>
    <clipPath id="clip-path-15">
      <rect id="Rectángulo_158" data-name="Rectángulo 158" width="42.905" height="45.02" fill="none"/>
    </clipPath>
    <clipPath id="clip-path-16">
      <rect id="Rectángulo_159" data-name="Rectángulo 159" width="53.261" height="59.953" fill="none"/>
    </clipPath>
  </defs>
  <g id="Grupo_408" data-name="Grupo 408" clip-path="url(#clip-path)">
    <g id="Grupo_407" data-name="Grupo 407" transform="translate(0 0.001)">
      <g id="Grupo_406" data-name="Grupo 406" clip-path="url(#clip-path-2)">
        <path id="Trazado_1651" data-name="Trazado 1651" d="M399.559,475.874a92.211,92.211,0,0,0-3.14,17.275c-.744,9.3-1.684,21-1.684,21-2.8,32.58-16.986,46.322-32.192,54.273l-.049.023c-.008,0-.013.008-.021.011a.043.043,0,0,1-.018.011c-.162.084-.322.167-.484.249q-1.614.829-3.237,1.577a77.361,77.361,0,0,0-13.663,7.967c-8.886,6.569-15.478,14.894-21.981,26.433-5.238,9.292-9.491,30.3-12.241,47.165-.008.063-.018.126-.029.186-.175,1.077-.343,2.137-.505,3.174-.016.1-.026.168-.031.194v.011l0,0c-1.849,11.84-2.876,20.86-2.876,20.86H87.833c6.11-13.215,12.05-26.224,17.188-39.8,0,0,0-.005,0-.008a.01.01,0,0,1,0-.008,243.684,243.684,0,0,0,14.381-55.818,100.269,100.269,0,0,0,.93-15.779,31.165,31.165,0,0,0-1.684-9.887.02.02,0,0,1-.005-.013q-.078-.2-.165-.4v0c-.005-.013-.011-.023-.016-.037.021.068.039.134.058.2,1.776,6.639-9.544,11.9-18.524,29.044C90.929,601.09,80.987,598.9,80.987,598.9A46.427,46.427,0,0,1,72.3,603.52a.01.01,0,0,1-.008,0c-17.532,6.8-21.376-9.2-21.376-9.2-17.487-20.92.835-43.548.835-43.548.589-1.613,1.252-3.179,1.972-4.693,5.639-11.889,14.826-20.735,20.7-25.557a24.645,24.645,0,0,0,6.993-9.289c3.036-7.044,8.39-5.261,8.39-5.261-4.628-6.312,1.369-9.318,1.369-9.318,9.076-37.041,42.27-36.377,42.27-36.377s5.615-4.047,14.059-.189c9.538,4.358,24.039,6.922,34.031,7.084a11.655,11.655,0,0,0,7.493-2.656c2.179-1.755,5.736-3.2,9.9.537,4.025,3.614,12.461,17.285,52.691,14.849,12.149-.733,23.026-10.567,30.527-11.374,3.884-.416,5.385,2.7,5.956,4.892a5.985,5.985,0,0,0,2.493,3.5c4.625,3.053,16.107,10.122,28.311,13.7a28.721,28.721,0,0,0,17.246-.453c7.584-2.549,9.669,1.82,9.669,1.82a2.951,2.951,0,0,1,3.378-3s-.72-4.759.833-15.965c.652-4.7,1.7-10.536,3.378-17.631,5.665-24.008,37.731-32.514,41.877-11.864,1.168,5.809.77,9.35.89,13.6v0a40.835,40.835,0,0,0,.524,5.61s5.908,2.135,2.852,13.134" transform="translate(-30.265 -301.479)" fill="#9cce4a"/>
        <path id="Trazado_1652" data-name="Trazado 1652" d="M440.546,169.288s-13.064,11.334-7.468,22.014c0,0-.013-3.149,1.265-4.463,0,0-.46,7.183,5.347,9.94,0,0-3.057-7.915,3.773-12.539,0,0,2.92,4.772,8.218,3,0,0-.826,1.75-4.125,2.24a13.672,13.672,0,0,0,12.783-1.753s7.414,4.695,17.121-.857l67.616-5.713c3.98-17.184,18.014-100.832-39.726-121.935,0,0-78.152,32.189-72.123,66.872s7.321,43.2,7.321,43.2" transform="translate(-301.352 -41.34)" fill="#1b1a2e"/>
        <path id="Trazado_1653" data-name="Trazado 1653" d="M626.426,416.735c-2.513.341-7.742.8-9.265-8.716l0-.05-4.942-58.49-62.789,5.3,4.233,50.1c.761,7.594-10.914,6.333-14.223,7.151h0s5.428,36.6,46.076,36.554c33.648-.036,40.947-31.855,40.915-31.851" transform="translate(-376.555 -243.967)" fill="#ffc89f"/>
        <path id="Trazado_1654" data-name="Trazado 1654" d="M541.269,194.58h0a41.966,41.966,0,0,0,38.284-45.35l-4.316-51.084a41.966,41.966,0,1,0-83.634,7.066l4.316,51.084a41.966,41.966,0,0,0,45.35,38.284" transform="translate(-343.075 -41.684)" fill="#ffc89f"/>
        <path id="Trazado_1655" data-name="Trazado 1655" d="M583.188,492.621l.715,8.462c5.351-.078,13.954-.589,21.34-5.076-6.139,2.01-16.477-.323-22.055-3.386" transform="translate(-407.114 -343.892)" fill="#ff9b6c"/>
        <path id="Trazado_1656" data-name="Trazado 1656" d="M543.349,260.194a3.778,3.778,0,1,0,3.446-4.082,3.777,3.777,0,0,0-3.446,4.082" transform="translate(-379.294 -178.779)" fill="#1b1a2e"/>
        <path id="Trazado_1657" data-name="Trazado 1657" d="M524.849,253.043a9.606,9.606,0,0,1,3.286-2.737,10.4,10.4,0,0,1,4.184-1.191,7.92,7.92,0,0,1,1.1-.008l.548.014c.182.011.362.045.542.073.36.061.72.116,1.076.184.349.1.7.207,1.04.318l.515.165.492.226.971.464c.62.357,1.208.768,1.781,1.179-.679-.231-1.313-.526-1.968-.758l-.994-.307-.491-.159-.5-.1c-.337-.067-.671-.137-1-.216l-1.014-.107c-.169-.012-.336-.048-.5-.053H533.4a7.382,7.382,0,0,0-1.011.027c-.335.034-.672.057-1.007.1-.331.067-.66.14-.994.2-.33.075-.651.183-.979.273s-.637.237-.961.347a15.226,15.226,0,0,0-3.594,2.075" transform="translate(-366.389 -173.886)" fill="#1b1a2e"/>
        <path id="Trazado_1658" data-name="Trazado 1658" d="M674.2,249.139a3.778,3.778,0,1,0,3.446-4.082,3.777,3.777,0,0,0-3.446,4.082" transform="translate(-470.636 -171.061)" fill="#1b1a2e"/>
        <path id="Trazado_1659" data-name="Trazado 1659" d="M655.7,241.988a9.607,9.607,0,0,1,3.286-2.737,10.4,10.4,0,0,1,4.184-1.191,7.92,7.92,0,0,1,1.1-.008l.548.014c.182.011.362.045.542.073.36.061.72.116,1.076.184.349.1.7.207,1.04.318l.515.165.492.226.971.464c.62.357,1.208.768,1.781,1.179-.679-.231-1.313-.526-1.968-.758l-.995-.307-.491-.159-.5-.1c-.337-.067-.671-.137-1-.216l-1.014-.107c-.169-.012-.336-.048-.5-.053h-.507a7.333,7.333,0,0,0-1.011.026c-.335.034-.672.057-1.008.1-.331.066-.66.14-.994.2-.33.075-.652.184-.979.273s-.636.237-.961.347a15.238,15.238,0,0,0-3.594,2.075" transform="translate(-457.73 -166.169)" fill="#1b1a2e"/>
        <path id="Trazado_1660" data-name="Trazado 1660" d="M603.516,312.889c.1,1.642.114,3.279.092,4.914s-.087,3.267-.169,4.9a10.373,10.373,0,0,0,0,2.349,6.744,6.744,0,0,0,.665,2.192,4.114,4.114,0,0,0,1.489,1.684c.7.412,1.418.819,2.109,1.266-.782-.259-1.544-.553-2.311-.852a4.312,4.312,0,0,1-1.922-1.734,6.758,6.758,0,0,1-.908-2.42,10.6,10.6,0,0,1-.06-2.538c.1-1.631.211-3.261.377-4.888s.352-3.253.637-4.873" transform="translate(-420.565 -218.423)" fill="#1b1a2e"/>
        <path id="Trazado_1661" data-name="Trazado 1661" d="M624.873,379.958a8.1,8.1,0,0,1-.772,2.459,7.948,7.948,0,0,1-3.961,3.765,7.448,7.448,0,0,1-2.819.606,8.552,8.552,0,0,1-1.407-.088,7.809,7.809,0,0,1-1.312-.356,7.207,7.207,0,0,1-3.921-3.236c1.3-.152,2.424-.2,3.424-.3.355-.035.7-.069,1.026-.12.314-.022.608-.108.893-.141.281-.071.556-.108.813-.191a9.832,9.832,0,0,0,1.461-.5,14.744,14.744,0,0,0,2.9-1.711c.724-.523,1.465-1.123,2.307-1.807.38-.3.782-.622,1.215-.96a6.257,6.257,0,0,1,.147,2.574" transform="translate(-426.307 -263.446)" fill="#e43f5a"/>
        <path id="Trazado_1662" data-name="Trazado 1662" d="M631.428,380.564a6.883,6.883,0,0,1-.467,1.5,6.542,6.542,0,0,1-3.361,3.281,6.3,6.3,0,0,1-4.776.079,7.3,7.3,0,0,1-.8-.389c.355-.035.7-.068,1.026-.12.314-.022.608-.108.893-.142.281-.071.556-.108.813-.191a9.83,9.83,0,0,0,1.461-.5,14.747,14.747,0,0,0,2.9-1.711c.724-.523,1.465-1.123,2.307-1.806" transform="translate(-434.225 -265.666)" fill="#fff"/>
        <path id="Trazado_1663" data-name="Trazado 1663" d="M521.913,213.955a5.553,5.553,0,0,1,.956-2.3,8.689,8.689,0,0,1,.78-.954c.143-.148.3-.284.45-.422a4.136,4.136,0,0,1,.477-.4,8.636,8.636,0,0,1,4.675-1.728,7.333,7.333,0,0,1,1.269.006l.631.05c.208.027.412.078.616.124.407.095.812.2,1.2.327.382.159.754.341,1.118.525.183.088.36.19.535.291.167.119.333.233.492.363.323.247.63.511.923.781a6.952,6.952,0,0,1,.773.949,6.835,6.835,0,0,1,.632,1.073,16.114,16.114,0,0,1-2.344.086c-.361.013-.709.021-1.042.011-.169,0-.33-.013-.491-.023-.164.007-.328.024-.485.022-.317.006-.626.01-.925-.009-.3.017-.6.038-.885.035-.145.007-.288-.013-.431,0s-.284.024-.424.034l-.421.014a1.93,1.93,0,0,0-.418.026c-1.116.051-2.216.208-3.45.38s-2.544.437-4.217.738" transform="translate(-364.339 -145.29)" fill="#1b1a2e"/>
        <path id="Trazado_1664" data-name="Trazado 1664" d="M652.759,202.9a5.553,5.553,0,0,1,.957-2.3,8.643,8.643,0,0,1,.78-.954c.143-.148.3-.284.45-.422a4.146,4.146,0,0,1,.477-.4A8.636,8.636,0,0,1,660.1,197.1a7.328,7.328,0,0,1,1.269.006l.631.049c.208.027.412.078.617.124.408.1.812.2,1.2.327.382.159.754.341,1.118.525.183.088.361.19.535.291.167.119.333.233.492.363.322.247.63.511.923.781a6.96,6.96,0,0,1,.774.949,6.863,6.863,0,0,1,.631,1.073,16.118,16.118,0,0,1-2.344.086c-.362.013-.709.021-1.042.011-.168,0-.33-.013-.491-.022-.164.007-.328.024-.485.021-.317.006-.626.01-.924-.009-.3.017-.6.038-.886.035-.145.007-.288-.013-.431,0s-.284.024-.424.034l-.421.014a1.9,1.9,0,0,0-.418.026c-1.116.051-2.216.208-3.45.38s-2.544.437-4.217.738" transform="translate(-455.681 -137.572)" fill="#1b1a2e"/>
        <path id="Trazado_1665" data-name="Trazado 1665" d="M495.126,23.113s-11.019-3-25.679,11.19S445.8,72.042,429.254,82.943c0,0-1.871,40.792,17.577,50.579,0,0-14.183,3.9-19.635-15.036,0,0-22.729-16.678,8.371-84.832,5.066-15.444,46.5-52.846,95.563-21.5,0,0,23.622,10.29,33.781,52.433,0,0,24.5,56.971-21.63,73.218,0,0-12.524,14.623-24.8,5.886,0,0,7.834-3.227,10.351-7.111,0,0-14.874,8.6-24.091,2.678,0,0,18.341-4.486,22.78-13.854,0,0-7.667,9.182-16.439.93,0,0,33.576-5.013,24.322-50.332,0,0-23.232,13.514-28.726-14.657-5.316-27.261-11.546-38.234-11.546-38.234" transform="translate(-292.625 -0.002)" fill="#1b1a2e"/>
        <path id="Trazado_1666" data-name="Trazado 1666" d="M416.794,196.293a20.837,20.837,0,0,1-8.552-7.862,26.4,26.4,0,0,1-3.768-11.111,44.007,44.007,0,0,1,.638-11.651,89,89,0,0,1,2.731-11.3l.911-2.766c.312-.916.642-1.822.975-2.729.66-1.815,1.318-3.631,2-5.435,1.357-3.615,2.708-7.233,4.139-10.82s2.908-7.156,4.443-10.7,3.091-7.083,4.816-10.551l.129.057c-2.571,7.286-5.21,14.544-7.99,21.746-2.8,7.187-5.775,14.336-8.7,21.454a52.01,52.01,0,0,0-3.008,11.113c-.144.95-.207,1.911-.307,2.864l-.048,1.438c-.014.479-.041.957-.02,1.436a40.116,40.116,0,0,0,.449,5.694,38.889,38.889,0,0,0,1.28,5.521,27.084,27.084,0,0,0,2.262,5.179,26.435,26.435,0,0,0,3.332,4.587,26.985,26.985,0,0,0,2.04,2,18.732,18.732,0,0,0,2.3,1.708Z" transform="translate(-282.254 -77.746)" fill="#1b1a2e"/>
        <path id="Trazado_1667" data-name="Trazado 1667" d="M670.638,76.447a64.415,64.415,0,0,1,4.062,9.566c.553,1.642,1.09,3.291,1.554,4.961.5,1.66.909,3.344,1.31,5.029.367,1.693.7,3.392.991,5.1l.44,2.558c.132.856.25,1.713.4,2.564l1.7,10.227c.154.854.285,1.7.463,2.537s.376,1.667.606,2.486a25.287,25.287,0,0,0,1.784,4.72,13.128,13.128,0,0,0,2.911,3.935,10.6,10.6,0,0,0,4.2,2.293,15.45,15.45,0,0,0,4.887.5,29.4,29.4,0,0,0,5.009-.671,80.453,80.453,0,0,0,9.862-2.951l.056.129a51.774,51.774,0,0,1-9.645,3.932,27.237,27.237,0,0,1-5.2.96,15.823,15.823,0,0,1-5.376-.453,12.105,12.105,0,0,1-2.549-1.048,11.232,11.232,0,0,1-2.212-1.647,14.472,14.472,0,0,1-3.091-4.427,23.879,23.879,0,0,1-1.607-5.042c-.352-1.716-.529-3.463-.719-5.172a99.67,99.67,0,0,0-1.6-10.216c-.173-.844-.376-1.683-.565-2.523l-.627-2.508c-.395-1.677-.9-3.327-1.3-5-1.722-6.659-3.511-13.3-5.867-19.784Z" transform="translate(-468.073 -53.367)" fill="#1b1a2e"/>
        <path id="Trazado_1668" data-name="Trazado 1668" d="M465.082,235.6a31.366,31.366,0,0,1-2.549,3.522,38.894,38.894,0,0,1-2.954,3.2,33.858,33.858,0,0,1-3.327,2.814,23.254,23.254,0,0,1-3.712,2.276c1.1-.956,2.183-1.889,3.25-2.845s2.114-1.926,3.138-2.923,2.045-2,3.064-3.01,2.027-2.039,3.09-3.032" transform="translate(-315.911 -164.471)" fill="#1f4068"/>
        <path id="Trazado_1669" data-name="Trazado 1669" d="M545.349,75.376a27.39,27.39,0,0,0-8.415.92,47,47,0,0,0-7.978,2.852,45.89,45.89,0,0,0-14.075,9.506c-2.045,1.984-4.007,4.049-5.929,6.154s-3.784,4.266-5.684,6.4a127.3,127.3,0,0,1-12.048,12.224l-.064-.069c3.942-4.145,7.612-8.5,11.362-12.818q2.823-3.228,5.79-6.341a82.42,82.42,0,0,1,6.228-5.931c.54-.471,1.082-.94,1.647-1.383l.836-.676q.41-.347.841-.668c.574-.429,1.128-.883,1.7-1.308l1.746-1.252.866-.636.9-.591c.6-.4,1.187-.808,1.789-1.2,1.238-.727,2.458-1.5,3.759-2.12a33.974,33.974,0,0,1,8.15-2.855,22.106,22.106,0,0,1,8.6-.3Z" transform="translate(-342.867 -52.347)" fill="#1f4068"/>
        <path id="Trazado_1670" data-name="Trazado 1670" d="M723.528,302a37.474,37.474,0,0,0,13.773-7,28.544,28.544,0,0,0,5.465-5.521,27.427,27.427,0,0,0,3.615-6.9,47.439,47.439,0,0,0,2.571-15.278,94.073,94.073,0,0,0-1.142-15.585l.092-.019q.463,1.911.885,3.839c.238,1.291.445,2.591.653,3.891.167,1.305.274,2.619.4,3.932l.072,1.978c.01.66.067,1.319.037,1.98l-.073,1.981c-.016.33-.018.661-.045.99l-.107.986-.219,1.971-.344,1.955c-.06.325-.111.652-.177.975l-.241.963c-.172.639-.309,1.286-.51,1.916s-.415,1.256-.632,1.88-.5,1.223-.748,1.834a40.413,40.413,0,0,1-3.845,6.884,31.969,31.969,0,0,1-5.214,5.945,28.654,28.654,0,0,1-6.686,4.262,26.069,26.069,0,0,1-7.573,2.226Z" transform="translate(-505.083 -175.712)" fill="#1f4068"/>
        <path id="Trazado_1671" data-name="Trazado 1671" d="M467.225,405.627a17.226,17.226,0,0,1-7.143,1.163,15.234,15.234,0,0,1-3.634-.61,14.249,14.249,0,0,1-3.378-1.526,14.633,14.633,0,0,1-4.993-5.363,20.927,20.927,0,0,1-2.354-6.85,29.458,29.458,0,0,0,2.982,6.472c.3.506.668.966,1.011,1.441.171.238.376.448.562.673a7.073,7.073,0,0,0,.593.643,13.258,13.258,0,0,0,2.7,2.189,15.219,15.219,0,0,0,6.571,2.2,22.332,22.332,0,0,0,7.087-.436" transform="translate(-311.152 -273.958)" fill="#1f4068"/>
        <path id="Trazado_1672" data-name="Trazado 1672" d="M451.242,234.35c-.056,2.811-.051,5.619.043,8.424q.114,4.208.422,8.4a129.015,129.015,0,0,0,2.237,16.635,76.2,76.2,0,0,0,2.116,8.1,50.122,50.122,0,0,0,3.175,7.721,29.8,29.8,0,0,0,4.75,6.828,20.137,20.137,0,0,0,6.795,4.8,19.45,19.45,0,0,1-7.122-4.48,28.733,28.733,0,0,1-5.068-6.8A57.671,57.671,0,0,1,453.025,268a110.2,110.2,0,0,1-2.046-16.781,125.8,125.8,0,0,1,.263-16.872" transform="translate(-314.707 -163.597)" fill="#1f4068"/>
        <path id="Trazado_1673" data-name="Trazado 1673" d="M617.031,67.993a10.068,10.068,0,0,0-2.847-.895,13.924,13.924,0,0,0-2.942-.183,17.2,17.2,0,0,0-5.706,1.352,22.922,22.922,0,0,0-2.681,1.259l-.333.166-.317.2-.635.391-1.275.778c-.8.591-1.639,1.144-2.446,1.741-.785.624-1.572,1.252-2.392,1.854.675-.752,1.384-1.477,2.094-2.206.746-.687,1.536-1.332,2.319-1.986.409-.3.835-.588,1.258-.875l.635-.431.318-.215.336-.187a21.961,21.961,0,0,1,2.769-1.356,15.255,15.255,0,0,1,6.046-1.211,12.045,12.045,0,0,1,3.057.466,8.214,8.214,0,0,1,2.742,1.341" transform="translate(-415.678 -46.201)" fill="#1f4068"/>
        <path id="Trazado_1674" data-name="Trazado 1674" d="M674.476,37.173a29.192,29.192,0,0,1,5.932-5.546,28.86,28.86,0,0,1,7.244-3.791,22.961,22.961,0,0,1,8.082-1.321,20.956,20.956,0,0,1,7.933,1.736,28.326,28.326,0,0,0-3.948-.8c-.658-.111-1.328-.133-1.99-.191l-1-.023a9.689,9.689,0,0,0-1,.01,23.756,23.756,0,0,0-3.945.44,24.637,24.637,0,0,0-3.831,1.035,33.818,33.818,0,0,0-7.143,3.51c-1.124.72-2.22,1.49-3.278,2.314a36.061,36.061,0,0,0-3.063,2.626" transform="translate(-470.841 -18.506)" fill="#1f4068"/>
        <path id="Trazado_1675" data-name="Trazado 1675" d="M723.909,105.259c-.743-1.277-1.423-2.587-2.106-3.9q-.991-1.979-1.95-3.974c-1.253-2.672-2.45-5.372-3.548-8.112s-2.067-5.531-3.012-8.325l-2.848-8.376c-.944-2.792-2-5.544-3.021-8.3s-2.1-5.493-3.3-8.16c-.6-1.331-1.222-2.654-1.922-3.929a23.924,23.924,0,0,0-2.357-3.635,9.9,9.9,0,0,0-3.241-2.74,6.562,6.562,0,0,0-2.045-.593,7.561,7.561,0,0,0-2.17.088l-.022-.091a6.575,6.575,0,0,1,4.441.131,9.708,9.708,0,0,1,3.628,2.7,30.007,30.007,0,0,1,4.6,7.658c.611,1.354,1.141,2.738,1.662,4.122s1.015,2.777,1.472,4.182c.944,2.8,1.718,5.649,2.593,8.463a169.579,169.579,0,0,0,6.314,16.49q3.343,8.169,6.914,16.254Z" transform="translate(-483.331 -31.337)" fill="#1f4068"/>
        <path id="Trazado_1676" data-name="Trazado 1676" d="M763.427,72.892a59.658,59.658,0,0,1,9.3,12.858,89.3,89.3,0,0,1,6.393,14.583c.4,1.268.761,2.546,1.143,3.818.182.639.393,1.27.552,1.914l.456,1.94c.291,1.3.615,2.584.877,3.885l.659,3.927.324,1.963.206,1.98.393,3.958c.077.658.093,1.321.112,1.984l.064,1.987q.071,1.985.11,3.968-.193-1.978-.358-3.953l-.17-1.974c-.054-.658-.1-1.316-.216-1.968l-.545-3.921-.267-1.96-.376-1.942-.742-3.883c-.281-1.286-.625-2.559-.935-3.839l-.468-1.919c-.161-.638-.374-1.262-.557-1.894-.385-1.259-.755-2.523-1.152-3.777A102.718,102.718,0,0,0,772.088,86.1l-.916-1.75-.988-1.711c-.335-.567-.642-1.152-1-1.7l-1.058-1.671a56.691,56.691,0,0,0-4.7-6.369" transform="translate(-532.936 -50.885)" fill="#1f4068"/>
        <path id="Trazado_1677" data-name="Trazado 1677" d="M669.914,67.007a2.459,2.459,0,0,1,1.951-.3,3.943,3.943,0,0,1,1.756,1,7.844,7.844,0,0,1,1.271,1.551A13.188,13.188,0,0,1,675.843,71a37.4,37.4,0,0,1,2.279,7.483c.573,2.523,1.1,5.061,1.786,7.558a77.035,77.035,0,0,0,2.441,7.365,115.984,115.984,0,0,0,6.413,14.068,76.1,76.1,0,0,0,8.621,12.81l-.068.065a51.747,51.747,0,0,1-9.431-12.392,69.274,69.274,0,0,1-3.369-7.049c-1.012-2.4-1.88-4.853-2.648-7.334s-1.5-4.969-2.253-7.449-1.551-4.952-2.254-7.45c-.348-1.247-.655-2.516-.975-3.751a30.32,30.32,0,0,0-1.207-3.632,11.078,11.078,0,0,0-1.908-3.234,3.81,3.81,0,0,0-1.494-1.05,2.393,2.393,0,0,0-1.811.073Z" transform="translate(-467.656 -46.513)" fill="#1f4068"/>
        <path id="Trazado_1678" data-name="Trazado 1678" d="M611.5,40.16a12.423,12.423,0,0,0-6.759-4.745,17.214,17.214,0,0,0-8.262-.106,34.731,34.731,0,0,0-7.952,2.782c-2.555,1.219-5.034,2.623-7.48,4.106a46.606,46.606,0,0,1,7.151-4.761,36.214,36.214,0,0,1,3.925-1.816,27.839,27.839,0,0,1,4.169-1.231,19.351,19.351,0,0,1,4.35-.415,14.743,14.743,0,0,1,4.319.745,12.357,12.357,0,0,1,3.818,2.111,11.954,11.954,0,0,1,1.536,1.535,8.444,8.444,0,0,1,1.186,1.8" transform="translate(-405.617 -23.712)" fill="#1f4068"/>
        <path id="Trazado_1679" data-name="Trazado 1679" d="M498.144,67.823A95.027,95.027,0,0,0,488.3,79.345c-.753,1.014-1.507,2.03-2.212,3.082-.364.519-.7,1.055-1.05,1.584-.329.541-.666,1.078-.977,1.63a47.352,47.352,0,0,0-3.2,6.887c-.222.593-.424,1.192-.636,1.787l-.594,1.8c-.418,1.2-.8,2.425-1.268,3.612a64.9,64.9,0,0,1-3.112,7.006,49.68,49.68,0,0,1-4.108,6.482,27,27,0,0,1-5.33,5.492l-.056-.075a33.639,33.639,0,0,0,4.785-5.847,66.757,66.757,0,0,0,3.821-6.516c.562-1.128,1.138-2.249,1.654-3.4.554-1.134,1.031-2.3,1.523-3.466.257-.578.465-1.175.7-1.763l.688-1.768c.228-.6.456-1.193.7-1.784s.5-1.176.761-1.757c1.047-2.327,2.209-4.593,3.41-6.837s2.454-4.47,3.868-6.6a51.142,51.142,0,0,1,4.778-5.983,41.2,41.2,0,0,1,5.643-5.161Z" transform="translate(-325.142 -47.296)" fill="#1f4068"/>
        <path id="Trazado_1680" data-name="Trazado 1680" d="M742.827,31.937a15.95,15.95,0,0,1,5.682,1.089,19.693,19.693,0,0,1,5.059,2.9,37.455,37.455,0,0,1,7.846,8.573l.422.592.389.613L763,46.931l.778,1.226.718,1.26c.469.846.954,1.682,1.408,2.535l1.3,2.589c.213.433.434.862.64,1.3l.593,1.32,1.17,2.645c.378.887.712,1.792,1.07,2.686s.7,1.795,1.038,2.7c-.872-1.72-1.663-3.473-2.526-5.191l-1.306-2.569-.646-1.287c-.221-.426-.457-.844-.685-1.266l-1.369-2.53c-.47-.835-.97-1.652-1.453-2.479l-.725-1.239-.778-1.2-.777-1.2-.389-.6-.419-.58a41.159,41.159,0,0,0-7.528-8.537c-.37-.3-.732-.605-1.111-.89l-1.178-.8a11.219,11.219,0,0,0-1.223-.724,10.372,10.372,0,0,0-1.271-.64,17.082,17.082,0,0,0-5.506-1.512" transform="translate(-518.556 -22.295)" fill="#1f4068"/>
        <path id="Trazado_1681" data-name="Trazado 1681" d="M849.187,160.885l3.669,7.471c1.221,2.488,2.479,4.954,3.668,7.458,1.208,2.494,2.424,4.992,3.85,7.371.706,1.19,1.45,2.369,2.133,3.585l.513.912.479.93c.331.615.614,1.254.916,1.885a40.9,40.9,0,0,1,2.66,7.955c.31,1.367.551,2.75.742,4.139.165,1.392.289,2.79.33,4.19a58.538,58.538,0,0,1-.37,8.369c-.156,1.385-.354,2.762-.543,4.136s-.4,2.743-.489,4.126h-.094a36.769,36.769,0,0,1,.124-4.175c.1-1.385.206-2.768.285-4.149a76.891,76.891,0,0,0,.1-8.268,55.227,55.227,0,0,0-.979-8.177,49.642,49.642,0,0,0-2.337-7.907c-.508-1.281-1.051-2.553-1.687-3.781-.3-.625-.644-1.223-.983-1.826s-.7-1.2-1.046-1.8c-1.4-2.4-2.867-4.762-4.233-7.188-1.381-2.417-2.578-4.932-3.719-7.467s-2.184-5.117-3.076-7.755Z" transform="translate(-592.743 -112.312)" fill="#1f4068"/>
        <path id="Trazado_1682" data-name="Trazado 1682" d="M781.51,38.453a50.939,50.939,0,0,1,6.949,6.013,56.77,56.77,0,0,1,5.9,7.062c.867,1.268,1.7,2.558,2.469,3.887.194.331.395.657.582.992l.544,1.013c.369.672.742,1.34,1.085,2.023l4.257,8.123c1.43,2.7,2.8,5.433,4.149,8.176l4.022,8.23,1.985,4.123.995,2.06,1.023,2.044c.7,1.354,1.367,2.724,2.116,4.049a41.448,41.448,0,0,0,2.379,3.9l-.072.059a31.176,31.176,0,0,1-2.715-3.712c-.826-1.292-1.606-2.612-2.356-3.948-1.495-2.674-2.895-5.394-4.255-8.133s-2.63-5.518-3.919-8.287-2.548-5.552-3.814-8.331-2.587-5.534-4.064-8.2a62.151,62.151,0,0,0-5.045-7.6c-1.83-2.424-3.754-4.775-5.8-7.022a82.285,82.285,0,0,0-6.476-6.437Z" transform="translate(-545.52 -26.844)" fill="#1f4068"/>
        <path id="Trazado_1683" data-name="Trazado 1683" d="M834.308,375.5a15.231,15.231,0,0,0,3.273-4.307,35.841,35.841,0,0,0,2.142-4.979c.609-1.709,1.125-3.455,1.609-5.215s.92-3.538,1.351-5.331a33.367,33.367,0,0,1-.638,5.5,38.014,38.014,0,0,1-1.438,5.362c-.321.871-.664,1.737-1.054,2.582a22.6,22.6,0,0,1-1.344,2.454,11.412,11.412,0,0,1-3.9,3.936" transform="translate(-582.417 -248.288)" fill="#1f4068"/>
        <path id="Trazado_1684" data-name="Trazado 1684" d="M844.577,359.489a4.613,4.613,0,0,0,1.843.059,2.859,2.859,0,0,0,1.434-.771,5.03,5.03,0,0,0,.569-.646c.175-.24.326-.5.5-.762.135-.279.312-.544.455-.832a9.11,9.11,0,0,1,.478-.868,8.1,8.1,0,0,1-.039,1.007,7.6,7.6,0,0,1-.225.99,2.927,2.927,0,0,1-.192.479,4.934,4.934,0,0,1-.229.471,3.922,3.922,0,0,1-.671.844,2.852,2.852,0,0,1-2.022.815,2.735,2.735,0,0,1-1.9-.786" transform="translate(-589.586 -248.288)" fill="#1f4068"/>
        <path id="Trazado_1685" data-name="Trazado 1685" d="M819.374,182.4a55.368,55.368,0,0,1,4.069,6.316,63.58,63.58,0,0,1,3.306,6.753c.946,2.324,1.733,4.707,2.51,7.084s1.506,4.772,2.136,7.2a43.455,43.455,0,0,1,1.318,7.42c.139,1.254.158,2.518.19,3.781l-.055,1.9c-.029.632-.111,1.261-.171,1.891a28.876,28.876,0,0,1-1.851,7.349,26.29,26.29,0,0,1-3.86,6.468l-.075-.056a32.815,32.815,0,0,0,3.243-6.671,33.378,33.378,0,0,0,1.548-7.2,40.886,40.886,0,0,0,.151-7.388,60.346,60.346,0,0,0-.939-7.377,48.865,48.865,0,0,0-1.923-7.214c-.84-2.348-1.878-4.619-2.938-6.868-2.078-4.519-4.3-8.968-6.738-13.33Z" transform="translate(-571.938 -127.335)" fill="#1f4068"/>
        <path id="Trazado_1686" data-name="Trazado 1686" d="M782.343,351.023a27.937,27.937,0,0,0,4.531-4.072,38.514,38.514,0,0,0,3.744-4.777,44.117,44.117,0,0,0,5.221-10.9,52.182,52.182,0,0,0,1.532-5.867c.17-1,.391-1.988.508-3l.208-1.506.154-1.514a80.315,80.315,0,0,0,.177-12.2,58.168,58.168,0,0,1,.553,12.261l-.1,1.539-.176,1.532c-.1,1.025-.3,2.035-.45,3.054a50.661,50.661,0,0,1-1.513,5.991,45.721,45.721,0,0,1-2.33,5.728,38.711,38.711,0,0,1-3.184,5.3,34.176,34.176,0,0,1-4.017,4.682,30.621,30.621,0,0,1-2.32,2.026,18.592,18.592,0,0,1-2.539,1.727" transform="translate(-546.141 -214.442)" fill="#1f4068"/>
        <path id="Trazado_1687" data-name="Trazado 1687" d="M453.829,157.778c-.009-1.908.1-3.809.261-5.7s.379-3.785.644-5.668c.282-1.882.595-3.76,1.016-5.62a38.152,38.152,0,0,1,1.584-5.493c-.312,1.882-.585,3.753-.863,5.626l-.807,5.622c-.559,3.747-1.088,7.5-1.834,11.238" transform="translate(-316.81 -94.446)" fill="#1f4068"/>
        <path id="Trazado_1688" data-name="Trazado 1688" d="M671.121,18.2a4.941,4.941,0,0,0-.011-2.286,4.563,4.563,0,0,0-1.026-1.933,6.685,6.685,0,0,0-1.735-1.365l-1.013-.534c-.349-.16-.7-.322-1.05-.473a34.732,34.732,0,0,0-4.388-1.5q-2.255-.6-4.584-1.043a20.294,20.294,0,0,1,4.745.327,21.885,21.885,0,0,1,4.6,1.351c.367.165.729.341,1.091.516.353.2.711.373,1.058.6a6.635,6.635,0,0,1,1.847,1.668,4.663,4.663,0,0,1,.908,2.313,4.309,4.309,0,0,1-.44,2.361" transform="translate(-458.861 -6.308)" fill="#1f4068"/>
        <path id="Trazado_1689" data-name="Trazado 1689" d="M726.942,17.221a17.913,17.913,0,0,0-.748-2.631,10.348,10.348,0,0,0-.544-1.193c-.2-.408-.45-.786-.681-1.25a3.506,3.506,0,0,1,2.1,2.106,3.847,3.847,0,0,1,.265,1.508,2.963,2.963,0,0,1-.393,1.461" transform="translate(-506.09 -8.48)" fill="#1f4068"/>
        <path id="Trazado_1690" data-name="Trazado 1690" d="M851.385,313.582a65.206,65.206,0,0,1-.326,10.346A53.133,53.133,0,0,1,849,334.115a31.326,31.326,0,0,1-1.99,4.841,17.634,17.634,0,0,1-3.056,4.284,9.93,9.93,0,0,1-9.646,2.881,11.023,11.023,0,0,0,5.031-.553,10.579,10.579,0,0,0,4.086-2.835,18.062,18.062,0,0,0,2.794-4.183,31.76,31.76,0,0,0,1.887-4.72,64.985,64.985,0,0,0,2.229-9.994q.375-2.543.636-5.108c.191-1.709.311-3.424.413-5.145" transform="translate(-582.417 -218.907)" fill="#1f4068"/>
        <path id="Trazado_1691" data-name="Trazado 1691" d="M475.9,438.078a7.541,7.541,0,0,1,.357,3.19c-.032.27-.055.542-.107.81l-.177.8c-.081.261-.176.519-.263.779s-.22.5-.328.755a8.549,8.549,0,0,1-1.965,2.606,8.689,8.689,0,0,1-1.286.984,11.411,11.411,0,0,1-1.435.715c.375-.39.788-.706,1.151-1.078a15.143,15.143,0,0,0,1.042-1.129c.156-.2.33-.385.479-.587l.428-.621a6.744,6.744,0,0,0,.393-.64,5,5,0,0,0,.35-.663,11.821,11.821,0,0,0,1-2.84,15.935,15.935,0,0,0,.365-3.08" transform="translate(-328.584 -305.816)" fill="#1f4068"/>
        <path id="Trazado_1692" data-name="Trazado 1692" d="M530.442,458.542a7.372,7.372,0,0,1-.129,2.3,9.976,9.976,0,0,1-.71,2.2A8.542,8.542,0,0,1,528.366,465a6.115,6.115,0,0,1-1.777,1.48c.411-.662.825-1.258,1.177-1.9s.687-1.276.984-1.938.589-1.328.863-2.012Z" transform="translate(-367.603 -320.102)" fill="#1f4068"/>
        <path id="Trazado_1693" data-name="Trazado 1693" d="M768.305,273.16l-2.175.184a7.807,7.807,0,0,1-8.436-7.122l-1.174-13.888a7.807,7.807,0,0,1,7.122-8.437l2.175-.184a7.807,7.807,0,0,1,8.437,7.122l1.173,13.888a7.807,7.807,0,0,1-7.122,8.437" transform="translate(-528.095 -170.114)" fill="#ffc89f"/>
        <path id="Trazado_1694" data-name="Trazado 1694" d="M784.742,271.336a3.75,3.75,0,0,1,2.717.718,5.735,5.735,0,0,1,1.054,1.031,7.039,7.039,0,0,1,.754,1.262,8.371,8.371,0,0,1,.723,2.83,8.677,8.677,0,0,1-.3,2.931,6.255,6.255,0,0,1-1.492,2.615,4.579,4.579,0,0,1-1.265.955,1.744,1.744,0,0,1-.985.175,1.439,1.439,0,0,1-.921-.534,3.148,3.148,0,0,1-.586-1.483,8.767,8.767,0,0,1-.109-1.421,13.685,13.685,0,0,1,.291-2.757c.1.914.2,1.819.367,2.7a10.045,10.045,0,0,0,.312,1.272,2.607,2.607,0,0,0,.519.984.3.3,0,0,0,.246.107.851.851,0,0,0,.328-.12,3.374,3.374,0,0,0,.843-.755,5.867,5.867,0,0,0,1.1-2.131,7.771,7.771,0,0,0,.3-2.467,8.432,8.432,0,0,0-.412-2.483A5.838,5.838,0,0,0,787,272.587a4.086,4.086,0,0,0-2.254-1.251" transform="translate(-547.528 -189.392)" fill="#ff9b6c"/>
        <path id="Trazado_1695" data-name="Trazado 1695" d="M777.842,271.955a3.727,3.727,0,0,1-.9-1.5,3.974,3.974,0,0,1-.178-1.789,2.857,2.857,0,0,1,.31-.959,1.978,1.978,0,0,1,.765-.787,1.788,1.788,0,0,1,1.88.107,2.743,2.743,0,0,0-1.209.774,2.385,2.385,0,0,0-.352,1.066c-.064.433-.088.923-.122,1.436a13.012,13.012,0,0,1-.192,1.653" transform="translate(-542.221 -186.181)" fill="#ff9b6c"/>
        <path id="Trazado_1696" data-name="Trazado 1696" d="M692.265,281.073c.1,1.181-2.489,2.363-5.783,2.642s-6.045-.453-6.144-1.634,2.489-2.363,5.783-2.642,6.044.453,6.144,1.634" transform="translate(-474.931 -195.031)" fill="#ff9b6c"/>
        <path id="Trazado_1697" data-name="Trazado 1697" d="M530.994,294.7c.1,1.181-2.49,2.363-5.783,2.642s-6.045-.453-6.144-1.634,2.489-2.363,5.783-2.642,6.045.454,6.144,1.634" transform="translate(-362.35 -204.543)" fill="#ff9b6c"/>
        <g id="Grupo_366" data-name="Grupo 366" transform="translate(218.456 307.819)" opacity="0.4" style="mix-blend-mode: multiply;isolation: isolate">
          <g id="Grupo_365" data-name="Grupo 365">
            <g id="Grupo_364" data-name="Grupo 364" clip-path="url(#clip-path-3)">
              <path id="Trazado_1698" data-name="Trazado 1698" d="M723.565,1086.539s34.852-36.719,47.922-66.985c0,0-20.728,49.64-31.849,66.985Z" transform="translate(-723.565 -1019.554)" fill="#a65b3c"/>
            </g>
          </g>
        </g>
        <g id="Grupo_369" data-name="Grupo 369" transform="translate(266.378 207.717)" opacity="0.4" style="mix-blend-mode: multiply;isolation: isolate">
          <g id="Grupo_368" data-name="Grupo 368">
            <g id="Grupo_367" data-name="Grupo 367" clip-path="url(#clip-path-4)">
              <path id="Trazado_1699" data-name="Trazado 1699" d="M914.883,688a411.23,411.23,0,0,0-18.5,48.487c-7.538,25.014-9.157,41.629-14.087,51.615,0,0,14.057-30.618,19.912-57.44S914.883,688,914.883,688" transform="translate(-882.292 -687.998)" fill="#a65b3c"/>
            </g>
          </g>
        </g>
        <g id="Grupo_372" data-name="Grupo 372" transform="translate(280.013 353.931)" opacity="0.4" style="mix-blend-mode: multiply;isolation: isolate">
          <g id="Grupo_371" data-name="Grupo 371">
            <g id="Grupo_370" data-name="Grupo 370" clip-path="url(#clip-path-5)">
              <path id="Trazado_1700" data-name="Trazado 1700" d="M927.453,1172.3a.045.045,0,0,1,0-.013v.01Z" transform="translate(-927.453 -1172.284)" fill="#a65b3c"/>
            </g>
          </g>
        </g>
        <g id="Grupo_375" data-name="Grupo 375" transform="translate(249.195 210.408)" opacity="0.4" style="mix-blend-mode: multiply;isolation: isolate">
          <g id="Grupo_374" data-name="Grupo 374">
            <g id="Grupo_373" data-name="Grupo 373" clip-path="url(#clip-path-6)">
              <path id="Trazado_1701" data-name="Trazado 1701" d="M907.888,753.739q-1.615.829-3.237,1.577a77.367,77.367,0,0,0-13.663,7.967,70.126,70.126,0,0,0-16.424,17.427c-4.188,6.13-8.51,12.165-13.036,18.05a239.892,239.892,0,0,0-15.853,23.9c-5.259,8.821-19.388,34.46-20.294,36.241,1.181-2.577,24.123-52.557,30.828-76.422,6.8-24.212,20.81-84.161,21.138-85.562-.131.754-3.35,19.158-5.309,37.265-.487,4.5-2.432,18.477,6.2,23.446,8.929,5.141,22.568-.8,29.652-3.885" transform="translate(-825.38 -696.913)" fill="#a65b3c"/>
            </g>
          </g>
        </g>
        <g id="Grupo_378" data-name="Grupo 378" transform="translate(300.009 191.515)" opacity="0.4" style="mix-blend-mode: multiply;isolation: isolate">
          <g id="Grupo_377" data-name="Grupo 377">
            <g id="Grupo_376" data-name="Grupo 376" clip-path="url(#clip-path-7)">
              <path id="Trazado_1702" data-name="Trazado 1702" d="M1008.479,634.334A78.756,78.756,0,0,0,994.3,682.192s-5.116-24.83,14.179-47.858" transform="translate(-993.686 -634.334)" fill="#a65b3c"/>
            </g>
          </g>
        </g>
        <g id="Grupo_381" data-name="Grupo 381" transform="translate(310.052 193.196)" opacity="0.4" style="mix-blend-mode: multiply;isolation: isolate">
          <g id="Grupo_380" data-name="Grupo 380">
            <g id="Grupo_379" data-name="Grupo 379" clip-path="url(#clip-path-8)">
              <path id="Trazado_1703" data-name="Trazado 1703" d="M1031.7,639.9s-5.307,14.139,2.717,28.279c0,0-14.813-8.757-2.717-28.279" transform="translate(-1026.947 -639.902)" fill="#a65b3c"/>
            </g>
          </g>
        </g>
        <g id="Grupo_384" data-name="Grupo 384" transform="translate(333.092 198.896)" opacity="0.4" style="mix-blend-mode: multiply;isolation: isolate">
          <g id="Grupo_383" data-name="Grupo 383">
            <g id="Grupo_382" data-name="Grupo 382" clip-path="url(#clip-path-9)">
              <path id="Trazado_1704" data-name="Trazado 1704" d="M1134.266,658.781s-2.554,23.326-31.011,29.577c0,0,27.246-.038,31.011-29.577" transform="translate(-1103.256 -658.781)" fill="#a65b3c"/>
            </g>
          </g>
        </g>
        <g id="Grupo_387" data-name="Grupo 387" transform="translate(335.927 222.046)" opacity="0.4" style="mix-blend-mode: multiply;isolation: isolate">
          <g id="Grupo_386" data-name="Grupo 386">
            <g id="Grupo_385" data-name="Grupo 385" clip-path="url(#clip-path-10)">
              <path id="Trazado_1705" data-name="Trazado 1705" d="M1139.414,735.458s-2.313,19.978-26.76,35.722c0,0,22.362-7.179,26.76-35.722" transform="translate(-1112.653 -735.458)" fill="#a65b3c"/>
            </g>
          </g>
        </g>
        <g id="Grupo_390" data-name="Grupo 390" transform="translate(116.009 185.072)" opacity="0.4" style="mix-blend-mode: multiply;isolation: isolate">
          <g id="Grupo_389" data-name="Grupo 389">
            <g id="Grupo_388" data-name="Grupo 388" clip-path="url(#clip-path-11)">
              <path id="Trazado_1706" data-name="Trazado 1706" d="M384.347,613.626c-.03-.213-.069-.421-.1-.631.034.2.069.41.1.631" transform="translate(-384.244 -612.995)" fill="#a65b3c"/>
            </g>
          </g>
        </g>
        <g id="Grupo_393" data-name="Grupo 393" transform="translate(67.617 183.957)" opacity="0.4" style="mix-blend-mode: multiply;isolation: isolate">
          <g id="Grupo_392" data-name="Grupo 392">
            <g id="Grupo_391" data-name="Grupo 391" clip-path="url(#clip-path-12)">
              <path id="Trazado_1707" data-name="Trazado 1707" d="M257.5,679.963a37.472,37.472,0,0,1,5.73-20.549c12.33-19.58,10.56-39.725,9.236-48.267,2.124,15.164-5.285,35.372-8.7,22.146-4.882-18.935-15.916-23.78-16.442-23.992a33.165,33.165,0,0,1,13.153,19.558c.786,3.282.521,8.347-5.435,2.339-13.529-13.645-31.09-10.908-31.09-10.908s46.359,0,27.656,47.247a9.967,9.967,0,0,1-7.055,10.892v0c.058.131.113.267.165.4a.02.02,0,0,0,.005.013,31.165,31.165,0,0,1,1.684,9.886c.042-.026.128-.029.126-.078-.249-7.312,6.565-11.752,8.262,3.977,3.251,30.133,13.349,46.708,13.349,46.708-8.44-17.978-10.393-42.861-10.647-59.374" transform="translate(-223.959 -609.3)" fill="#a65b3c"/>
            </g>
          </g>
        </g>
        <path id="Trazado_1708" data-name="Trazado 1708" d="M219.5,729.253a23.134,23.134,0,0,1,9.231,3.483,24.1,24.1,0,0,1,7.081,6.958,28.15,28.15,0,0,1,2.339,4.409c.163.382.294.778.442,1.167s.292.779.4,1.18l.359,1.193c.109.4.192.808.289,1.211a37.4,37.4,0,0,1,.866,9.858,45.181,45.181,0,0,0-1.324-9.747,31.893,31.893,0,0,0-1.562-4.64,28.238,28.238,0,0,0-2.315-4.3,25.091,25.091,0,0,0-6.836-6.9,26.552,26.552,0,0,0-4.292-2.362,23.1,23.1,0,0,0-4.681-1.513" transform="translate(-153.226 -509.081)" fill="#a65b3c"/>
        <g id="Grupo_396" data-name="Grupo 396" transform="translate(98.057 289.02)" opacity="0.4" style="mix-blend-mode: multiply;isolation: isolate">
          <g id="Grupo_395" data-name="Grupo 395">
            <g id="Grupo_394" data-name="Grupo 394" clip-path="url(#clip-path-13)">
              <path id="Trazado_1709" data-name="Trazado 1709" d="M324.782,957.289s4.171,48.9,25.433,85.784H336.066s-8.67-33.587-11.284-85.784" transform="translate(-324.782 -957.289)" fill="#a65b3c"/>
            </g>
          </g>
        </g>
        <g id="Grupo_399" data-name="Grupo 399" transform="translate(82.238 323.11)" opacity="0.4" style="mix-blend-mode: multiply;isolation: isolate">
          <g id="Grupo_398" data-name="Grupo 398">
            <g id="Grupo_397" data-name="Grupo 397" clip-path="url(#clip-path-14)">
              <path id="Trazado_1710" data-name="Trazado 1710" d="M280.6,1070.2s-7.309,25.108-.958,51.694h-7.258s.737-27.7,8.215-51.694" transform="translate(-272.387 -1070.201)" fill="#a65b3c"/>
            </g>
          </g>
        </g>
        <g id="Grupo_402" data-name="Grupo 402" transform="translate(323.014 130.386)" opacity="0.4" style="mix-blend-mode: multiply;isolation: isolate">
          <g id="Grupo_401" data-name="Grupo 401">
            <g id="Grupo_400" data-name="Grupo 400" clip-path="url(#clip-path-15)">
              <path id="Trazado_1711" data-name="Trazado 1711" d="M1112.782,457.127v0s-20.3,37.99-38.136,8.608c-1.658-2.73-5.544-6.472-4.631-10.341,5.665-24.008,37.732-32.515,41.877-11.864,1.168,5.809.77,9.35.891,13.595" transform="translate(-1069.878 -431.865)" fill="#a65b3c"/>
            </g>
          </g>
        </g>
        <g id="Grupo_405" data-name="Grupo 405" transform="translate(13.09 241.742)" opacity="0.4" style="mix-blend-mode: multiply;isolation: isolate">
          <g id="Grupo_404" data-name="Grupo 404">
            <g id="Grupo_403" data-name="Grupo 403" clip-path="url(#clip-path-16)">
              <path id="Trazado_1712" data-name="Trazado 1712" d="M50.916,851.793c-17.487-20.92.835-43.548.835-43.548.589-1.613,1.252-3.18,1.972-4.693,13.975-4.835,29.338-4.61,42.076,9.19,0,0,7.267,21.843-21.561,43.393-16.4,12.259-23.323-4.341-23.323-4.341" transform="translate(-43.355 -800.694)" fill="#a65b3c"/>
            </g>
          </g>
        </g>
        <path id="Trazado_1713" data-name="Trazado 1713" d="M299.248,802.184a9.624,9.624,0,0,1-1.212,6.954,9,9,0,0,1-1.135,1.429,8.675,8.675,0,0,1-1.406,1.152,9.642,9.642,0,0,1-3.3,1.358,14.91,14.91,0,0,0,3.029-1.742,9.768,9.768,0,0,0,2.3-2.519,10.787,10.787,0,0,0,1.322-3.16,14.145,14.145,0,0,0,.4-3.473" transform="translate(-203.975 -559.993)" fill="#a65b3c"/>
        <path id="Trazado_1714" data-name="Trazado 1714" d="M223.956,645.587a40.794,40.794,0,0,1,8.448.827,37.854,37.854,0,0,1,8.115,2.555,30.859,30.859,0,0,1,7.17,4.554A24.813,24.813,0,0,1,253.158,660a23.581,23.581,0,0,1,2.822,8.027,33.114,33.114,0,0,1,.386,4.258,35.355,35.355,0,0,1-.179,4.266c-.137,1.417-.367,2.821-.639,4.215-.152.694-.3,1.387-.469,2.077-.183.685-.349,1.375-.547,2.056a65.837,65.837,0,0,1-2.891,7.98l-.056-.022c.942-2.663,1.8-5.352,2.491-8.081a52.869,52.869,0,0,0,1.47-8.287,39.965,39.965,0,0,0,.191-4.194,32.531,32.531,0,0,0-.318-4.18,25.091,25.091,0,0,0-2.55-7.954,21.493,21.493,0,0,0-5.3-6.483,28.946,28.946,0,0,0-7.246-4.245,47.664,47.664,0,0,0-8.011-2.557c-1.371-.307-2.753-.578-4.147-.777s-2.794-.368-4.2-.447Z" transform="translate(-156.34 -450.672)" fill="#a65b3c"/>
        <path id="Trazado_1715" data-name="Trazado 1715" d="M301.329,609.283a27.722,27.722,0,0,1,5.014,4.131,34.679,34.679,0,0,1,4.047,5.112,34.14,34.14,0,0,1,4.786,12.1,40.946,40.946,0,0,1,.585,6.509c0,.544-.026,1.089-.037,1.633l-.023.816c-.012.272-.043.543-.064.814l-.141,1.627c-.065.54-.158,1.076-.236,1.615a52.458,52.458,0,0,1-1.405,6.36c-.314,1.039-.672,2.063-1.006,3.094-.383,1.014-.78,2.022-1.178,3.029l1.026-3.079c.29-1.042.6-2.076.872-3.121a52.783,52.783,0,0,0,1.231-6.347,46.549,46.549,0,0,0,.411-6.435,40.608,40.608,0,0,0-.629-6.4,34.809,34.809,0,0,0-8.454-17.116,29.709,29.709,0,0,0-4.8-4.332" transform="translate(-210.353 -425.332)" fill="#a65b3c"/>
        <path id="Trazado_1716" data-name="Trazado 1716" d="M360.312,603.233a64.673,64.673,0,0,1,1.8,13.809,69.054,69.054,0,0,1-.139,6.981q-.237,3.486-.78,6.943-.6,3.445-1.5,6.825l-.49,1.678c-.084.279-.162.56-.25.837l-.277.828c-.189.551-.361,1.108-.565,1.654l-.631,1.629a59.1,59.1,0,0,1-6.624,12.248,69.1,69.1,0,0,0,3.41-6.059c.541-1.024,1-2.087,1.483-3.139.244-.524.443-1.069.666-1.6s.446-1.067.632-1.615c.811-2.166,1.506-4.372,2.116-6.6q.875-3.356,1.437-6.781a79.587,79.587,0,0,0,1.051-13.818q-.022-3.471-.357-6.935a62.414,62.414,0,0,0-.977-6.883" transform="translate(-244.924 -421.108)" fill="#a65b3c"/>
        <path id="Trazado_1717" data-name="Trazado 1717" d="M913.3,630.526c-1.082.084-2.159.2-3.228.367s-2.133.348-3.189.567a44.166,44.166,0,0,0-6.21,1.758,32.044,32.044,0,0,0-2.973,1.241,29.14,29.14,0,0,0-2.838,1.523,26.325,26.325,0,0,0-5.07,4c.349-.414.679-.851,1.066-1.234.189-.2.372-.4.567-.589l.594-.563a21.835,21.835,0,0,1,2.589-2.008,27.7,27.7,0,0,1,5.857-2.933c1.029-.368,2.071-.7,3.129-.976s2.125-.5,3.2-.677a32.847,32.847,0,0,1,6.5-.472" transform="translate(-621.148 -440.15)" fill="#a65b3c"/>
        <path id="Trazado_1718" data-name="Trazado 1718" d="M426.427,544.188c-1.29-.986-2.541-2.012-3.835-2.971s-2.619-1.869-3.992-2.7-2.777-1.62-4.206-2.367-2.9-1.425-4.354-2.138a40.413,40.413,0,0,1,4.559,1.713A38.724,38.724,0,0,1,418.916,538a34.5,34.5,0,0,1,3.967,2.85,42.616,42.616,0,0,1,3.545,3.339" transform="translate(-286.242 -372.783)" fill="#a65b3c"/>
        <path id="Trazado_1719" data-name="Trazado 1719" d="M600.314,597.857a58.153,58.153,0,0,1-11.8,7.942,54.755,54.755,0,0,1-6.582,2.76,47.508,47.508,0,0,1-14,2.555c-.594.03-1.189.028-1.783.026s-1.188-.017-1.782-.038-1.187-.054-1.779-.091-1.183-.1-1.775-.153a52.736,52.736,0,0,1-13.807-3.359,49.876,49.876,0,0,1-12.372-7.044,50.526,50.526,0,0,1-19.5-36.737l.06-.005a54.989,54.989,0,0,0,3.281,13.758,51.536,51.536,0,0,0,2.955,6.421,52.427,52.427,0,0,0,25.7,23.3,46.689,46.689,0,0,0,13.7,3.457c.589.049,1.177.113,1.768.135s1.18.072,1.772.069,1.182.017,1.773-.006,1.181-.026,1.771-.07a50.476,50.476,0,0,0,7.016-.906,55.35,55.35,0,0,0,13.378-4.49,66.082,66.082,0,0,0,11.963-7.573Z" transform="translate(-359.607 -393.52)" fill="#a65b3c"/>
        <path id="Trazado_1720" data-name="Trazado 1720" d="M1009.519,634.334a61.442,61.442,0,0,0-3.33,5.4q-1.551,2.764-2.875,5.644c-.876,1.92-1.718,3.857-2.469,5.828s-1.42,3.974-2.02,6c-.624,2.015-1.136,4.063-1.6,6.12s-.8,4.143-1.113,6.229c-.279,2.091-.516,4.192-.618,6.3-.084,1.054-.106,2.11-.137,3.168-.024.529-.014,1.057-.012,1.586l0,1.588c-.136-2.112-.2-4.234-.143-6.355.042-2.122.229-4.238.453-6.349a76.389,76.389,0,0,1,2.6-12.463,79.3,79.3,0,0,1,4.651-11.85,62.829,62.829,0,0,1,6.623-10.841" transform="translate(-694.716 -442.819)" fill="#a65b3c"/>
        <path id="Trazado_1721" data-name="Trazado 1721" d="M219.5,729.253a23.134,23.134,0,0,1,9.231,3.483,24.1,24.1,0,0,1,7.081,6.958,28.15,28.15,0,0,1,2.339,4.409c.163.382.294.778.442,1.167s.292.779.4,1.18l.359,1.193c.109.4.192.808.289,1.211a37.4,37.4,0,0,1,.866,9.858,45.181,45.181,0,0,0-1.324-9.747,31.893,31.893,0,0,0-1.562-4.64,28.238,28.238,0,0,0-2.315-4.3,25.091,25.091,0,0,0-6.836-6.9,26.552,26.552,0,0,0-4.292-2.362,23.1,23.1,0,0,0-4.681-1.513" transform="translate(-153.226 -509.081)" fill="#a65b3c"/>
        <path id="Trazado_1722" data-name="Trazado 1722" d="M197.216,677.317a25.487,25.487,0,0,1,6.432,1.137,26.486,26.486,0,0,1,6,2.661,21.868,21.868,0,0,1,5.06,4.19,19.42,19.42,0,0,1,3.458,5.541,25.166,25.166,0,0,0-1.736-2.744c-.3-.447-.656-.856-.987-1.279l-.532-.607-.266-.3-.282-.288a22.973,22.973,0,0,0-2.383-2.161,23.881,23.881,0,0,0-2.643-1.833,26.126,26.126,0,0,0-2.842-1.515c-.973-.458-1.976-.854-2.991-1.216s-2.052-.669-3.1-.934a29.156,29.156,0,0,0-3.186-.648" transform="translate(-137.673 -472.825)" fill="#a65b3c"/>
        <path id="Trazado_1723" data-name="Trazado 1723" d="M179.02,935.107a16.564,16.564,0,0,1-1.547,4.512,26.486,26.486,0,0,1-2.521,4.073,29.45,29.45,0,0,1-3.215,3.546l-.434.411-.456.388-.916.766c-.628.488-1.28.946-1.932,1.4.57-.557,1.168-1.073,1.737-1.62l.842-.833.423-.412.4-.431q.4-.434.808-.86c.268-.287.514-.594.772-.89.529-.581,1-1.214,1.486-1.826a36.785,36.785,0,0,0,2.586-3.928,25.176,25.176,0,0,0,1.962-4.294" transform="translate(-117.279 -652.784)" fill="#a65b3c"/>
        <path id="Trazado_1724" data-name="Trazado 1724" d="M944.247,673.994q-1.846,3.642-3.524,7.361c-.565,1.237-1.133,2.472-1.675,3.72l-.822,1.867-.8,1.877c-2.123,5.007-4.164,10.049-6.051,15.149-.482,1.271-.94,2.551-1.412,3.826l-.7,1.915-.671,1.926-1.338,3.853-1.283,3.872c-1.725,5.159-3.279,10.373-4.848,15.587q.5-1.978,1.024-3.953c.353-1.314.672-2.639,1.056-3.945.767-2.612,1.492-5.238,2.325-7.831.4-1.3.809-2.6,1.23-3.9l1.314-3.868.659-1.934.691-1.922c.464-1.28.913-2.566,1.39-3.842l1.472-3.812c.487-1.272,1.016-2.527,1.521-3.792s1.035-2.52,1.567-3.773l.8-1.881.835-1.865.836-1.864.861-1.853c.569-1.237,1.159-2.465,1.755-3.689,1.215-2.437,2.439-4.871,3.79-7.235" transform="translate(-643.023 -470.505)" fill="#a65b3c"/>
        <path id="Trazado_1725" data-name="Trazado 1725" d="M984.1,696.908c-.136,1.871-.312,3.739-.544,5.6q-.164,1.4-.363,2.789c-.129.928-.266,1.856-.426,2.779l-.5,2.767c-.175.921-.347,1.842-.5,2.767-.312,1.847-.567,3.7-.806,5.563s-.477,3.718-.734,5.572l-.734,5.566c-.494,3.709-.923,7.418-1.1,11.164h-.06a65.32,65.32,0,0,1,.523-11.245c.23-1.863.514-3.717.811-5.569s.623-3.7.97-5.54.671-3.688.939-5.543.466-3.719.7-5.578.535-3.707.822-5.558.6-3.7.948-5.543Z" transform="translate(-682.906 -486.496)" fill="#a65b3c"/>
        <path id="Trazado_1726" data-name="Trazado 1726" d="M1038.045,639.9a31.412,31.412,0,0,0-.8,3.555c-.213,1.194-.362,2.4-.47,3.6a41,41,0,0,0,0,7.242,38.091,38.091,0,0,0,1.324,7.114,40.73,40.73,0,0,0,2.666,6.764,30.261,30.261,0,0,1-3.116-6.625A33.627,33.627,0,0,1,1036.7,658a36.142,36.142,0,0,1-.532-3.643c-.1-1.224-.149-2.452-.129-3.678a34.4,34.4,0,0,1,.263-3.667,29.3,29.3,0,0,1,1.74-7.109" transform="translate(-723.242 -446.706)" fill="#a65b3c"/>
        <path id="Trazado_1727" data-name="Trazado 1727" d="M1056.329,621.08a30.945,30.945,0,0,0,.79,4.12,23.477,23.477,0,0,0,1.388,3.915,16.164,16.164,0,0,0,.971,1.827,14.634,14.634,0,0,0,4.241,4.521,10.679,10.679,0,0,1-3.412-2.52,13.847,13.847,0,0,1-2.347-3.575,17.839,17.839,0,0,1-1.3-4.063,17.043,17.043,0,0,1-.332-4.225" transform="translate(-737.391 -433.567)" fill="#a65b3c"/>
        <path id="Trazado_1728" data-name="Trazado 1728" d="M1154.28,534.567a19.74,19.74,0,0,1-4.19,6.542,23.251,23.251,0,0,1-6.257,4.693,26.192,26.192,0,0,1-3.624,1.507,26.535,26.535,0,0,1-3.8.935,31.127,31.127,0,0,1-7.776.336,40.638,40.638,0,0,0,7.688-.8,28.343,28.343,0,0,0,7.24-2.516,25.12,25.12,0,0,0,6.2-4.484,25.4,25.4,0,0,0,2.519-2.91,19.73,19.73,0,0,0,2.007-3.3" transform="translate(-787.878 -373.173)" fill="#a65b3c"/>
        <path id="Trazado_1729" data-name="Trazado 1729" d="M1134.266,658.781a30.806,30.806,0,0,1-3.591,10.794,33.38,33.38,0,0,1-3.145,4.791,34.4,34.4,0,0,1-3.883,4.222c-.343.334-.716.635-1.082.944s-.726.624-1.115.9l-1.146.865-1.187.806c-.2.132-.393.272-.6.4l-.614.37c-.411.244-.814.5-1.232.733-.846.443-1.675.922-2.555,1.3l-1.3.593-1.331.526c-.88.37-1.794.645-2.695.954-.449.158-.913.271-1.372.4l-1.377.374c-.924.224-1.858.411-2.786.609l2.744-.763,1.353-.438c.45-.148.9-.282,1.344-.46.884-.339,1.785-.633,2.646-1.027l1.3-.559,1.273-.624c.425-.207.85-.412,1.257-.651l1.242-.679c.41-.234.806-.491,1.209-.735l.6-.371c.2-.125.39-.266.585-.4l1.162-.805,1.12-.863c.38-.279.728-.6,1.088-.9s.72-.607,1.057-.937a36.737,36.737,0,0,0,9.462-13.908,29.686,29.686,0,0,0,1.566-5.456" transform="translate(-770.165 -459.885)" fill="#a65b3c"/>
        <path id="Trazado_1730" data-name="Trazado 1730" d="M1139.414,735.458a21.828,21.828,0,0,1-.514,2.823c-.222.932-.484,1.854-.779,2.767a45.722,45.722,0,0,1-2.143,5.338,54.05,54.05,0,0,1-6.081,9.759,61.893,61.893,0,0,1-7.955,8.3c-.365.311-.724.628-1.094.933l-1.121.9c-.739.611-1.521,1.165-2.285,1.741s-1.577,1.086-2.362,1.631c-.8.525-1.615,1.026-2.426,1.531l2.334-1.663c.758-.581,1.534-1.137,2.276-1.736s1.505-1.171,2.222-1.8l1.089-.926c.359-.313.706-.639,1.06-.958.712-.632,1.387-1.3,2.078-1.958.35-.323.673-.672,1.008-1.01s.672-.674.992-1.026c1.3-1.389,2.534-2.838,3.71-4.332s2.284-3.041,3.312-4.64,1.957-3.261,2.829-4.951a46.241,46.241,0,0,0,2.279-5.231,32.875,32.875,0,0,0,1.571-5.494" transform="translate(-776.726 -513.412)" fill="#a65b3c"/>
        <path id="Trazado_1731" data-name="Trazado 1731" d="M723.565,1118.068c1.878-2.087,3.746-4.181,5.572-6.311.925-1.054,1.832-2.125,2.749-3.186l2.714-3.216c3.6-4.3,7.142-8.653,10.57-13.093,3.481-4.4,6.777-8.939,10.03-13.507l2.4-3.452c.8-1.151,1.552-2.336,2.333-3.5l1.17-1.749c.391-.583.751-1.185,1.128-1.776l2.25-3.559q-4.152,7.327-8.9,14.3c-.766,1.178-1.6,2.309-2.407,3.458s-1.618,2.3-2.462,3.42l-2.5,3.389-2.562,3.345c-3.472,4.416-7.014,8.778-10.694,13.023l-2.78,3.165c-.94,1.044-1.865,2.1-2.816,3.132s-1.9,2.063-2.869,3.083-1.934,2.036-2.923,3.032" transform="translate(-505.109 -743.264)" fill="#a65b3c"/>
        <path id="Trazado_1732" data-name="Trazado 1732" d="M861.13,879.939c-.306,2.411-.786,4.795-1.3,7.169-.273,1.183-.517,2.374-.814,3.551l-.881,3.535-.963,3.513-.484,1.756c-.162.585-.342,1.165-.512,1.748-.693,2.327-1.391,4.654-2.159,6.957l-1.154,3.454c-.377,1.154-.786,2.3-1.2,3.44l-2.437,6.862c-.846,2.275-1.663,4.56-2.482,6.845s-1.685,4.552-2.525,6.829c-1.645,4.569-3.467,9.069-5.248,13.586-1.812,4.5-3.708,8.974-5.6,13.445q-2.931,6.667-5.936,13.3-3.092,6.593-6.248,13.154l-.055-.026q2.9-6.679,5.871-13.322c.977-2.221,1.923-4.455,2.886-6.681s1.94-4.447,2.909-6.67l2.82-6.708,1.425-3.348.713-1.674.687-1.684c1.812-4.5,3.713-8.965,5.466-13.489l1.333-3.386c.445-1.129.895-2.255,1.3-3.4.837-2.277,1.675-4.554,2.484-6.841s1.554-4.6,2.316-6.9c.78-2.3,1.46-4.627,2.191-6.938.76-2.3,1.407-4.641,2.128-6.956.175-.58.36-1.158.528-1.74l.5-1.749.994-3.5.941-3.512c.323-1.169.593-2.35.892-3.525.152-.587.285-1.178.421-1.769l.412-1.771c.251-1.185.507-2.371.713-3.566Z" transform="translate(-573.225 -614.267)" fill="#a65b3c"/>
        <path id="Trazado_1733" data-name="Trazado 1733" d="M324.743,957.281c.91,7.447,2.16,14.84,3.549,22.206l.519,2.763.546,2.759.574,2.753c.192.918.417,1.828.626,2.742.411,1.829.893,3.643,1.376,5.454q.367,1.358.751,2.71l.8,2.7c1.1,3.583,2.238,7.156,3.472,10.694s2.529,7.054,3.913,10.534a223.763,223.763,0,0,0,9.3,20.46l-.053.029c-1.865-3.255-3.675-6.551-5.285-9.946l-.613-1.268-.587-1.28-1.17-2.564c-.742-1.725-1.489-3.45-2.173-5.2q-1.061-2.611-2.024-5.259c-.333-.879-.624-1.772-.938-2.657s-.624-1.772-.91-2.666l-.878-2.677-.826-2.693c-.282-.9-.538-1.8-.792-2.7s-.521-1.8-.757-2.712c-1-3.619-1.9-7.264-2.812-10.9l-1.325-5.473-.63-2.745-.6-2.752c-.363-1.842-.733-3.683-1.045-5.535s-.607-3.706-.876-5.565c-.524-3.718-.97-7.45-1.2-11.2Z" transform="translate(-226.656 -668.263)" fill="#a65b3c"/>
        <path id="Trazado_1734" data-name="Trazado 1734" d="M291.057,1070.19c-.489,2.118-.9,4.25-1.276,6.385l-.264,1.605c-.092.534-.187,1.068-.259,1.605-.145,1.074-.344,2.141-.479,3.217-.329,2.144-.616,4.3-.816,6.461-.076,1.083-.13,2.168-.184,3.252-.039.542-.027,1.086-.031,1.629l0,1.629c0,.543-.006,1.085.008,1.628l.055,1.627.048,1.626c.018.542.017,1.084.062,1.625.14,2.164.245,4.329.485,6.484l.144,1.62c.046.54.093,1.08.169,1.617l.407,3.227c.078.536.112,1.08.214,1.613l.266,1.606q.263,1.607.5,3.223l-.059.013q-.384-1.585-.741-3.179c-.233-1.064-.5-2.123-.645-3.2l-.518-3.228c-.04-.27-.094-.537-.121-.808l-.085-.813-.17-1.626a90.194,90.194,0,0,1-.348-13.057l.154-3.261c.074-1.085.149-2.17.2-3.257l.219-3.257.055-.815.078-.813.159-1.626A65.377,65.377,0,0,1,291,1070.172Z" transform="translate(-200.575 -747.071)" fill="#a65b3c"/>
        <path id="Trazado_1735" data-name="Trazado 1735" d="M335.636,826.828q.011,4.1.187,8.2.157,4.1.453,8.185c.209,2.724.42,5.448.707,8.164s.622,5.427,1.012,8.13.821,5.4,1.318,8.083,1.1,5.347,1.725,8.005q.97,3.978,2.2,7.888c.825,2.6,1.765,5.17,2.791,7.707-1.152-2.482-2.15-5.034-3.072-7.613q-1.316-3.893-2.369-7.868a151.745,151.745,0,0,1-3.19-16.117c-.742-5.428-1.292-10.881-1.584-16.349q-.216-4.1-.286-8.206c-.021-2.737-.021-5.474.107-8.208" transform="translate(-234.22 -577.196)" fill="#a65b3c"/>
        <path id="Trazado_1736" data-name="Trazado 1736" d="M803.2,611.179q1.414-1.3,2.7-2.709c.866-.934,1.695-1.9,2.494-2.889a54.28,54.28,0,0,0,4.352-6.245,46.626,46.626,0,0,0,3.355-6.824c.46-1.183.883-2.383,1.233-3.606.386-1.215.646-2.463.926-3.711a33.094,33.094,0,0,1-1.717,7.482l-.327.907-.362.893c-.118.3-.246.594-.38.886s-.258.589-.4.879c-.552,1.161-1.165,2.292-1.813,3.4a44.488,44.488,0,0,1-4.511,6.238,37.253,37.253,0,0,1-5.554,5.3" transform="translate(-560.705 -408.515)" fill="#a65b3c"/>
        <path id="Trazado_1737" data-name="Trazado 1737" d="M685.881,682.125l-.038,2.409c0,.8-.011,1.6,0,2.392,0,.4,0,.8.014,1.2l0,.6c.008.2.011.4.012.6.01.8.034,1.6.009,2.415a15.322,15.322,0,0,1-.479-2.381,20.847,20.847,0,0,1-.164-2.423,20.107,20.107,0,0,1,.137-2.427,11.716,11.716,0,0,1,.507-2.378" transform="translate(-478.353 -476.181)" fill="#a65b3c"/>
        <path id="Trazado_1738" data-name="Trazado 1738" d="M746.7,672.509a16.649,16.649,0,0,1,.814,2.075c.234.7.428,1.417.609,2.135s.328,1.443.443,2.175a17.8,17.8,0,0,1,.241,2.215c-.276-.7-.494-1.4-.7-2.111s-.391-1.421-.569-2.136-.337-1.433-.477-2.158-.273-1.451-.36-2.194" transform="translate(-521.257 -469.468)" fill="#a65b3c"/>
        <path id="Trazado_1739" data-name="Trazado 1739" d="M787.193,647.47a14.015,14.015,0,0,1,1.309,1.473c.407.512.783,1.046,1.149,1.586s.7,1.1,1.018,1.673a14.768,14.768,0,0,1,.857,1.774,17.548,17.548,0,0,1-1.252-1.518c-.393-.521-.762-1.056-1.126-1.6s-.707-1.091-1.034-1.656a19.063,19.063,0,0,1-.921-1.738" transform="translate(-549.527 -451.989)" fill="#a65b3c"/>
        <path id="Trazado_1740" data-name="Trazado 1740" d="M814.307,613.037a11.245,11.245,0,0,1,1.574,1.193c.494.432.955.9,1.405,1.374s.869.98,1.262,1.505a13.413,13.413,0,0,1,1.091,1.644c-.514-.42-.984-.874-1.445-1.334s-.907-.931-1.351-1.405c-.877-.958-1.736-1.924-2.536-2.977" transform="translate(-568.455 -427.952)" fill="#a65b3c"/>
        <path id="Trazado_1741" data-name="Trazado 1741" d="M830.286,579.691a7.628,7.628,0,0,1,1.625.766,13.607,13.607,0,0,1,1.467,1.023,14.66,14.66,0,0,1,1.325,1.2,10.374,10.374,0,0,1,1.153,1.371c-.516-.314-.992-.663-1.464-1.017s-.933-.713-1.391-1.079-.909-.737-1.361-1.111-.9-.753-1.354-1.149" transform="translate(-579.61 -404.674)" fill="#a65b3c"/>
        <path id="Trazado_1742" data-name="Trazado 1742" d="M631.689,675.027l-.55,2.346c-.173.78-.35,1.556-.511,2.337-.081.39-.168.779-.24,1.172l-.122.586c-.034.2-.074.392-.116.588-.161.784-.307,1.571-.5,2.362a15.3,15.3,0,0,1,.038-2.429,20.9,20.9,0,0,1,.354-2.4,20.137,20.137,0,0,1,.65-2.342,11.717,11.717,0,0,1,1-2.216" transform="translate(-439.524 -471.226)" fill="#a65b3c"/>
        <path id="Trazado_1743" data-name="Trazado 1743" d="M586.463,652.314l-.88,2.244c-.283.747-.569,1.49-.84,2.239-.136.374-.278.747-.406,1.125l-.2.562c-.063.19-.13.378-.2.565-.271.753-.529,1.511-.837,2.265a15.354,15.354,0,0,1,.385-2.4,20.934,20.934,0,0,1,.695-2.327,20.184,20.184,0,0,1,.979-2.225,11.72,11.72,0,0,1,1.308-2.05" transform="translate(-407.051 -455.371)" fill="#a65b3c"/>
        <path id="Trazado_1744" data-name="Trazado 1744" d="M549.963,619.59c-.8.878-1.562,1.733-2.309,2.616-.366.446-.745.882-1.11,1.334s-.735.9-1.144,1.342a8.273,8.273,0,0,1,.759-1.613,10.884,10.884,0,0,1,1.034-1.453,10.552,10.552,0,0,1,1.267-1.258,6.339,6.339,0,0,1,1.5-.968" transform="translate(-380.735 -432.527)" fill="#a65b3c"/>
        <path id="Trazado_1745" data-name="Trazado 1745" d="M529.16,579.81c-.976.682-1.9,1.35-2.824,2.049-.454.355-.92.7-1.374,1.059s-.914.721-1.41,1.06a8.279,8.279,0,0,1,1.093-1.409,10.924,10.924,0,0,1,1.326-1.192,10.537,10.537,0,0,1,1.511-.951,6.346,6.346,0,0,1,1.678-.617" transform="translate(-365.483 -404.757)" fill="#a65b3c"/>
        <path id="Trazado_1746" data-name="Trazado 1746" d="M53.614,740.527s23.937-14.435,4.957-44.789c-4.632-7.407-10.416-8.239-13.164-18.749s-8.78-19.907-12.9-19.1-7.608,13,3.929,30.094l3.638,8.084s-2.984,3.074-11.506,2.965-9.773,8-9.773,8l-6.828,4.053a5.865,5.865,0,0,0-2.849,4.529l-.372,4.226s-6.426,5.258-5.509,13.633A5.843,5.843,0,0,0,0,738.7a12.388,12.388,0,0,0,.307,2.7,13.954,13.954,0,0,0,6.91,9.1,138.692,138.692,0,0,1,13.424,8.383,5.283,5.283,0,0,0,3.743.964,100.722,100.722,0,0,1,10.6-.816,5.322,5.322,0,0,0,4.355-2.247,30.524,30.524,0,0,1,2.694-3.456s11.483-5.534,11.578-12.795" transform="translate(0 -459.23)" fill="#ffc89f"/>
        <path id="Trazado_1747" data-name="Trazado 1747" d="M1009.741,335.3s-27.309-5.962-19.109-40.81c2-8.5,7.21-11.154,6.43-21.989s1.905-21.674,6.069-22.235,11.387,9.858,5.966,29.757l-.843,8.825s3.815,1.95,11.848-.9,11.827,4.424,11.827,4.424l7.768,1.639a5.865,5.865,0,0,1,4.155,3.371l1.712,3.881s7.777,2.91,9.6,11.134a5.844,5.844,0,0,1,4.745,3.907,12.4,12.4,0,0,1,.579,2.658,13.95,13.95,0,0,1-3.614,10.837,138.788,138.788,0,0,0-10.012,12.258,5.281,5.281,0,0,1-3.234,2.117,100.852,100.852,0,0,0-10.3,2.64,5.322,5.322,0,0,1-4.846-.726,30.523,30.523,0,0,0-3.663-2.405s-12.653-1.544-15.08-8.388" transform="translate(-690.472 -174.693)" fill="#ffc89f"/>
        <path id="Trazado_1748" data-name="Trazado 1748" d="M149.3,838.047l-2.516-2.984c-.424-.491-.844-.984-1.276-1.466l-.644-.727-.66-.711c-.214-.243-.442-.471-.664-.706s-.446-.468-.677-.693l-.684-.685c-.238-.218-.472-.44-.7-.663a28.555,28.555,0,0,0-3.021-2.44,15.114,15.114,0,0,1,3.328,2.083,27.613,27.613,0,0,1,2.865,2.694,36.256,36.256,0,0,1,2.5,3.021,29.461,29.461,0,0,1,2.149,3.277" transform="translate(-96.649 -577.297)" fill="#ff9b6c"/>
        <path id="Trazado_1749" data-name="Trazado 1749" d="M169.89,874.155a16.742,16.742,0,0,1,1.673-2.028,15.929,15.929,0,0,1,1.957-1.76c.354-.258.732-.5,1.09-.734a2.741,2.741,0,0,0,.864-.9,2.653,2.653,0,0,0,.366-1.2,4.879,4.879,0,0,0-.018-.643l-.032-.656a15.482,15.482,0,0,1,.067-2.64c.025-.22.056-.441.092-.661.018-.107.043-.228.056-.323a1.6,1.6,0,0,0,.023-.276,1.872,1.872,0,0,0-1.151-1.74,1.8,1.8,0,0,0-.548-.129,5.766,5.766,0,0,0-.626-.018,5.3,5.3,0,0,0-2.441.63l-.034-.05a4.571,4.571,0,0,1,2.439-1.054,5.746,5.746,0,0,1,.679-.046,2.369,2.369,0,0,1,.729.116,2.324,2.324,0,0,1,1.177.888,2.237,2.237,0,0,1,.318.679,2.074,2.074,0,0,1,.086.745,2.228,2.228,0,0,1-.049.372c-.023.12-.047.211-.07.318-.043.208-.083.417-.117.628-.13.844-.226,1.7-.3,2.568-.036.437-.04.855-.076,1.312a3.569,3.569,0,0,1-.4,1.277,3.772,3.772,0,0,1-.83,1.067c-.338.29-.659.566-.98.859l-1.948,1.707c-.649.573-1.284,1.163-1.953,1.732Z" transform="translate(-118.598 -600.304)" fill="#ff9b6c"/>
        <path id="Trazado_1750" data-name="Trazado 1750" d="M93.8,857.95c1.039.667,2.036,1.39,3.007,2.146s1.927,1.532,2.836,2.361,1.774,1.709,2.674,2.546c.454.414.91.826,1.372,1.231l1.4,1.2q1.413,1.189,2.757,2.456l1.339,1.271c.441.429.872.87,1.3,1.307a7.049,7.049,0,0,0,.635.608,4.115,4.115,0,0,0,2.373.905,4.372,4.372,0,0,0,3.25-1.211l.045.04a4.273,4.273,0,0,1-3.3,1.646,4.394,4.394,0,0,1-1.9-.389,4.128,4.128,0,0,1-.846-.5,7.64,7.64,0,0,1-.714-.645l-5.166-5.242c-.861-.877-1.744-1.731-2.676-2.531-.464-.4-.942-.788-1.426-1.167l-1.445-1.142c-.953-.774-1.881-1.575-2.806-2.382s-1.842-1.623-2.747-2.46Z" transform="translate(-65.452 -598.922)" fill="#ff9b6c"/>
        <path id="Trazado_1751" data-name="Trazado 1751" d="M139.8,915.973c.88-.544,1.78-1.047,2.692-1.524s1.831-.941,2.773-1.356c.467-.2.967-.394,1.41-.6a3.346,3.346,0,0,0,1.151-.932,4.472,4.472,0,0,0,.4-.643l.374-.677c.252-.45.489-.909.748-1.357a17.768,17.768,0,0,1,1.714-2.606,3.941,3.941,0,0,0,1.088-2.626c.072-.516.152-1.033.271-1.543.055-.25.133-.524.191-.75a1,1,0,0,0-.031-.606,1.056,1.056,0,0,0-1-.692,1.779,1.779,0,0,0-.684.2,6.117,6.117,0,0,0-.672.364l-.037-.048a4.329,4.329,0,0,1,.614-.487,3.184,3.184,0,0,1,.344-.2,1.252,1.252,0,0,1,.409-.127,1.425,1.425,0,0,1,1.466.806,1.5,1.5,0,0,1,.122.9c-.053.276-.1.5-.145.757-.082.5-.156,1-.206,1.505l-.042.379c-.017.138-.035.276-.065.412a3.733,3.733,0,0,1-.252.795,4.026,4.026,0,0,1-.416.724,3.92,3.92,0,0,1-.264.324l-.255.283c-.658.763-1.271,1.583-1.869,2.416-.29.422-.585.844-.85,1.284-.137.218-.263.441-.391.664a5.929,5.929,0,0,1-.406.67,4.376,4.376,0,0,1-1.139,1.106c-.23.148-.459.263-.683.39l-.678.371c-.911.479-1.847.908-2.788,1.325s-1.9.808-2.869,1.157Z" transform="translate(-97.589 -628.097)" fill="#ff9b6c"/>
        <path id="Trazado_1752" data-name="Trazado 1752" d="M68.6,901.21c.947.691,1.855,1.429,2.739,2.193s1.753,1.545,2.58,2.37,1.606,1.7,2.428,2.529,1.682,1.619,2.545,2.407,1.717,1.587,2.541,2.416l1.232,1.248c.406.416.805.858,1.2,1.269a5.542,5.542,0,0,0,2.845,1.614A5.84,5.84,0,0,0,90.066,917l.026.055a5.392,5.392,0,0,1-3.467.672,5.611,5.611,0,0,1-3.225-1.635c-.815-.852-1.579-1.716-2.377-2.569s-1.581-1.712-2.366-2.576-1.593-1.706-2.448-2.5c-.424-.4-.867-.781-1.31-1.161l-1.327-1.142c-.873-.773-1.714-1.58-2.552-2.391s-1.66-1.639-2.463-2.492Z" transform="translate(-47.859 -629.121)" fill="#ff9b6c"/>
        <path id="Trazado_1753" data-name="Trazado 1753" d="M34.475,929.388c1.373.808,2.7,1.688,4,2.6s2.578,1.866,3.812,2.871c.609.513,1.216,1.027,1.817,1.549l1.8,1.566,3.652,3.07c2.532,1.837,4.387,5.093,7.613,4.834a5.159,5.159,0,0,0,1.111-.15c.356-.091.728-.226,1.1-.358.744-.266,1.485-.545,2.227-.826l4.455-1.693.024.055c-1.413.734-2.849,1.418-4.3,2.074-.727.325-1.459.639-2.2.934a10.575,10.575,0,0,1-1.152.41,5.791,5.791,0,0,1-1.242.2,5.709,5.709,0,0,1-2.459-.446,6.087,6.087,0,0,1-2.036-1.425c-.562-.557-1.1-1.134-1.671-1.689s-1.117-1.125-1.7-1.668c-1.141-1.1-2.317-2.172-3.552-3.169s-2.527-1.925-3.8-2.87-2.524-1.921-3.781-2.889-2.51-1.944-3.758-2.931Z" transform="translate(-24.043 -648.792)" fill="#ff9b6c"/>
        <path id="Trazado_1754" data-name="Trazado 1754" d="M132.721,784.456a17.829,17.829,0,0,1,1.507,2.328,25.588,25.588,0,0,1,1.207,2.5,21.829,21.829,0,0,1,.886,2.635,12.625,12.625,0,0,1,.408,2.75c-.271-.888-.553-1.752-.858-2.611-.32-.853-.645-1.7-.994-2.544-.693-1.687-1.445-3.348-2.157-5.056" transform="translate(-92.65 -547.617)" fill="#ff9b6c"/>
        <path id="Trazado_1755" data-name="Trazado 1755" d="M174.375,863.588a1,1,0,0,1,.646.067,1.567,1.567,0,0,1,.517.366,1.658,1.658,0,0,1,.332.527,1.317,1.317,0,0,1,.088.631,2.9,2.9,0,0,1-.483-.368c-.137-.125-.26-.25-.378-.377s-.231-.255-.348-.391Z" transform="translate(-121.728 -602.837)" fill="#ff9b6c"/>
        <path id="Trazado_1756" data-name="Trazado 1756" d="M1039.246,437.708a29.51,29.51,0,0,1,.856-3.824,36.318,36.318,0,0,1,1.28-3.71,27.622,27.622,0,0,1,1.732-3.531,15.125,15.125,0,0,1,2.381-3.122,28.54,28.54,0,0,0-1.967,3.348c-.139.292-.28.582-.426.869l-.4.883c-.137.292-.264.589-.39.887s-.258.592-.372.895l-.367.9-.347.907c-.235.6-.455,1.213-.678,1.822Z" transform="translate(-725.481 -295.655)" fill="#ff9b6c"/>
        <path id="Trazado_1757" data-name="Trazado 1757" d="M1034.012,481.668c-.826-.3-1.629-.624-2.438-.933l-2.424-.911c-.4-.161-.8-.307-1.22-.459a3.77,3.77,0,0,1-1.152-.706,3.564,3.564,0,0,1-.823-1.054c-.2-.415-.346-.8-.534-1.2-.373-.783-.766-1.553-1.185-2.3-.106-.185-.218-.367-.331-.546-.059-.092-.114-.168-.178-.273a2.212,2.212,0,0,1-.176-.331,2.079,2.079,0,0,1-.182-.728,2.238,2.238,0,0,1,.059-.747,2.32,2.32,0,0,1,.789-1.245,2.374,2.374,0,0,1,.641-.366,5.856,5.856,0,0,1,.652-.2,4.573,4.573,0,0,1,2.654.127l-.015.059a5.3,5.3,0,0,0-2.506.271,5.82,5.82,0,0,0-.579.238,1.861,1.861,0,0,0-.932,2.348,1.614,1.614,0,0,0,.119.251c.045.084.111.189.166.283.11.194.218.389.319.586a15.473,15.473,0,0,1,.993,2.447l.2.626a4.94,4.94,0,0,0,.209.608,2.655,2.655,0,0,0,.765.994,2.742,2.742,0,0,0,1.125.535c.417.092.857.186,1.279.3a15.971,15.971,0,0,1,2.452.958,16.735,16.735,0,0,1,2.28,1.309Z" transform="translate(-714.391 -327.777)" fill="#ff9b6c"/>
        <path id="Trazado_1758" data-name="Trazado 1758" d="M1074.974,436.843q-.828,1.653-1.7,3.27c-.582,1.081-1.168,2.158-1.787,3.218l-.95,1.578c-.319.525-.631,1.055-.923,1.595-.59,1.077-1.116,2.188-1.613,3.311l-2.988,6.727a7.7,7.7,0,0,1-.441.855,4.114,4.114,0,0,1-.614.77,4.392,4.392,0,0,1-1.643,1.034,4.272,4.272,0,0,1-3.67-.377l.028-.053a4.371,4.371,0,0,0,3.468-.012,4.109,4.109,0,0,0,1.9-1.683,7.067,7.067,0,0,0,.38-.793c.251-.562.5-1.125.761-1.683l.805-1.661q.813-1.657,1.715-3.27l.885-1.619c.289-.542.571-1.089.85-1.636.548-1.1,1.051-2.225,1.606-3.324s1.18-2.159,1.822-3.209,1.321-2.078,2.058-3.068Z" transform="translate(-739.021 -304.932)" fill="#ff9b6c"/>
        <path id="Trazado_1759" data-name="Trazado 1759" d="M1062.085,516.878c-1.035.016-2.065-.014-3.093-.072s-2.055-.131-3.076-.258l-.765-.109c-.254-.04-.509-.066-.776-.124a4.381,4.381,0,0,1-1.456-.634,5.958,5.958,0,0,1-.616-.484c-.2-.163-.4-.328-.6-.483-.4-.318-.827-.609-1.248-.9-.852-.569-1.716-1.12-2.6-1.6l-.338-.175a3.877,3.877,0,0,1-.361-.21,4.052,4.052,0,0,1-.644-.531,3.754,3.754,0,0,1-.516-.655c-.075-.117-.141-.24-.2-.362l-.173-.34c-.225-.456-.471-.9-.723-1.337-.128-.225-.255-.417-.4-.657a1.5,1.5,0,0,1-.2-.889,1.426,1.426,0,0,1,1.088-1.271,1.25,1.25,0,0,1,.427-.025,3.265,3.265,0,0,1,.393.068,4.3,4.3,0,0,1,.746.239l-.018.058a6.037,6.037,0,0,0-.757-.1,1.78,1.78,0,0,0-.71.058,1.058,1.058,0,0,0-.7,1,1.006,1.006,0,0,0,.185.578c.133.191.3.42.443.634.291.436.549.891.8,1.349a3.944,3.944,0,0,0,1.943,2.075,17.707,17.707,0,0,1,2.522,1.835c.4.328.784.674,1.178,1.007l.588.5a4.487,4.487,0,0,0,.6.459,3.344,3.344,0,0,0,1.405.467c.487.036,1.022.038,1.531.064,1.028.056,2.051.167,3.073.292s2.041.278,3.057.478Z" transform="translate(-728.998 -353.056)" fill="#ff9b6c"/>
        <path id="Trazado_1760" data-name="Trazado 1760" d="M1117.834,468.449c-.45,1.081-.929,2.145-1.427,3.2s-1,2.106-1.546,3.137l-.839,1.536c-.28.512-.56,1.024-.817,1.548-.52,1.044-.977,2.119-1.41,3.2s-.861,2.168-1.307,3.245-.857,2.158-1.32,3.242a5.61,5.61,0,0,1-2.442,2.667,5.4,5.4,0,0,1-3.481.593l.005-.06a5.84,5.84,0,0,0,3.233-.941,5.543,5.543,0,0,0,2.094-2.512c.225-.524.443-1.078.676-1.611l.714-1.6q.719-1.6,1.527-3.157c.529-1.042,1.055-2.085,1.534-3.149s.907-2.154,1.381-3.222,1.021-2.1,1.579-3.127,1.148-2.036,1.791-3.017Z" transform="translate(-770.159 -326.998)" fill="#ff9b6c"/>
        <path id="Trazado_1761" data-name="Trazado 1761" d="M1133.641,481.077q-1.231,2.045-2.484,4.067c-.835,1.349-1.662,2.7-2.521,4.036s-1.748,2.652-2.546,4.025-1.529,2.783-2.208,4.218c-.351.712-.658,1.444-1,2.158s-.638,1.45-.969,2.169a6.082,6.082,0,0,1-1.4,2.051,5.7,5.7,0,0,1-2.144,1.283,5.772,5.772,0,0,1-1.231.255,10.56,10.56,0,0,1-1.223.022c-.8-.014-1.595-.05-2.39-.1-1.589-.1-3.174-.237-4.755-.426l0-.06,4.766.015c.793,0,1.585,0,2.375-.012.4-.009.792-.013,1.157-.053a5.18,5.18,0,0,0,1.093-.251c3.11-.9,3.7-4.6,5.422-7.207l2.336-4.16,1.133-2.1c.377-.7.765-1.4,1.154-2.09.8-1.375,1.663-2.714,2.556-4.03s1.828-2.606,2.828-3.846Z" transform="translate(-774.013 -335.808)" fill="#ff9b6c"/>
        <path id="Trazado_1762" data-name="Trazado 1762" d="M1050.645,378.23c-.064,1.85-.182,3.668-.237,5.491-.03.911-.035,1.82-.034,2.732.018.911.058,1.819.117,2.745a12.626,12.626,0,0,1-.587-2.717,21.848,21.848,0,0,1-.1-2.778,25.643,25.643,0,0,1,.25-2.763,17.927,17.927,0,0,1,.591-2.709" transform="translate(-732.848 -264.037)" fill="#ff9b6c"/>
        <path id="Trazado_1763" data-name="Trazado 1763" d="M1036.792,470.509l-.19.558c-.061.168-.121.329-.188.488s-.136.321-.22.486a2.905,2.905,0,0,1-.322.514,1.324,1.324,0,0,1-.14-.621,1.655,1.655,0,0,1,.126-.61,1.569,1.569,0,0,1,.355-.524.992.992,0,0,1,.581-.291" transform="translate(-723.027 -328.456)" fill="#ff9b6c"/>
      </g>
    </g>
  </g>
</svg>
