<svg id="TABLET" xmlns="http://www.w3.org/2000/svg" xmlns:xlink="http://www.w3.org/1999/xlink" width="197.067" height="282.619" viewBox="0 0 197.067 282.619">
  <defs>
    <clipPath id="clip-path">
      <rect id="Rectángulo_103" data-name="Rectángulo 103" width="197.067" height="282.619" fill="none"/>
    </clipPath>
    <clipPath id="clip-path-4">
      <rect id="Rectángulo_101" data-name="Rectángulo 101" width="32.622" height="18.93" fill="none"/>
    </clipPath>
  </defs>
  <g id="Grupo_260" data-name="Grupo 260" clip-path="url(#clip-path)">
    <g id="Grupo_254" data-name="Grupo 254">
      <g id="Grupo_253" data-name="Grupo 253" clip-path="url(#clip-path)">
        <path id="Trazado_1362" data-name="Trazado 1362" d="M188.2,282.555H9.067A8.778,8.778,0,0,1,.29,273.777V9.068A8.778,8.778,0,0,1,9.067.29H188.2a8.778,8.778,0,0,1,8.778,8.778V273.777a8.778,8.778,0,0,1-8.778,8.779" transform="translate(-0.092 -0.092)" fill="#263238"/>
        <path id="Trazado_1363" data-name="Trazado 1363" d="M188.108,282.464s.206-.017.611-.041a5.174,5.174,0,0,0,.754-.091,7.171,7.171,0,0,0,1.031-.229,8.782,8.782,0,0,0,5.353-4.389,9.043,9.043,0,0,0,.817-2.335,13.874,13.874,0,0,0,.164-2.751q0-2.908-.01-6.353c0-4.592-.01-9.89-.018-15.853-.015-23.859-.037-58.377-.063-101.029-.008-21.328-.015-44.688-.024-69.766q0-18.809-.01-38.866,0-10.019,0-20.325,0-5.152,0-10.373a13.624,13.624,0,0,0-.138-2.575,8.32,8.32,0,0,0-.811-2.425A8.717,8.717,0,0,0,192.21,1.42a9.4,9.4,0,0,0-2.43-.874,13.185,13.185,0,0,0-2.61-.165h-16.1l-21.9,0-45.173,0L9,.4A8.721,8.721,0,0,0,3.5,2.369,8.675,8.675,0,0,0,.549,7.384,15.344,15.344,0,0,0,.4,10.369v3.026q0,3.024,0,6.038,0,12.054,0,23.944,0,23.776,0,46.814c0,30.692-.008,60.3-.012,88.5s-.012,55-.018,80.08q0,4.7,0,9.324,0,2.31,0,4.6a14.22,14.22,0,0,0,.1,2.256,8.554,8.554,0,0,0,7.314,7.266,14.769,14.769,0,0,0,2.194.094h6.6l33.477.013,101.022.062,27.467.038,7.142.019c1.609.007,2.434.021,2.434.021s-.825.014-2.434.02l-7.142.02-27.467.037L50.043,282.6l-33.477.013h-6.6a15.159,15.159,0,0,1-2.238-.1,8.868,8.868,0,0,1-7.585-7.528,14.469,14.469,0,0,1-.107-2.3q0-2.29,0-4.6,0-4.622,0-9.324c-.006-25.081-.011-51.879-.018-80.08S.008,120.882,0,90.19Q0,67.17,0,43.376V10.369A15.745,15.745,0,0,1,.16,7.311,9.074,9.074,0,0,1,3.251,2.064,9.118,9.118,0,0,1,9,0l94.994,0,45.173,0,21.9,0h16.1a13.528,13.528,0,0,1,2.681.172,9.741,9.741,0,0,1,2.534.913,9.089,9.089,0,0,1,3.695,3.8,8.7,8.7,0,0,1,.845,2.528,14.065,14.065,0,0,1,.143,2.638q0,5.22,0,10.373,0,10.3,0,20.325-.005,20.037-.01,38.866c-.009,25.078-.016,48.438-.024,69.766-.027,42.652-.047,77.171-.063,101.029-.007,5.963-.013,11.261-.018,15.853q-.005,3.443-.009,6.353a13.94,13.94,0,0,1-.174,2.768,9.176,9.176,0,0,1-.833,2.354,8.9,8.9,0,0,1-2.714,3.1,8.8,8.8,0,0,1-2.7,1.288,7.126,7.126,0,0,1-1.037.22,5.026,5.026,0,0,1-.757.081c-.407.017-.613.021-.613.021" fill="#263238"/>
        <rect id="Rectángulo_92" data-name="Rectángulo 92" width="184.284" height="235.725" transform="translate(5.671 20.336)" fill="#fff"/>
        <path id="Trazado_1364" data-name="Trazado 1364" d="M192.481,265.355c0-1.56-.073-95.793-.178-235.725l.178.178-184.264.02H8.2l.2-.2C8.382,117.04,8.37,198.2,8.36,265.355l-.164-.163,184.284.163L8.2,265.519H8.033v-.164C8.023,198.2,8.011,117.04,8,29.63v-.2h.218l184.264.02h.178v.178c-.105,139.933-.176,234.167-.177,235.725" transform="translate(-2.526 -9.294)" fill="#263238"/>
        <path id="Trazado_1365" data-name="Trazado 1365" d="M148.087,388.615a7.547,7.547,0,1,1-7.547-7.547,7.547,7.547,0,0,1,7.547,7.547" transform="translate(-41.997 -120.336)" fill="#455a64"/>
        <path id="Trazado_1366" data-name="Trazado 1366" d="M197.056,253.333c0,.1-12.032.178-26.871.178s-26.874-.079-26.874-.178,12.03-.178,26.874-.178,26.871.079,26.871.178" transform="translate(-45.256 -79.943)"/>
        <path id="Trazado_1367" data-name="Trazado 1367" d="M184.292,262.545c0,.1-9.175.178-20.49.178s-20.491-.079-20.491-.178,9.173-.178,20.491-.178,20.49.079,20.49.178" transform="translate(-45.256 -82.852)"/>
        <path id="Trazado_1368" data-name="Trazado 1368" d="M195.57,274.731c0,.1-11.7.178-26.128.178s-26.13-.079-26.13-.178,11.7-.178,26.13-.178,26.128.079,26.128.178" transform="translate(-45.256 -86.7)" fill="#e0e0e0"/>
        <path id="Trazado_1369" data-name="Trazado 1369" d="M256.654,253.6h0a.954.954,0,1,1,.954-.954.954.954,0,0,1-.954.954" transform="translate(-80.746 -79.479)" fill="#e0e0e0"/>
        <path id="Trazado_1370" data-name="Trazado 1370" d="M256.654,258.413h0a.954.954,0,1,1,.954-.954.954.954,0,0,1-.954.954" transform="translate(-80.746 -81.001)" fill="#e0e0e0"/>
        <path id="Trazado_1371" data-name="Trazado 1371" d="M256.654,263.231h0a.954.954,0,1,1,.954-.954.954.954,0,0,1-.954.954" transform="translate(-80.746 -82.522)" fill="#e0e0e0"/>
        <path id="Trazado_1372" data-name="Trazado 1372" d="M198.132,315.04c0,.1-12.032.178-26.871.178s-26.874-.079-26.874-.178,12.03-.177,26.874-.177,26.871.079,26.871.177" transform="translate(-45.595 -99.429)"/>
        <path id="Trazado_1373" data-name="Trazado 1373" d="M185.36,324.716c0,.1-9.175.178-20.489.178s-20.491-.079-20.491-.178,9.173-.178,20.491-.178,20.489.079,20.489.178" transform="translate(-45.593 -102.484)"/>
        <path id="Trazado_1374" data-name="Trazado 1374" d="M195.57,336.032c0,.1-11.7.178-26.128.178s-26.13-.079-26.13-.178,11.7-.178,26.13-.178,26.128.079,26.128.178" transform="translate(-45.256 -106.058)" fill="#e0e0e0"/>
        <path id="Trazado_1375" data-name="Trazado 1375" d="M256.654,310.818h0a.954.954,0,1,1,.954-.954.954.954,0,0,1-.954.954" transform="translate(-80.746 -97.549)" fill="#e0e0e0"/>
        <path id="Trazado_1376" data-name="Trazado 1376" d="M256.654,315.636h0a.954.954,0,1,1,.954-.954.954.954,0,0,1-.954.954" transform="translate(-80.746 -99.071)" fill="#e0e0e0"/>
        <path id="Trazado_1377" data-name="Trazado 1377" d="M256.654,320.454h0a.954.954,0,1,1,.954-.954.954.954,0,0,1-.954.954" transform="translate(-80.746 -100.592)" fill="#e0e0e0"/>
        <rect id="Rectángulo_93" data-name="Rectángulo 93" width="183.856" height="36.427" transform="translate(5.671 20.138)" fill="#e0e0e0"/>
        <path id="Trazado_1378" data-name="Trazado 1378" d="M141.834,50.538a2.231,2.231,0,0,1-.22-.4l-.567-1.18L139.02,44.59c-.424-.928-.887-1.939-1.383-3.022l-.768-1.685-.4-.881-.2-.45a1.1,1.1,0,0,0-.218-.374.578.578,0,0,0-.727-.044,1.6,1.6,0,0,0-.293.359l-.306.426-1.254,1.749-2.643,3.674-2.649,3.671-.637.881a2.4,2.4,0,0,0-.268.406.574.574,0,0,0,.007.4.566.566,0,0,0,.262.3,1.181,1.181,0,0,0,.443.088l1.014.105,7.1.756,4.783.541a.742.742,0,0,0,.974-.507,1.069,1.069,0,0,0-.015-.439.571.571,0,0,1,.085.453.77.77,0,0,1-.3.491.959.959,0,0,1-.762.14l-4.795-.428-7.107-.679-1.015-.1-.262-.027a.908.908,0,0,1-.3-.094.9.9,0,0,1-.421-.47.909.909,0,0,1-.013-.639,2.455,2.455,0,0,1,.31-.492l.634-.883,2.644-3.676,2.649-3.669,1.262-1.744.307-.425.153-.211a.948.948,0,0,1,.217-.221.908.908,0,0,1,1.15.076,1.386,1.386,0,0,1,.288.48l.2.452.394.885.752,1.693,1.344,3.04,1.924,4.412.506,1.207a2.25,2.25,0,0,1,.155.431" transform="translate(-40.071 -11.903)" fill="#fff"/>
        <path id="Trazado_1379" data-name="Trazado 1379" d="M269.446,50.293c-.009.008-.092-.063-.244-.207l-.649-.641-2.339-2.4-1.6-1.671-.89-.934-.465-.489a2.928,2.928,0,0,0-.45-.434.351.351,0,0,0-.426.119,1.072,1.072,0,0,0-.1.289l-.1.35-.428,1.437-.905,3.019c-.312,1.034-.617,2.042-.912,3.018q-.111.365-.22.725c-.093.268-.119.4,0,.54a.34.34,0,0,0,.208.118.777.777,0,0,0,.292-.041l.692-.159,4.849-1.1,3.276-.713a.5.5,0,0,0,.52-.533.931.931,0,0,0-.1-.287.382.382,0,0,1,.17.277.548.548,0,0,1-.081.4.691.691,0,0,1-.478.276l-3.251.824-4.831,1.177-.691.166-.18.042a.67.67,0,0,1-.24.008.681.681,0,0,1-.416-.231.691.691,0,0,1-.166-.453,1.768,1.768,0,0,1,.094-.408q.108-.36.216-.726c.293-.976.6-1.986.906-3.02l.912-3.017.436-1.434.107-.35.053-.173a.717.717,0,0,1,.1-.209.681.681,0,0,1,.836-.227,1.007,1.007,0,0,1,.315.262l.234.252.46.494.877.946,1.571,1.7,2.256,2.481.6.687a1.1,1.1,0,0,1,.192.256" transform="translate(-81.878 -13.628)" fill="#fff"/>
        <path id="Trazado_1380" data-name="Trazado 1380" d="M101.272,63.559a.821.821,0,0,1-.182.083l-.545.209-2.1.77L90.7,67.38l-.2.073.028-.216c.416-3.173.913-6.969,1.46-11.149l.222.181L81.587,59.974c.209.172-.288-.233-.236-.192v-.009l0-.012,0-.023.007-.046.012-.092.025-.183.049-.366.1-.728q.1-.727.194-1.445.194-1.436.383-2.834c.252-1.862.5-3.669.733-5.405l.221.181L72.447,52.484l-.205.07.029-.213c.483-3.412.875-6.187,1.152-8.142.142-.939.253-1.68.333-2.215.039-.234.072-.424.1-.575a.871.871,0,0,1,.045-.194.7.7,0,0,1-.006.2c-.016.153-.035.343-.06.58-.063.538-.151,1.282-.262,2.225-.248,1.958-.6,4.739-1.035,8.158l-.176-.143L82.967,48.5l.259-.091-.036.272-.718,5.407q-.187,1.4-.378,2.835-.1.718-.193,1.445l-.1.729-.049.365-.025.183-.012.092-.007.046,0,.023,0,.011v.009c.051.043-.445-.362-.235-.191l10.622-3.687.259-.09-.038.271c-.573,4.176-1.094,7.968-1.531,11.14l-.174-.142,7.785-2.648,2.127-.7.556-.174a.766.766,0,0,1,.195-.047" transform="translate(-22.813 -13.015)" fill="#fff"/>
        <path id="Trazado_1381" data-name="Trazado 1381" d="M44.246,53.268c-.038,0-.023-.4-.207-1.069a4.44,4.44,0,0,0-1.627-2.367,4.33,4.33,0,0,0-4.076-.588,4.247,4.247,0,0,0-1.983,1.5,4.266,4.266,0,0,0,0,5.053,4.241,4.241,0,0,0,1.983,1.5,4.332,4.332,0,0,0,4.076-.588,4.436,4.436,0,0,0,1.627-2.367c.183-.673.168-1.071.207-1.069a.871.871,0,0,1,.021.286,3.42,3.42,0,0,1-.093.817A4.426,4.426,0,0,1,42.565,56.9a4.577,4.577,0,0,1-6.493-.9,4.585,4.585,0,0,1,0-5.467,4.577,4.577,0,0,1,6.493-.9,4.433,4.433,0,0,1,1.609,2.534,3.417,3.417,0,0,1,.093.817.871.871,0,0,1-.021.286" transform="translate(-11.106 -15.369)" fill="#fff"/>
        <path id="Trazado_1382" data-name="Trazado 1382" d="M182.753,60.125c-.038,0-.023-.4-.207-1.069a4.44,4.44,0,0,0-1.627-2.367,4.33,4.33,0,0,0-4.076-.588,4.247,4.247,0,0,0-1.983,1.5,4.266,4.266,0,0,0,0,5.053,4.241,4.241,0,0,0,1.983,1.5,4.33,4.33,0,0,0,4.076-.588,4.432,4.432,0,0,0,1.627-2.367c.183-.673.168-1.071.207-1.069a.872.872,0,0,1,.021.286,3.419,3.419,0,0,1-.093.817,4.425,4.425,0,0,1-1.609,2.534,4.576,4.576,0,0,1-6.492-.9,4.584,4.584,0,0,1,0-5.466,4.577,4.577,0,0,1,6.492-.9,4.433,4.433,0,0,1,1.609,2.534,3.424,3.424,0,0,1,.093.818.872.872,0,0,1-.021.286" transform="translate(-54.844 -17.534)" fill="#fff"/>
        <path id="Trazado_1383" data-name="Trazado 1383" d="M192.348,235.377c0,.1-41.082.178-91.748.178-50.683,0-91.757-.079-91.757-.178s41.073-.178,91.757-.178c50.665,0,91.748.079,91.748.178" transform="translate(-2.793 -74.272)" fill="#e0e0e0"/>
        <path id="Trazado_1384" data-name="Trazado 1384" d="M153.643,19.5h-40.17a2.8,2.8,0,1,1,0-5.6h40.17a2.8,2.8,0,0,1,0,5.6" transform="translate(-34.949 -4.39)" fill="#455a64"/>
        <path id="Trazado_1385" data-name="Trazado 1385" d="M259.875,345.148a8.4,8.4,0,1,1-8.4-8.4,8.405,8.405,0,0,1,8.4,8.4" transform="translate(-76.757 -106.339)" fill="#e0e0e0"/>
        <path id="Trazado_1386" data-name="Trazado 1386" d="M254.228,351a.342.342,0,0,1-.257-.116l-3-3.419a.342.342,0,1,1,.515-.452l2.726,3.1,2.339-3.085a.342.342,0,0,1,.545.413l-2.593,3.419a.342.342,0,0,1-.26.135Z" transform="translate(-79.225 -109.545)" fill="#fff"/>
        <path id="Trazado_1387" data-name="Trazado 1387" d="M153.375,292.205a35.49,35.49,0,0,1-5.032.179,35.482,35.482,0,0,1-5.032-.179,35.88,35.88,0,0,1,5.032-.177,35.888,35.888,0,0,1,5.032.177" transform="translate(-45.256 -92.218)" fill="#e0e0e0"/>
        <path id="Trazado_1388" data-name="Trazado 1388" d="M88.236,280.266h-46.4a5.383,5.383,0,0,1-5.383-5.383V247.817a5.383,5.383,0,0,1,5.383-5.383h46.4a5.383,5.383,0,0,1,5.383,5.383v27.066a5.383,5.383,0,0,1-5.383,5.383" transform="translate(-11.511 -76.557)" fill="#e0e0e0"/>
        <path id="Trazado_1389" data-name="Trazado 1389" d="M81.809,267.934a4.65,4.65,0,1,1-4.65-4.65,4.65,4.65,0,0,1,4.65,4.65" transform="translate(-22.897 -83.141)" fill="#ff725e"/>
        <path id="Trazado_1390" data-name="Trazado 1390" d="M77.668,270.721v-2.744a.174.174,0,0,1,.26-.152l2.452,1.382a.175.175,0,0,1,0,.305l-2.452,1.361a.174.174,0,0,1-.259-.153" transform="translate(-24.526 -84.568)" fill="#fff"/>
        <rect id="Rectángulo_94" data-name="Rectángulo 94" width="47.274" height="0.25" transform="translate(30.625 199.052)" fill="#263238"/>
        <rect id="Rectángulo_95" data-name="Rectángulo 95" width="14.774" height="0.667" transform="translate(30.589 198.792)" fill="#ff725e"/>
        <path id="Trazado_1391" data-name="Trazado 1391" d="M66.332,290.772a.719.719,0,1,1-.719-.719.719.719,0,0,1,.719.719" transform="translate(-20.493 -91.595)" fill="#ff725e"/>
        <path id="Trazado_1392" data-name="Trazado 1392" d="M68.093,249.579c0,.048-4.857.087-10.848.087s-10.848-.039-10.848-.087,4.856-.087,10.848-.087,10.848.039,10.848.087" transform="translate(-14.652 -78.786)" fill="#263238"/>
        <path id="Trazado_1393" data-name="Trazado 1393" d="M43.443,249.109a1.105,1.105,0,1,1-1.105-1.1,1.1,1.1,0,0,1,1.105,1.1" transform="translate(-13.021 -78.316)" fill="#ff725e"/>
        <path id="Trazado_1394" data-name="Trazado 1394" d="M90.692,346.317H43.187a5.382,5.382,0,0,1-5.382-5.383V313.868a5.382,5.382,0,0,1,5.382-5.383H90.692a5.383,5.383,0,0,1,5.383,5.383v27.066a5.383,5.383,0,0,1-5.383,5.383" transform="translate(-11.938 -97.415)" fill="#e0e0e0"/>
        <path id="Trazado_1395" data-name="Trazado 1395" d="M83.573,333.985a4.65,4.65,0,1,1-4.65-4.65,4.65,4.65,0,0,1,4.65,4.65" transform="translate(-23.454 -103.999)" fill="#ff725e"/>
        <path id="Trazado_1396" data-name="Trazado 1396" d="M79.431,336.772v-2.744a.175.175,0,0,1,.261-.152l2.452,1.382a.175.175,0,0,1,0,.305l-2.452,1.361a.174.174,0,0,1-.259-.153" transform="translate(-25.083 -105.426)" fill="#fff"/>
        <rect id="Rectángulo_96" data-name="Rectángulo 96" width="47.274" height="0.25" transform="translate(31.551 244.245)" fill="#263238"/>
        <rect id="Rectángulo_97" data-name="Rectángulo 97" width="14.774" height="0.667" transform="translate(31.516 243.985)" fill="#ff725e"/>
        <path id="Trazado_1397" data-name="Trazado 1397" d="M67.686,356.824a.719.719,0,1,1-.719-.719.719.719,0,0,1,.719.719" transform="translate(-20.92 -112.453)" fill="#ff725e"/>
        <path id="Trazado_1398" data-name="Trazado 1398" d="M69.447,315.63c0,.048-4.857.087-10.848.087s-10.848-.039-10.848-.087,4.856-.087,10.848-.087,10.848.039,10.848.087" transform="translate(-15.079 -99.644)" fill="#263238"/>
        <path id="Trazado_1399" data-name="Trazado 1399" d="M44.8,315.16a1.105,1.105,0,1,1-1.105-1.105A1.1,1.1,0,0,1,44.8,315.16" transform="translate(-13.448 -99.174)" fill="#ff725e"/>
        <path id="Trazado_1400" data-name="Trazado 1400" d="M223.891,106.59c0,.1-12.485.178-27.883.178s-27.885-.079-27.885-.178,12.482-.178,27.885-.178,27.883.079,27.883.178" transform="translate(-53.091 -33.603)" fill="#e0e0e0"/>
        <path id="Trazado_1401" data-name="Trazado 1401" d="M218.337,195.282H174.059a6.622,6.622,0,1,1,0-13.244h44.279a6.622,6.622,0,0,1,0,13.244" transform="translate(-52.874 -57.485)" fill="#ff725e"/>
        <path id="Trazado_1402" data-name="Trazado 1402" d="M192.54,192.426l.3-.662a2.237,2.237,0,0,0,1.254.4c.521,0,.733-.174.733-.407,0-.711-2.21-.223-2.21-1.634,0-.646.521-1.184,1.6-1.184a2.546,2.546,0,0,1,1.319.337l-.272.668a2.139,2.139,0,0,0-1.053-.3c-.521,0-.722.2-.722.434,0,.7,2.209.218,2.209,1.613,0,.635-.526,1.178-1.612,1.178a2.705,2.705,0,0,1-1.547-.44" transform="translate(-60.801 -59.663)" fill="#fff"/>
        <path id="Trazado_1403" data-name="Trazado 1403" d="M197.988,191.158V189.03h.879v2.1c0,.723.315,1.021.846,1.021s.848-.3.848-1.021v-2.1h.868v2.128a1.721,1.721,0,1,1-3.442,0" transform="translate(-62.522 -59.693)" fill="#fff"/>
        <path id="Trazado_1404" data-name="Trazado 1404" d="M207.769,191.794c0,.657-.521,1.037-1.52,1.037h-1.966v-3.8h1.857c.95,0,1.439.4,1.439.988a.914.914,0,0,1-.5.836.939.939,0,0,1,.7.939m-2.611-2.1v.9h.874c.429,0,.662-.153.662-.451s-.233-.445-.662-.445Zm1.726,2.009c0-.32-.244-.473-.7-.473h-1.026v.939h1.026c.456,0,.7-.141.7-.467" transform="translate(-64.51 -59.693)" fill="#fff"/>
        <path id="Trazado_1405" data-name="Trazado 1405" d="M209.913,192.426l.3-.662a2.239,2.239,0,0,0,1.254.4c.521,0,.733-.174.733-.407,0-.711-2.21-.223-2.21-1.634,0-.646.521-1.184,1.6-1.184a2.55,2.55,0,0,1,1.32.337l-.272.668a2.14,2.14,0,0,0-1.053-.3c-.521,0-.722.2-.722.434,0,.7,2.209.218,2.209,1.613,0,.635-.526,1.178-1.612,1.178a2.709,2.709,0,0,1-1.548-.44" transform="translate(-66.288 -59.663)" fill="#fff"/>
        <path id="Trazado_1406" data-name="Trazado 1406" d="M215.06,190.9a2.092,2.092,0,0,1,3.626-1.292l-.564.521a1.22,1.22,0,0,0-.956-.445,1.216,1.216,0,0,0,0,2.432,1.211,1.211,0,0,0,.956-.45l.564.521a2.089,2.089,0,0,1-3.626-1.286" transform="translate(-67.913 -59.663)" fill="#fff"/>
        <path id="Trazado_1407" data-name="Trazado 1407" d="M223.642,192.83l-.733-1.058H222.1v1.058h-.88v-3.8h1.645c1.016,0,1.65.526,1.65,1.379a1.236,1.236,0,0,1-.781,1.2l.853,1.221Zm-.825-3.084H222.1v1.325h.716c.538,0,.809-.25.809-.662s-.272-.662-.809-.662" transform="translate(-69.858 -59.693)" fill="#fff"/>
        <rect id="Rectángulo_98" data-name="Rectángulo 98" width="0.88" height="3.8" transform="translate(155.35 129.337)" fill="#fff"/>
        <path id="Trazado_1408" data-name="Trazado 1408" d="M233.137,191.794c0,.657-.521,1.037-1.52,1.037h-1.966v-3.8h1.857c.95,0,1.439.4,1.439.988a.913.913,0,0,1-.5.836.939.939,0,0,1,.7.939m-2.612-2.1v.9h.874c.428,0,.662-.153.662-.451s-.234-.445-.662-.445Zm1.726,2.009c0-.32-.244-.473-.7-.473h-1.026v.939h1.026c.456,0,.7-.141.7-.467" transform="translate(-72.521 -59.693)" fill="#fff"/>
        <path id="Trazado_1409" data-name="Trazado 1409" d="M238.66,192.124v.706h-2.943v-3.8h2.872v.706h-2v.825h1.765v.684h-1.765v.879Z" transform="translate(-74.436 -59.693)" fill="#fff"/>
        <path id="Trazado_1410" data-name="Trazado 1410" d="M178.5,193.189l5.282,0-.714-.82V190.4a1.925,1.925,0,0,0-3.849,0v1.871Z" transform="translate(-56.368 -59.518)" fill="#fff"/>
        <path id="Trazado_1411" data-name="Trazado 1411" d="M181.281,194.857a.816.816,0,1,0,1.595-.274" transform="translate(-57.246 -61.447)" fill="#fff"/>
        <rect id="Rectángulo_99" data-name="Rectángulo 99" width="0.518" height="1.101" transform="translate(124.549 128.159)" fill="#fff"/>
        <path id="Trazado_1412" data-name="Trazado 1412" d="M185.894,143.449v2.486h-8.631v-1.964l4.149-3.88c.887-.824,1.014-1.331,1.014-1.79,0-.712-.476-1.14-1.425-1.14a2.266,2.266,0,0,0-1.98,1.077l-2.328-1.3a5.082,5.082,0,0,1,4.593-2.312c2.549,0,4.308,1.314,4.308,3.373,0,1.077-.3,2.059-1.885,3.516l-2.091,1.932Z" transform="translate(-55.797 -42.513)" fill="#ff725e"/>
        <path id="Trazado_1413" data-name="Trazado 1413" d="M191.46,140.392c0-3.658,2.059-5.765,4.894-5.765,2.819,0,4.878,2.107,4.878,5.765s-2.059,5.765-4.878,5.765c-2.835,0-4.894-2.107-4.894-5.765m6.62,0c0-2.328-.729-3.2-1.726-3.2-1.014,0-1.742.871-1.742,3.2s.728,3.2,1.742,3.2c1,0,1.726-.871,1.726-3.2" transform="translate(-60.46 -42.513)" fill="#ff725e"/>
        <path id="Trazado_1414" data-name="Trazado 1414" d="M207.315,140.392c0-3.658,2.059-5.765,4.894-5.765,2.819,0,4.878,2.107,4.878,5.765s-2.059,5.765-4.878,5.765c-2.835,0-4.894-2.107-4.894-5.765m6.62,0c0-2.328-.729-3.2-1.726-3.2-1.014,0-1.742.871-1.742,3.2s.728,3.2,1.742,3.2c1,0,1.726-.871,1.726-3.2" transform="translate(-65.467 -42.513)" fill="#ff725e"/>
        <path id="Trazado_1415" data-name="Trazado 1415" d="M228.28,142.015l-1.172,1.251v2.771H224V134.951h3.1v4.609l4.293-4.609h3.452l-4.529,4.91,4.767,6.176h-3.642Z" transform="translate(-70.737 -42.616)" fill="#ff725e"/>
        <path id="Trazado_1416" data-name="Trazado 1416" d="M164.689,165.006l.559-1.242a4.193,4.193,0,0,0,2.352.743c.977,0,1.374-.326,1.374-.764,0-1.334-4.143-.417-4.143-3.064,0-1.211.977-2.219,3-2.219a4.779,4.779,0,0,1,2.473.631l-.509,1.252a4.027,4.027,0,0,0-1.975-.56c-.978,0-1.353.366-1.353.814,0,1.313,4.142.407,4.142,3.023,0,1.191-.987,2.209-3.024,2.209a5.077,5.077,0,0,1-2.9-.824" transform="translate(-52.006 -50.04)" fill="#ff725e"/>
        <path id="Trazado_1417" data-name="Trazado 1417" d="M180.339,161.05v5.476h-1.507v-.651a2.216,2.216,0,0,1-1.7.733,2.183,2.183,0,0,1-2.341-2.464V161.05h1.588v2.861c0,.915.407,1.323,1.109,1.323.733,0,1.262-.468,1.262-1.476V161.05Z" transform="translate(-55.197 -50.857)" fill="#ff725e"/>
        <path id="Trazado_1418" data-name="Trazado 1418" d="M191.022,162.829a2.66,2.66,0,0,1-2.729,2.82,2.127,2.127,0,0,1-1.719-.712v.631h-1.517v-7.553h1.587v2.657a2.127,2.127,0,0,1,1.649-.662,2.66,2.66,0,0,1,2.729,2.819m-1.609,0a1.4,1.4,0,1,0-1.394,1.518,1.382,1.382,0,0,0,1.394-1.518" transform="translate(-58.438 -49.899)" fill="#ff725e"/>
        <path id="Trazado_1419" data-name="Trazado 1419" d="M194.549,165.98l.529-1.141a3.742,3.742,0,0,0,1.9.53c.733,0,1.007-.193,1.007-.5,0-.9-3.308.021-3.308-2.168,0-1.039.937-1.771,2.534-1.771a4.51,4.51,0,0,1,2.108.478l-.53,1.13a3.144,3.144,0,0,0-1.578-.407c-.712,0-1.017.224-1.017.509,0,.937,3.308.031,3.308,2.189,0,1.017-.947,1.741-2.586,1.741a4.7,4.7,0,0,1-2.371-.59" transform="translate(-61.436 -50.82)" fill="#ff725e"/>
        <path id="Trazado_1420" data-name="Trazado 1420" d="M202.628,163.75a2.831,2.831,0,0,1,3.054-2.819,2.516,2.516,0,0,1,2.453,1.394l-1.232.662a1.367,1.367,0,0,0-1.232-.753,1.519,1.519,0,0,0,0,3.034,1.348,1.348,0,0,0,1.232-.753l1.232.672a2.541,2.541,0,0,1-2.453,1.384,2.831,2.831,0,0,1-3.054-2.82" transform="translate(-63.987 -50.82)" fill="#ff725e"/>
        <path id="Trazado_1421" data-name="Trazado 1421" d="M215.417,160.93V162.4c-.132-.011-.234-.021-.356-.021a1.345,1.345,0,0,0-1.455,1.526v2.586h-1.588v-5.476h1.517v.723a2.211,2.211,0,0,1,1.883-.8" transform="translate(-66.952 -50.819)" fill="#ff725e"/>
        <path id="Trazado_1422" data-name="Trazado 1422" d="M218.087,158.23a.908.908,0,0,1,.987-.885.891.891,0,0,1,.987.855.992.992,0,0,1-1.975.031m.194,1.65h1.587v5.476h-1.587Z" transform="translate(-68.869 -49.687)" fill="#ff725e"/>
        <path id="Trazado_1423" data-name="Trazado 1423" d="M228.813,162.829a2.66,2.66,0,0,1-2.729,2.82,2.127,2.127,0,0,1-1.719-.712v.631h-1.517v-7.553h1.587v2.657a2.127,2.127,0,0,1,1.649-.662,2.66,2.66,0,0,1,2.729,2.819m-1.609,0a1.4,1.4,0,1,0-1.394,1.518,1.382,1.382,0,0,0,1.394-1.518" transform="translate(-70.372 -49.899)" fill="#ff725e"/>
        <path id="Trazado_1424" data-name="Trazado 1424" d="M238.261,164.2h-4.144a1.461,1.461,0,0,0,1.568,1.1,1.856,1.856,0,0,0,1.375-.53l.844.916a3.2,3.2,0,0,1-5.384-1.934,2.788,2.788,0,0,1,2.922-2.82,2.711,2.711,0,0,1,2.85,2.84c0,.122-.02.295-.03.428m-4.163-.926h2.7a1.368,1.368,0,0,0-2.7,0" transform="translate(-73.426 -50.819)" fill="#ff725e"/>
        <path id="Trazado_1425" data-name="Trazado 1425" d="M245.9,160.93V162.4c-.132-.011-.234-.021-.356-.021a1.345,1.345,0,0,0-1.455,1.526v2.586H242.5v-5.476h1.517v.723a2.211,2.211,0,0,1,1.883-.8" transform="translate(-76.579 -50.819)" fill="#ff725e"/>
        <path id="Trazado_1426" data-name="Trazado 1426" d="M248.112,165.98l.529-1.141a3.742,3.742,0,0,0,1.9.53c.733,0,1.007-.193,1.007-.5,0-.9-3.308.021-3.308-2.168,0-1.039.937-1.771,2.534-1.771a4.505,4.505,0,0,1,2.107.478l-.53,1.13a3.144,3.144,0,0,0-1.578-.407c-.712,0-1.017.224-1.017.509,0,.937,3.308.031,3.308,2.189,0,1.017-.947,1.741-2.586,1.741a4.7,4.7,0,0,1-2.371-.59" transform="translate(-78.35 -50.82)" fill="#ff725e"/>
        <path id="Trazado_1427" data-name="Trazado 1427" d="M203.914,120.427a2.369,2.369,0,0,1,.32.042,3.483,3.483,0,0,1,.86.35,4.747,4.747,0,0,1,1.154.915,3.418,3.418,0,0,1,.919,1.737l.021.122-.124.023-7.19,1.367-.162.031-.039-.165a2.888,2.888,0,0,1,.151-1.639,5.123,5.123,0,0,1,.823-1.462,4.5,4.5,0,0,1,1.115-1.009l.055.325a2.687,2.687,0,0,1,.9-5.293,2.674,2.674,0,0,1,1.78,1.052,2.612,2.612,0,0,1,.512,1.617,2.531,2.531,0,0,1-.354,1.223,2.382,2.382,0,0,1-.513.609,1.233,1.233,0,0,1-.23.153,1.611,1.611,0,0,1,.183-.2,2.794,2.794,0,0,0,.447-.623,2.474,2.474,0,0,0,.278-1.16,2.426,2.426,0,0,0-2.137-2.385,2.4,2.4,0,0,0-1.989.714,2.361,2.361,0,0,0,1.195,3.951l.43.09-.376.235a4.191,4.191,0,0,0-1.02.928,3.633,3.633,0,0,0-.913,2.8l-.2-.133,7.206-1.276-.1.146a3.249,3.249,0,0,0-.818-1.643,4.852,4.852,0,0,0-1.076-.929,4.208,4.208,0,0,0-.808-.4,1.983,1.983,0,0,1-.3-.112" transform="translate(-63.034 -36.552)" fill="#ff725e"/>
        <path id="Trazado_1428" data-name="Trazado 1428" d="M213.216,118.178a1.551,1.551,0,0,1,.207.105,2.381,2.381,0,0,1,.484.456,3.358,3.358,0,0,1,.532.916,2.462,2.462,0,0,1,.153,1.412l-.027.12-.124-.024-5.124-1-.168-.033.031-.167a2.855,2.855,0,0,1,1.5-1.828,3.248,3.248,0,0,1,1.023-.376l-.071.322a1.968,1.968,0,0,1,.324-3.433,1.959,1.959,0,0,1,1.733.1,1.936,1.936,0,0,1,.91,1.2,1.854,1.854,0,0,1-.673,1.945,1.671,1.671,0,0,1-.511.261.765.765,0,0,1-.2.031.642.642,0,0,1,.172-.094,2.069,2.069,0,0,0,.453-.3,1.726,1.726,0,0,0,.523-1.78,1.7,1.7,0,0,0-.816-1.011,1.673,1.673,0,0,0-1.468-.051,1.637,1.637,0,0,0-.253,2.848l.365.244-.437.078a2.949,2.949,0,0,0-.906.337,2.548,2.548,0,0,0-1.327,1.576l-.137-.2,5.106,1.089-.15.1a2.294,2.294,0,0,0-.1-1.286,3.486,3.486,0,0,0-.453-.9,3.136,3.136,0,0,0-.418-.485c-.123-.111-.175-.168-.161-.162" transform="translate(-66.047 -36.155)" fill="#ff725e"/>
        <path id="Trazado_1429" data-name="Trazado 1429" d="M202.82,100.325c0,.1-7.749.178-17.307.178s-17.307-.079-17.307-.178,7.747-.178,17.307-.178,17.307.079,17.307.178" transform="translate(-53.117 -31.625)" fill="#263238"/>
        <path id="Trazado_1430" data-name="Trazado 1430" d="M242.917,229.646l-4.668-6.759a.605.605,0,0,1,.165-.854l3.383-2.283a.611.611,0,0,0-.075-1.062l-12.443-5.468a.632.632,0,0,0-.927.581l.8,13.251a.645.645,0,0,0,1,.481l3.181-2.118a.654.654,0,0,1,.894.17l4.619,6.688a.654.654,0,0,0,.887.175l3.01-1.943a.606.606,0,0,0,.173-.859" transform="translate(-72.109 -67.309)" fill="#ebebeb"/>
        <path id="Trazado_1431" data-name="Trazado 1431" d="M242.835,229.565a.312.312,0,0,1,.09.138.605.605,0,0,1-.008.483c-.084.223-.348.345-.587.515l-.876.585-1.1.727-.629.415a.755.755,0,0,1-.872,0,1.345,1.345,0,0,1-.3-.35l-.255-.363-.534-.761-1.158-1.655-2.642-3.772a.506.506,0,0,0-.447-.138,1.721,1.721,0,0,0-.5.285l-1.089.73-1.121.751-.572.383a.849.849,0,0,1-.8.144.794.794,0,0,1-.532-.655c-.016-.24-.032-.48-.048-.722q-.044-.718-.09-1.452-.091-1.468-.185-2.993c-.124-2.034-.252-4.139-.384-6.3q-.048-.81-.1-1.609a1.61,1.61,0,0,1,.006-.449.8.8,0,0,1,.271-.427.849.849,0,0,1,.932-.077l2.844,1.253,5.375,2.374,2.5,1.108,1.2.531a4.286,4.286,0,0,1,.6.294.764.764,0,0,1,.294.687.8.8,0,0,1-.406.594l-.506.338-.983.657-1.845,1.233c-.573.419.2,1.041.476,1.555l1.013,1.49,1.615,2.392q.638.96,1.009,1.52l.255.4a.574.574,0,0,1,.077.143s-.041-.038-.107-.122l-.284-.38-1.064-1.481-1.665-2.357-1.035-1.475q-.274-.392-.564-.805a.783.783,0,0,1-.177-.555.737.737,0,0,1,.307-.529l1.838-1.256.977-.666.5-.342a.5.5,0,0,0,.274-.384.463.463,0,0,0-.183-.417,4.755,4.755,0,0,0-.549-.256l-1.2-.524-2.508-1.094-5.384-2.354-2.846-1.248a.49.49,0,0,0-.558.032.448.448,0,0,0-.148.233,1.361,1.361,0,0,0,0,.346q.048.8.1,1.608c.129,2.157.255,4.262.376,6.3q.09,1.525.177,2.994.043.734.085,1.452.022.355.043.7a.464.464,0,0,0,.312.383.516.516,0,0,0,.512-.1l.574-.38,1.126-.744,1.093-.723.268-.177a.875.875,0,0,1,.346-.149.809.809,0,0,1,.71.224c.991,1.4,1.83,2.662,2.64,3.838l1.138,1.67.522.768.25.367a1.176,1.176,0,0,0,.245.307c.435.338.882-.182,1.291-.392l1.116-.7.894-.557c.257-.168.5-.27.58-.457a.668.668,0,0,0-.018-.59" transform="translate(-72.028 -67.229)" fill="#263238"/>
        <path id="Trazado_1432" data-name="Trazado 1432" d="M223.029,213.816a12.75,12.75,0,0,1-4.221-.525,12.8,12.8,0,0,1,4.221.525" transform="translate(-69.096 -67.337)"/>
        <path id="Trazado_1433" data-name="Trazado 1433" d="M220.936,203.26a31.723,31.723,0,0,1,4.141,5.292,31.811,31.811,0,0,1-4.141-5.292" transform="translate(-69.767 -64.186)"/>
        <path id="Trazado_1434" data-name="Trazado 1434" d="M230.593,205a7.989,7.989,0,0,1-.281,3.344,7.989,7.989,0,0,1,.281-3.344" transform="translate(-72.702 -64.736)"/>
      </g>
    </g>
    <g id="Grupo_259" data-name="Grupo 259">
      <g id="Grupo_258" data-name="Grupo 258" clip-path="url(#clip-path)">
        <path id="Trazado_1435" data-name="Trazado 1435" d="M110.382,139.336A47.215,47.215,0,1,1,63.167,92.12a47.216,47.216,0,0,1,47.216,47.216" transform="translate(-5.037 -29.09)" fill="#f5f5f5"/>
        <path id="Trazado_1436" data-name="Trazado 1436" d="M159.454,138.7s.139-1.4-2.357-.729a21.45,21.45,0,0,0-5.606,2.979s-1.136.7-1.548.579c0,0,.347-.98-.394-.841-.435.081-2.215.429-2.215.429l-2.978,2.233s-2.175,4.081-2.126,6.215l5.136,5.369a4.894,4.894,0,0,0,3.726-1.719c1.556-1.839,2.23-2.746,2.255-3.46a4.3,4.3,0,0,0-.15-1.279s.544-1.02.248-1.577a1.3,1.3,0,0,1-.229-.819,3.95,3.95,0,0,0,.151-1.362c-.06-.7-.229-1.9-.229-1.9Z" transform="translate(-44.914 -43.512)" fill="#ffbe9d"/>
        <path id="Trazado_1437" data-name="Trazado 1437" d="M154.216,152.261a.934.934,0,0,1-.523-.036c-.332-.066-.779-.283-1.328-.4a1.506,1.506,0,0,0-.871.067,3.315,3.315,0,0,0-.88.579l-.937.79c-.311.274-.7.554-.967.842-.229.255-.227.61.023.712a1.864,1.864,0,0,0,.972,0,2.758,2.758,0,0,0,1.633-.668l.142-.155.088.186a4.023,4.023,0,0,0,1.021,1.325c.308.262.508.378.493.407a1.335,1.335,0,0,1-.588-.282,3.678,3.678,0,0,1-1.176-1.326l.23.031a2.938,2.938,0,0,1-1.785.819,2.071,2.071,0,0,1-1.184-.015.69.69,0,0,1-.4-.613,1,1,0,0,1,.252-.658,12.162,12.162,0,0,1,1.019-.883l.952-.775a3.468,3.468,0,0,1,.987-.6,1.744,1.744,0,0,1,1.032-.035c.6.169,1.005.416,1.314.519a3.39,3.39,0,0,1,.481.172" transform="translate(-46.792 -47.844)" fill="#eb996e"/>
        <path id="Trazado_1438" data-name="Trazado 1438" d="M148.439,152.41c0,.023-.153.068-.45.089a1.518,1.518,0,0,1-.551-.062.981.981,0,0,1-.586-.5.941.941,0,0,1,.165-.924l.554-.8,1.286-1.811a2.006,2.006,0,0,1,.913-.84,2.03,2.03,0,0,1,1.152.077l1.75.48a7.621,7.621,0,0,1,1.589.533,7.67,7.67,0,0,1-1.652-.282l-1.769-.4a1.8,1.8,0,0,0-.956-.064,1.747,1.747,0,0,0-.73.714l-1.31,1.794c-.365.554-.928,1.035-.755,1.427a1.006,1.006,0,0,0,.9.522c.282.023.446.025.447.053" transform="translate(-46.354 -46.579)" fill="#eb996e"/>
        <path id="Trazado_1439" data-name="Trazado 1439" d="M154.518,144.864a3.155,3.155,0,0,0-1.635-.628c-1.092-.106-2.569.538-4.1,1.26a4.714,4.714,0,0,0-1.8,1.466,1.3,1.3,0,0,0-.3.87.6.6,0,0,0,.514.481,1.4,1.4,0,0,0,1.132-.391c.242-.2.375-.315.395-.3s-.079.164-.3.4a2.122,2.122,0,0,1-.465.376,1.223,1.223,0,0,1-.808.164.875.875,0,0,1-.767-.682,1.563,1.563,0,0,1,.319-1.109,4.843,4.843,0,0,1,1.91-1.6,17.6,17.6,0,0,1,2.274-.935,4.616,4.616,0,0,1,2.017-.258,2.6,2.6,0,0,1,1.279.5c.258.2.345.369.33.38" transform="translate(-46.222 -45.458)" fill="#eb996e"/>
        <path id="Trazado_1440" data-name="Trazado 1440" d="M149.355,144.9a19.669,19.669,0,0,1,1.951-1.393,2.793,2.793,0,0,0,.648-.582.674.674,0,0,0,.114-.586.48.48,0,0,0-.291-.28c-.1-.034-.168-.025-.177-.051s.049-.083.2-.09a.581.581,0,0,1,.507.311.9.9,0,0,1-.064.875,2.608,2.608,0,0,1-.714.7,5.163,5.163,0,0,1-2.17,1.1" transform="translate(-47.164 -44.817)" fill="#eb996e"/>
        <path id="Trazado_1441" data-name="Trazado 1441" d="M144.915,168.412l1.169-9.805-4.332-5.157-.569-.866-2.841,10.159Z" transform="translate(-43.687 -48.184)" fill="#ffbe9d"/>
        <path id="Trazado_1442" data-name="Trazado 1442" d="M59.777,102.2a6.62,6.62,0,0,1,5.1-6.222,8.61,8.61,0,0,0,2.209-.53,12.891,12.891,0,0,0,1.494-1.118,4.422,4.422,0,0,1,5.5.456c1.333,1.327,1.547-.777,4.462.5,2.415,1.059,1.472,3.065,1.472,3.065a5.074,5.074,0,0,1,5.489,3.365c.447,1.417.37,3.22,1.619,4.027.6.391,1.384.424,2,.79,1.153.681,1.383,2.244,1.308,3.581s-.312,2.768.327,3.945c1.047,1.929,4.033,2.376,4.657,4.482.294.993.018,2.263.817,2.923a3.514,3.514,0,0,0,1.141.491,4.629,4.629,0,0,1,1.183,8.138c-.383.274-.846.541-.948,1-.114.513.275.982.566,1.419a4.45,4.45,0,0,1-5.572,6.5,6.961,6.961,0,0,1-3.658,3.727,4.221,4.221,0,0,1-2.4.362,4.831,4.831,0,0,1-1.784-.816c-2.6-1.756-6.286-4.479-6.887-7.56" transform="translate(-18.877 -29.55)" fill="#263238"/>
        <path id="Trazado_1443" data-name="Trazado 1443" d="M93.412,116.778a2.6,2.6,0,0,0,1.086-.149,6.449,6.449,0,0,0,3.976-3.329,2.61,2.61,0,0,0,.337-1.043,8.863,8.863,0,0,0-.522.944,7.379,7.379,0,0,1-3.856,3.23,8.9,8.9,0,0,0-1.022.348" transform="translate(-29.498 -35.449)" fill="#455a64"/>
        <path id="Trazado_1444" data-name="Trazado 1444" d="M89.818,108.712a2.32,2.32,0,0,0,.792.617,6.277,6.277,0,0,0,4.727.6,2.336,2.336,0,0,0,.922-.4,8.027,8.027,0,0,1-6.441-.817" transform="translate(-28.363 -34.328)" fill="#455a64"/>
        <path id="Trazado_1445" data-name="Trazado 1445" d="M107.589,145.744s.034,0,.1-.027a2.08,2.08,0,0,0,.268-.116,3.526,3.526,0,0,0,.908-.658,3.814,3.814,0,0,0,.939-1.508,3.713,3.713,0,0,0-.017-2.35,3.851,3.851,0,0,0-.663-1.219,5.059,5.059,0,0,0-1.129-.982,5.058,5.058,0,0,1-1.165-.987,1.538,1.538,0,0,1-.228-1.458,7.418,7.418,0,0,1,.837-1.5,5.175,5.175,0,0,0,.436-.822,2.977,2.977,0,0,0,.189-.952,3.242,3.242,0,0,0-2.161-3.1,10.533,10.533,0,0,0-1.964-.2,2.215,2.215,0,0,1-.854-.246,1.33,1.33,0,0,1-.554-.621,2.7,2.7,0,0,1-.018-1.7c.151-.559.392-1.1.525-1.675a2.569,2.569,0,0,0-.1-1.719,2.733,2.733,0,0,0-1.127-1.171,7.522,7.522,0,0,0-2.741-.777,5.746,5.746,0,0,1-2.172-.682,2.575,2.575,0,0,1-1.038-1.321,1.664,1.664,0,0,1-.028-1.064c.079-.237.17-.341.153-.352a.911.911,0,0,0-.209.331,1.665,1.665,0,0,0-.026,1.119,2.667,2.667,0,0,0,1.056,1.425,5.8,5.8,0,0,0,2.228.75,7.444,7.444,0,0,1,2.651.782,2.491,2.491,0,0,1,1.015,1.067,2.309,2.309,0,0,1,.068,1.548c-.13.543-.369,1.073-.534,1.667a2.958,2.958,0,0,0,.027,1.89,1.61,1.61,0,0,0,.673.759,2.481,2.481,0,0,0,.967.285,10.686,10.686,0,0,1,1.909.195,2.959,2.959,0,0,1,1.96,2.809,2.7,2.7,0,0,1-.166.851,4.888,4.888,0,0,1-.409.778,7.512,7.512,0,0,0-.857,1.563,1.807,1.807,0,0,0,.28,1.7,5.231,5.231,0,0,0,1.232,1.032,4.827,4.827,0,0,1,1.092.925,3.67,3.67,0,0,1,.642,1.141,3.567,3.567,0,0,1,.058,2.231,3.79,3.79,0,0,1-.864,1.478,4.822,4.822,0,0,1-1.188.881" transform="translate(-30.21 -37.433)" fill="#455a64"/>
        <path id="Trazado_1446" data-name="Trazado 1446" d="M59.955,110.5l-.228-2.217,13.125-3.642c4.075-.776,8.863,2.976,9.465,7.081.669,4.56,1.306,10.155,1.046,13.621-.521,6.969-5.721,8.281-5.721,8.281l.537,6.831-15.2,1.453Z" transform="translate(-18.861 -33.01)" fill="#ffbe9d"/>
        <path id="Trazado_1447" data-name="Trazado 1447" d="M88.611,122.876a.885.885,0,0,1-.777.961.847.847,0,0,1-.976-.72.886.886,0,0,1,.776-.961.847.847,0,0,1,.976.72" transform="translate(-27.427 -38.572)" fill="#263238"/>
        <path id="Trazado_1448" data-name="Trazado 1448" d="M89.36,119.113c-.1.125-.809-.314-1.758-.233s-1.605.614-1.717.506c-.055-.047.039-.264.324-.51a2.42,2.42,0,0,1,1.364-.547,2.326,2.326,0,0,1,1.411.33c.311.2.426.4.377.455" transform="translate(-27.116 -37.364)" fill="#263238"/>
        <path id="Trazado_1449" data-name="Trazado 1449" d="M75.343,124.012a.885.885,0,0,1-.777.961.846.846,0,0,1-.975-.72.885.885,0,0,1,.775-.961.847.847,0,0,1,.976.72" transform="translate(-23.237 -38.931)" fill="#263238"/>
        <path id="Trazado_1450" data-name="Trazado 1450" d="M75.745,120.5c-.1.124-.81-.315-1.758-.234s-1.605.614-1.718.506c-.055-.047.038-.264.324-.51a2.427,2.427,0,0,1,1.364-.547,2.332,2.332,0,0,1,1.412.33c.309.2.426.4.377.456" transform="translate(-22.817 -37.803)" fill="#263238"/>
        <path id="Trazado_1451" data-name="Trazado 1451" d="M82.737,127.106a6.3,6.3,0,0,1,1.519-.406c.24-.045.465-.113.493-.281a1.24,1.24,0,0,0-.222-.705l-.87-1.786a31.892,31.892,0,0,1-2.01-4.694,31.834,31.834,0,0,1,2.383,4.521q.44.942.841,1.8a1.408,1.408,0,0,1,.2.941.611.611,0,0,1-.369.387,1.618,1.618,0,0,1-.406.091,6.2,6.2,0,0,1-1.563.132" transform="translate(-25.781 -37.652)" fill="#263238"/>
        <path id="Trazado_1452" data-name="Trazado 1452" d="M81.455,146.291A18.273,18.273,0,0,1,71.8,144.6s2.722,4.623,9.789,3.4Z" transform="translate(-22.674 -45.664)" fill="#eb996e"/>
        <path id="Trazado_1453" data-name="Trazado 1453" d="M81.648,133.883a1.718,1.718,0,0,0-1.586-.508,1.568,1.568,0,0,0-1.03.668.994.994,0,0,0,.018,1.138,1.153,1.153,0,0,0,1.271.212,3.613,3.613,0,0,0,1.153-.825,1.061,1.061,0,0,0,.248-.3.319.319,0,0,0-.031-.353" transform="translate(-24.904 -42.108)" fill="#eb996e"/>
        <path id="Trazado_1454" data-name="Trazado 1454" d="M79.186,132.039c.153-.022.24,1.009,1.183,1.667s2.031.454,2.05.6c.02.063-.228.22-.69.271a2.573,2.573,0,0,1-1.706-.44,2.242,2.242,0,0,1-.927-1.4c-.075-.427.018-.692.09-.692" transform="translate(-24.969 -41.696)" fill="#263238"/>
        <path id="Trazado_1455" data-name="Trazado 1455" d="M75.279,115.138c-.073.266-1.03.222-2.133.449-1.107.2-1.978.6-2.145.386-.075-.105.062-.361.4-.641a3.783,3.783,0,0,1,3.259-.636c.422.131.645.316.615.442" transform="translate(-22.415 -36.178)" fill="#263238"/>
        <path id="Trazado_1456" data-name="Trazado 1456" d="M88.629,115.113c-.149.229-.822.06-1.609.114-.79.027-1.44.265-1.613.053-.076-.1.011-.328.285-.557a2.338,2.338,0,0,1,2.6-.135c.3.2.406.413.341.525" transform="translate(-26.962 -36.081)" fill="#263238"/>
        <path id="Trazado_1457" data-name="Trazado 1457" d="M82.688,102.594c-.8,2.531-2.833,6.4-5.424,6.984a7.8,7.8,0,0,1-7.273-2.248c-.2,2-2.266,3.253-4.2,3.775a7.877,7.877,0,0,1-4.2.139,4.176,4.176,0,0,1-2.953-2.8c-.352-1.374,1.288-5,2.649-5.4" transform="translate(-18.501 -32.398)" fill="#263238"/>
        <path id="Trazado_1458" data-name="Trazado 1458" d="M125.045,158.248l-2.469,9.431-.692,2.107s-12.338-10.711-14.2-11.545a27.78,27.78,0,0,0-5.182-1.4l5.241,23.754s9.97,10.728,15.256,10.46,9.26-2.536,10.356-6.659,4.048-18.789,4.048-18.789Z" transform="translate(-32.368 -49.528)" fill="#9cce4a"/>
        <path id="Trazado_1459" data-name="Trazado 1459" d="M75.334,148.283l2.04,5.314,8.66.541,6.882,16.717-1.361,30.294c-16.148,6.153-34.313,2.335-40.852-3.52,0,0,3.28-21.181,3.31-21.658s-3.651-18.791-3.651-18.791l6.556-2.777,1.122-4.688Z" transform="translate(-15.904 -46.826)" fill="#9cce4a"/>
        <g id="Grupo_257" data-name="Grupo 257" transform="translate(34.832 137.652)" opacity="0.3">
          <g id="Grupo_256" data-name="Grupo 256">
            <g id="Grupo_255" data-name="Grupo 255" clip-path="url(#clip-path-4)">
              <path id="Trazado_1460" data-name="Trazado 1460" d="M82.257,201.8a3.069,3.069,0,0,1,1.173,3.369,8.718,8.718,0,0,1-1.9,3.282,43.156,43.156,0,0,1-7.908,8.1c-3.055,2.234-4.9,3.7-8.685,3.547a22.959,22.959,0,0,1-14.025-6.273l.214-3.431L72.3,201.183Z" transform="translate(-50.908 -201.183)"/>
            </g>
          </g>
        </g>
        <path id="Trazado_1461" data-name="Trazado 1461" d="M87.823,199.328a24.949,24.949,0,0,0,3.347-1.884,25.062,25.062,0,0,0,2.776-2.655,9.013,9.013,0,0,1-6.123,4.538" transform="translate(-27.733 -61.511)" fill="#ff725e"/>
        <path id="Trazado_1462" data-name="Trazado 1462" d="M81.252,186.227a11.257,11.257,0,0,1,2.3-2.257c.689-.566,1.336-1.042,1.828-1.367a1.393,1.393,0,0,1,.679-.263c.181,0,.268.056.262.077a1.675,1.675,0,0,0-.79.4l-1.747,1.44a19.576,19.576,0,0,1-2.533,1.975" transform="translate(-25.657 -57.58)" fill="#ff725e"/>
        <path id="Trazado_1463" data-name="Trazado 1463" d="M131.84,172.681c.044-.043.631.545,1.683,1.363a23.524,23.524,0,0,0,4.427,2.708,22.825,22.825,0,0,0,2.665,1.028,16.936,16.936,0,0,0,2.272.521c1.314.2,2.146.163,2.148.23a1.816,1.816,0,0,1-.583.079,4.947,4.947,0,0,1-.688.008,7.6,7.6,0,0,1-.911-.061,14.413,14.413,0,0,1-2.333-.454,19.929,19.929,0,0,1-2.725-1.019,19.722,19.722,0,0,1-4.435-2.839,12.269,12.269,0,0,1-1.156-1.1c-.252-.28-.383-.443-.365-.46" transform="translate(-41.633 -54.529)" fill="#263238"/>
        <path id="Trazado_1464" data-name="Trazado 1464" d="M131.4,185.073a29.942,29.942,0,0,1-.48-4.645,29.985,29.985,0,0,1-.116-4.669,29.928,29.928,0,0,1,.48,4.646,29.975,29.975,0,0,1,.116,4.668" transform="translate(-41.29 -55.502)" fill="#263238"/>
        <path id="Trazado_1465" data-name="Trazado 1465" d="M125.454,186.4a6.058,6.058,0,0,1,.127-1.672,22.215,22.215,0,0,1,2.686-7.6,6.046,6.046,0,0,1,.951-1.381c.1.059-1.264,2.225-2.3,5.182-1.052,2.948-1.351,5.492-1.466,5.475" transform="translate(-39.61 -55.498)" fill="#263238"/>
        <path id="Trazado_1466" data-name="Trazado 1466" d="M118.127,192.944a1.653,1.653,0,0,1-.091-.551,10.459,10.459,0,0,1-.024-1.52,15,15,0,0,1,3.732-9.147,10.408,10.408,0,0,1,1.08-1.069c.275-.231.434-.35.451-.33.043.047-.538.583-1.334,1.566a16.827,16.827,0,0,0-3.671,9c-.12,1.259-.079,2.049-.143,2.052" transform="translate(-37.262 -56.944)" fill="#263238"/>
        <path id="Trazado_1467" data-name="Trazado 1467" d="M109.867,168.585a3.566,3.566,0,0,1,.216.8c.118.518.263,1.273.424,2.209.32,1.872.665,4.477.861,7.37s.2,5.522.131,7.42c-.033.949-.077,1.717-.124,2.246a3.578,3.578,0,0,1-.107.82,3.6,3.6,0,0,1-.035-.826c0-.607,0-1.357.008-2.244,0-1.893-.046-4.509-.238-7.391s-.5-5.479-.752-7.355c-.121-.879-.224-1.622-.307-2.222a3.606,3.606,0,0,1-.076-.823" transform="translate(-34.692 -53.237)" fill="#263238"/>
        <path id="Trazado_1468" data-name="Trazado 1468" d="M100.9,156.006c-.265.293-8.215,5.794-9.346,7.083s-8.4,8.572-8.4,8.572l.1.068a21.16,21.16,0,0,1,6.449,7.838l1.729-3.624s6.124-4.007,6.856-4.828a2.738,2.738,0,0,0,.866-2.439,1.765,1.765,0,0,0,.649-2.174s.576-2.313-.7-3.1l-1.456-.9s5.943-5.652,6-5.756.774-1.14.274-1.792-3.026,1.048-3.026,1.048" transform="translate(-26.261 -48.886)" fill="#ffbe9d"/>
        <path id="Trazado_1469" data-name="Trazado 1469" d="M68.393,169.769l-12.9,10.93-7.251-22.824s-9.11,3.113-8.5,14.176c.452,8.129,3.08,21.629,6.823,24.977s8.082,6.732,14.248,3.884S80.144,186.79,80.144,186.79s-4.653-13.7-11.751-17.021" transform="translate(-12.543 -49.855)" fill="#9cce4a"/>
        <path id="Trazado_1470" data-name="Trazado 1470" d="M68.32,169.67s.108.049.324.165l.968.525c.386.286.877.626,1.417,1.077a18.932,18.932,0,0,1,1.712,1.721,43.5,43.5,0,0,1,7.452,13.491l.03.081-.068.057c-2.51,2.14-5.307,4.438-8.383,6.821-1.542,1.188-3.147,2.406-4.848,3.6a49.83,49.83,0,0,1-5.433,3.415,10.72,10.72,0,0,1-6.584,1.326,13.57,13.57,0,0,1-6.343-3.033c-.469-.375-.935-.757-1.391-1.153l-.681-.6c-.226-.2-.429-.449-.645-.672a13.2,13.2,0,0,1-1.884-3.194,42.7,42.7,0,0,1-2.319-7.155c-.677-2.805-1.185-5.608-1.567-8.377-.2-1.384-.34-2.763-.463-4.131a26.7,26.7,0,0,1-.077-4.089,13.993,13.993,0,0,1,2.675-7.376A13.257,13.257,0,0,1,44.9,159.46a13.088,13.088,0,0,1,3.221-1.84l.157-.06.052.166,7.206,22.838-.185-.053,9.555-8.021,2.54-2.114.654-.536c.147-.119.223-.171.223-.171s-.073.074-.218.2l-.648.568-2.517,2.17-9.44,8.078-.133.114-.053-.167c-1.966-6.146-4.453-13.919-7.3-22.81l.209.105a13.618,13.618,0,0,0-5.736,4.443,13.656,13.656,0,0,0-2.6,7.2,43.653,43.653,0,0,0,.545,8.142c.382,2.757.89,5.549,1.563,8.339a42.567,42.567,0,0,0,2.3,7.094,12.852,12.852,0,0,0,1.825,3.106c.206.212.385.439.611.639l.677.6c.453.393.913.772,1.376,1.143a13.228,13.228,0,0,0,6.172,2.969,10.382,10.382,0,0,0,6.382-1.28,49.647,49.647,0,0,0,5.4-3.378c1.7-1.183,3.3-2.394,4.848-3.574,3.08-2.369,5.884-4.654,8.4-6.777l-.038.139a44.105,44.105,0,0,0-7.314-13.48,19.6,19.6,0,0,0-1.677-1.734c-.528-.456-1.01-.8-1.386-1.1l-.93-.55c-.211-.127-.322-.2-.322-.2" transform="translate(-12.47 -49.756)" fill="#263238"/>
        <path id="Trazado_1471" data-name="Trazado 1471" d="M56.668,200.716a4.423,4.423,0,0,1-.187-1.588,9.692,9.692,0,0,1,.805-3.779,9.872,9.872,0,0,1,2.218-3.164,4.454,4.454,0,0,1,1.284-.953,15.336,15.336,0,0,1-1.1,1.134,11.38,11.38,0,0,0-2.067,3.129,11.163,11.163,0,0,0-.883,3.643c-.064.965-.009,1.571-.07,1.578" transform="translate(-17.836 -60.388)" fill="#263238"/>
        <path id="Trazado_1472" data-name="Trazado 1472" d="M42.113,193.233a1.861,1.861,0,0,1-.069-.689,5.037,5.037,0,0,1,.387-1.854,4.576,4.576,0,0,1,1.836-2.132,8.2,8.2,0,0,1,3.253-1.119,13.811,13.811,0,0,1,6.153.616,11.144,11.144,0,0,1,1.721.758,2.2,2.2,0,0,1,.577.378c-.03.06-.883-.432-2.378-.89a14.793,14.793,0,0,0-6.023-.5,8.179,8.179,0,0,0-3.126,1.044,4.436,4.436,0,0,0-1.776,1.951,7.62,7.62,0,0,0-.554,2.438" transform="translate(-13.277 -59.156)" fill="#263238"/>
        <path id="Trazado_1473" data-name="Trazado 1473" d="M72.49,183.494a3.383,3.383,0,0,1,.642.478c.4.322.956.819,1.617,1.459a36.41,36.41,0,0,1,8.072,11.8c.356.848.619,1.546.773,2.036a3.343,3.343,0,0,1,.212.771c-.057.021-.454-1.043-1.221-2.7a42.51,42.51,0,0,0-8.02-11.727c-1.268-1.317-2.116-2.072-2.076-2.118" transform="translate(-22.891 -57.944)" fill="#263238"/>
        <path id="Trazado_1474" data-name="Trazado 1474" d="M84.3,194.484a17.763,17.763,0,0,1,3.169-2.61,17.772,17.772,0,0,1,3.513-2.127,33.255,33.255,0,0,1-3.3,2.425,33.321,33.321,0,0,1-3.381,2.312" transform="translate(-26.62 -59.918)" fill="#263238"/>
        <path id="Trazado_1475" data-name="Trazado 1475" d="M59.467,140.587a5.434,5.434,0,0,1-3.356,5.277,3.851,3.851,0,0,1-7.214,2.4,4.621,4.621,0,0,0-.708-1.228c-.775-.766-2.062-.436-3.132-.641-1.927-.371-3.012-2.543-3.043-4.506a4.547,4.547,0,0,0-.088-1.154,5.128,5.128,0,0,0-1.426-1.867c-2.192-2.411-1.89-6.345-.131-9.087.586-.915,1.348-1.888,1.152-2.957a5.849,5.849,0,0,0-.8-1.627,4.922,4.922,0,0,1,.657-5.495,1.549,1.549,0,0,0,.48-.751,1.5,1.5,0,0,0-.074-.566,5.758,5.758,0,0,1,4.075-6.7,1.437,1.437,0,0,0,.491-.176c.411-.284.35-.892.347-1.392a9.2,9.2,0,0,1,1.587-4.851c2.47-2.7,5.385-1.113,6.451-.334,0,0,3.053,9.141,2.9,10.932s-.893,6.3-.14,8.219,2.088,5.86,1.51,7.743.453,8.757.453,8.757" transform="translate(-12.301 -32.765)" fill="#263238"/>
        <path id="Trazado_1476" data-name="Trazado 1476" d="M48.368,115.376c-.009.018.133.106.4.25a9.32,9.32,0,0,0,1.177.523,13.5,13.5,0,0,0,8.38.33,9.455,9.455,0,0,0,1.214-.428,1.468,1.468,0,0,0,.42-.218c-.019-.048-.644.194-1.687.444a15.225,15.225,0,0,1-8.258-.325c-1.021-.331-1.625-.622-1.648-.575" transform="translate(-15.274 -36.432)" fill="#455a64"/>
        <path id="Trazado_1477" data-name="Trazado 1477" d="M47.172,116.511a2.235,2.235,0,0,0,.269.532,4.952,4.952,0,0,0,.376.59,8.356,8.356,0,0,0,.559.741,12.367,12.367,0,0,0,1.713,1.708,13.125,13.125,0,0,0,5.279,2.613,12.338,12.338,0,0,0,2.4.326,8.29,8.29,0,0,0,.928,0,5.05,5.05,0,0,0,.7-.058,2.273,2.273,0,0,0,.587-.109c-.005-.059-.848.059-2.2-.037a13.643,13.643,0,0,1-2.344-.382,13.8,13.8,0,0,1-5.173-2.56,13.553,13.553,0,0,1-1.724-1.632c-.9-1.017-1.314-1.759-1.364-1.728" transform="translate(-14.896 -36.792)" fill="#455a64"/>
        <path id="Trazado_1478" data-name="Trazado 1478" d="M58.193,153.753c0-.015-.118.018-.333,0a1.485,1.485,0,0,1-.846-.373,2.032,2.032,0,0,1-.679-1.28,6.619,6.619,0,0,1,.113-1.99,4.26,4.26,0,0,0-.157-2.482,7.264,7.264,0,0,0-1.927-2.1,4.543,4.543,0,0,1-.967-1.11,1.713,1.713,0,0,1-.133-1.42,3.235,3.235,0,0,1,.922-1.258c.4-.375.855-.718,1.278-1.122a3.059,3.059,0,0,0,.955-1.477,2.087,2.087,0,0,0-.385-1.672c-.651-.91-1.565-1.513-1.877-2.423a3.2,3.2,0,0,1,.385-2.6,11.2,11.2,0,0,1,1.429-1.965,11.414,11.414,0,0,0,1.2-1.655,4.532,4.532,0,0,0,.547-1.449,2.818,2.818,0,0,0-.008-.978,1.356,1.356,0,0,0-.1-.325,3.609,3.609,0,0,1,0,1.282,7,7,0,0,1-1.79,2.989,11.126,11.126,0,0,0-1.486,1.984,4.744,4.744,0,0,0-.508,1.308,2.728,2.728,0,0,0,.082,1.5c.354,1.022,1.305,1.648,1.9,2.5a1.791,1.791,0,0,1,.337,1.444,2.786,2.786,0,0,1-.872,1.326c-.407.388-.859.733-1.275,1.12a3.5,3.5,0,0,0-1,1.381,2,2,0,0,0,.16,1.65,4.745,4.745,0,0,0,1.033,1.178,7.153,7.153,0,0,1,1.886,2,4.089,4.089,0,0,1,.172,2.348,6.607,6.607,0,0,0-.069,2.046,2.133,2.133,0,0,0,.769,1.342,1.484,1.484,0,0,0,.917.343.794.794,0,0,0,.336-.064" transform="translate(-16.699 -39.813)" fill="#455a64"/>
        <path id="Trazado_1479" data-name="Trazado 1479" d="M83.456,153.827a16.121,16.121,0,0,1-.74-2.441,16.007,16.007,0,0,1-.7-2.454,9.619,9.619,0,0,1,1.44,4.895" transform="translate(-25.895 -47.03)" fill="#263238"/>
        <path id="Trazado_1480" data-name="Trazado 1480" d="M77.642,154.4a19.97,19.97,0,0,1-.7-2.53,20.111,20.111,0,0,1-.72-2.525,9.366,9.366,0,0,1,1.421,5.055" transform="translate(-24.065 -47.159)" fill="#263238"/>
        <path id="Trazado_1481" data-name="Trazado 1481" d="M70.575,154.91a20.363,20.363,0,0,1-.421-2.407,20.331,20.331,0,0,1-.489-2.394,7.668,7.668,0,0,1,.91,4.8" transform="translate(-21.994 -47.402)" fill="#263238"/>
      </g>
    </g>
  </g>
</svg>
