<svg xmlns="http://www.w3.org/2000/svg" xmlns:xlink="http://www.w3.org/1999/xlink" width="101.392" height="101.417" viewBox="0 0 101.392 101.417">
  <defs>
    <clipPath id="clip-path">
      <rect id="Rectángulo_61" data-name="Rectángulo 61" width="101.392" height="101.417" fill="none"/>
    </clipPath>
  </defs>
  <g id="Grupo_19" data-name="Grupo 19" transform="translate(-80)">
    <g id="Grupo_91" data-name="Grupo 91" transform="translate(80)" clip-path="url(#clip-path)">
      <path id="Trazado_64" data-name="Trazado 64" d="M50.7,0a14.654,14.654,0,0,0-2.878,29.025v10.4H14.646a3.169,3.169,0,0,0-3.181,3.181V53.861a14.668,14.668,0,1,0,6.338-.006v-8.09H47.817V72.4a14.756,14.756,0,1,0,6.346.167v-26.8h29.4v8.1a14.64,14.64,0,1,0,6.344-.006V42.606a3.169,3.169,0,0,0-3.163-3.181H54.163V28.857A14.632,14.632,0,0,0,50.7,0Zm0,6.339a8.319,8.319,0,1,1-8.326,8.331A8.293,8.293,0,0,1,50.7,6.34M14.647,59.821a8.319,8.319,0,1,1-8.332,8.332,8.288,8.288,0,0,1,8.332-8.332m72.1,0a8.319,8.319,0,1,1-8.326,8.332,8.293,8.293,0,0,1,8.326-8.332M50.7,78.447a8.316,8.316,0,1,1-8.326,8.326A8.287,8.287,0,0,1,50.7,78.447" fill="#99ce4a"/>
    </g>
  </g>
</svg>
