<svg id="Componente_6_1" data-name="Componente 6 – 1" xmlns="http://www.w3.org/2000/svg" xmlns:xlink="http://www.w3.org/1999/xlink" width="652.861" height="121.44" viewBox="0 0 652.861 121.44">
  <defs>
    <clipPath id="clip-path">
      <rect id="Rectángulo_82" data-name="Rectángulo 82" width="510.357" height="32.243" fill="none"/>
    </clipPath>
  </defs>
  <rect id="Rectángulo_80" data-name="Rectángulo 80" width="551.912" height="51.84" rx="25.92" transform="translate(57.093 33)" fill="none" stroke="#9cce4a" stroke-width="5"/>
  <g id="Grupo_459" data-name="Grupo 459" transform="translate(133.504 45.8)" style="mix-blend-mode: normal;isolation: isolate">
    <g id="Grupo_458" data-name="Grupo 458">
      <g id="Grupo_457" data-name="Grupo 457" transform="translate(9)" clip-path="url(#clip-path)">
        <g id="Grupo_456" data-name="Grupo 456" style="mix-blend-mode: normal;isolation: isolate">
          <g id="Grupo_455" data-name="Grupo 455">
            <g id="Grupo_454" data-name="Grupo 454" clip-path="url(#clip-path)">
              <text id="Ver_más_tutoriales_en_YouTube" data-name="Ver más tutoriales en YouTube" transform="translate(0.26 21.471)" fill="#9cce4a" font-size="25" font-family="Montserrat-Bold, Montserrat" font-weight="700"><tspan x="0" y="0" letter-spacing="0.005em">V</tspan><tspan y="0" letter-spacing="0.059em">er</tspan><tspan y="0" letter-spacing="0.06em"> </tspan><tspan y="0" letter-spacing="0.059em">m</tspan><tspan y="0" letter-spacing="0.06em">ás tu</tspan><tspan y="0" letter-spacing="0.042em">t</tspan><tspan y="0" letter-spacing="0.06em">o</tspan><tspan y="0" letter-spacing="0.055em">r</tspan><tspan y="0" letter-spacing="0.06em">iales </tspan><tspan y="0" letter-spacing="0.059em">en</tspan><tspan y="0" letter-spacing="0.06em"> </tspan><tspan y="0">Y</tspan><tspan y="0" letter-spacing="0.06em">o</tspan><tspan y="0" letter-spacing="-0.004em">u</tspan><tspan y="0" letter-spacing="0.048em">T</tspan><tspan y="0" letter-spacing="0.06em">ub</tspan><tspan y="0">e</tspan></text>
            </g>
          </g>
        </g>
      </g>
    </g>
  </g>
  <path id="Trazado_129" data-name="Trazado 129" d="M58.735,0c32.439,0,58.735,26.647,58.735,59.518s-26.3,59.518-58.735,59.518S0,92.389,0,59.518,26.3,0,58.735,0" transform="translate(0 2.404)" fill="#fff"/>
  <ellipse id="Elipse_15" data-name="Elipse 15" cx="55.926" cy="56.725" rx="55.926" ry="56.725" transform="translate(3.995 3.995)" fill="none" stroke="#9cce4a" stroke-width="5"/>
  <path id="Trazado_130" data-name="Trazado 130" d="M82.753,30.5a8.567,8.567,0,0,0-6.027-6.072c-5.316-1.438-26.637-1.438-26.637-1.438s-21.319,0-26.637,1.438A8.567,8.567,0,0,0,17.424,30.5C16,35.855,16,47.02,16,47.02s0,11.164,1.425,16.516A8.439,8.439,0,0,0,23.458,69.5c5.316,1.438,26.637,1.438,26.637,1.438s21.319,0,26.637-1.438a8.438,8.438,0,0,0,6.027-5.97c1.425-5.351,1.425-16.516,1.425-16.516S84.178,35.855,82.753,30.5M43.112,57.157V36.883L60.935,47.02Z" transform="translate(9.566 13.748)" fill="#9cce4a"/>
  <rect id="Rectángulo_83" data-name="Rectángulo 83" width="613" height="121.44" fill="none"/>
</svg>
