<svg id="Grupo_9" data-name="Grupo 9" xmlns="http://www.w3.org/2000/svg" xmlns:xlink="http://www.w3.org/1999/xlink" width="57.748" height="75.854" viewBox="0 0 57.748 75.854">
  <defs>
    <clipPath id="clip-path">
      <rect id="Rectángulo_54" data-name="Rectángulo 54" width="57.748" height="75.854" fill="none"/>
    </clipPath>
  </defs>
  <g id="Grupo_82" data-name="Grupo 82" clip-path="url(#clip-path)">
    <path id="Trazado_57" data-name="Trazado 57" d="M2.379,0A2.37,2.37,0,0,0,0,2.38V73.488a2.37,2.37,0,0,0,2.379,2.366h53a2.371,2.371,0,0,0,2.366-2.366V18.62a2.367,2.367,0,0,0-.283-1.3.032.032,0,0,0,0-.009,2.359,2.359,0,0,0-.264-.384c-.014-.019-.031-.038-.046-.056s-.058-.063-.088-.093L40.98.7A2.371,2.371,0,0,0,39.3,0ZM4.74,4.746H36.919V18.462A2.37,2.37,0,0,0,39.3,20.823H53V71.108H4.74ZM41.66,8.092l7.986,7.991H41.66ZM11.582,16.083a2.371,2.371,0,1,0,0,4.741H29.114a2.371,2.371,0,1,0,0-4.741Zm-.227,10.412a2.374,2.374,0,0,0,.227,4.741H46.159a2.371,2.371,0,1,0,0-4.741H11.581q-.114-.005-.227,0Zm.228,10.393a2.371,2.371,0,1,0,0,4.741H46.159a2.371,2.371,0,1,0,0-4.741Zm-.227,10.407a2.375,2.375,0,0,0,.227,4.745H46.159a2.373,2.373,0,0,0,0-4.745H11.582q-.114-.005-.227,0ZM36.923,57.554a2.215,2.215,0,0,0-.25.014,2.374,2.374,0,0,0-1.4.68l-3.884,3.884c-2.424,2.236,1.131,5.775,3.356,3.343l2.366-1.89a4.274,4.274,0,0,0,3.1,2.941c4.562,1.222,7.944-2.468,7.944-2.468a2.372,2.372,0,0,0-3.185-3.514s-2.541,1.684-3.537,1.417a3.316,3.316,0,0,1-2.153-2.468,2.37,2.37,0,0,0-2.356-1.94Z" transform="translate(0)" fill="#9cce4a"/>
  </g>
</svg>
