<svg id="Grupo_17" data-name="Grupo 17" xmlns="http://www.w3.org/2000/svg" xmlns:xlink="http://www.w3.org/1999/xlink" width="73.752" height="75.622" viewBox="0 0 73.752 75.622">
  <defs>
    <clipPath id="clip-path">
      <rect id="Rectángulo_60" data-name="Rectángulo 60" width="73.752" height="75.622" fill="none"/>
    </clipPath>
  </defs>
  <g id="Grupo_88" data-name="Grupo 88" clip-path="url(#clip-path)">
    <path id="Trazado_63" data-name="Trazado 63" d="M10.29,29.312a1.181,1.181,0,0,1,1.181-1.181H41.314a1.181,1.181,0,0,1,0,2.362H11.471A1.181,1.181,0,0,1,10.29,29.312Zm31.025,25.2H11.471a1.181,1.181,0,0,0,0,2.362H41.314a1.181,1.181,0,1,0,0-2.362m0,8.795H11.471a1.181,1.181,0,1,0,0,2.362H41.314a1.181,1.181,0,1,0,0-2.362M11.471,21.7H32.9a1.181,1.181,0,0,0,0-2.363H11.471a1.181,1.181,0,0,0,0,2.363ZM60.692,59.374v7.161a1.181,1.181,0,0,1-1.181,1.181H52.786v6.724A1.181,1.181,0,0,1,51.6,75.622H1.181A1.181,1.181,0,0,1,0,74.44V9.086A1.181,1.181,0,0,1,1.181,7.905H7.906V1.181A1.181,1.181,0,0,1,9.087,0H51.341a1.185,1.185,0,0,1,.836.346l8.169,8.169a1.18,1.18,0,0,1,.346.836V25.183a17.718,17.718,0,0,1,0,34.19Zm-8.169-51.2h4.135L52.522,4.034ZM10.268,7.905H43.435a1.184,1.184,0,0,1,.836.346L52.44,16.42a1.18,1.18,0,0,1,.346.836v7.6a17.784,17.784,0,0,1,5.543-.152V10.532H51.341A1.181,1.181,0,0,1,50.16,9.351V2.363H10.269Zm34.348,8.17h4.135L44.616,11.94Zm5.806,57.183V59.083a17.8,17.8,0,0,1-11.126-11H11.471a1.181,1.181,0,0,1,0-2.362H38.655a17.772,17.772,0,0,1-.084-6.433H11.47a1.181,1.181,0,1,1,0-2.362H39.144A17.8,17.8,0,0,1,50.422,25.473V18.439H43.433a1.181,1.181,0,0,1-1.181-1.181V10.27H2.361V73.26h48.06Zm7.906-13.412a17.784,17.784,0,0,1-5.543-.152v5.658h5.543ZM71.39,42.277A15.353,15.353,0,1,0,56.037,57.63,15.371,15.371,0,0,0,71.39,42.277m-1.546,0A13.808,13.808,0,1,1,56.035,28.469,13.824,13.824,0,0,1,69.844,42.277m-2.363,0A11.445,11.445,0,1,0,56.036,53.722,11.458,11.458,0,0,0,67.481,42.277M56.239,41.066c-2.585-.424-2.633-1.434-2.652-1.815a1.969,1.969,0,0,1,1.753-1.915A2.8,2.8,0,0,1,58.663,38.9a1.182,1.182,0,0,0,2.179-.915,4.9,4.9,0,0,0-3.625-2.971v-.726a1.181,1.181,0,0,0-2.363,0v.736l-.037.007a4.277,4.277,0,0,0-3.591,4.334c.073,1.505.935,3.427,4.629,4.034,2.528.415,2.95,1.275,3.035,1.978a1.238,1.238,0,0,1-.283,1.026,3.461,3.461,0,0,1-2.435.9,2.857,2.857,0,0,1-3.041-1.912,1.182,1.182,0,0,0-2.293.572,4.931,4.931,0,0,0,4.016,3.591v.717a1.181,1.181,0,1,0,2.362,0v-.7a5.331,5.331,0,0,0,3.178-1.623,3.587,3.587,0,0,0,.842-2.856c-.263-2.17-1.944-3.524-5-4.026Z" fill="#9cce4a"/>
  </g>
</svg>
