<svg xmlns="http://www.w3.org/2000/svg" width="682" height="133" viewBox="0 0 682 133">
  <g id="Grupo_41" data-name="Grupo 41" transform="translate(-2523 526.483)">
    <rect id="Rectángulo_23" data-name="Rectángulo 23" width="488" height="12" transform="translate(2606 -507.483)" fill="#0077be"/>
    <ellipse id="Elipse_10" data-name="Elipse 10" cx="27" cy="26" rx="27" ry="26" transform="translate(2570 -526.483)" fill="#0077be"/>
    <text id="regístrate_en_FACTO" data-name="regístrate en FACTO" transform="translate(2523 -455.483)" fill="#707070" font-size="14" font-family="Montserrat-SemiBold, Montserrat" font-weight="600"><tspan x="1.987" y="14">regístrate en FACTO</tspan></text>
    <circle id="Elipse_11" data-name="Elipse 11" cx="26" cy="26" r="26" transform="translate(2822 -526.483)" fill="#0077be"/>
    <text id="Carga_tu_certificado_para_facturar_con_FACTO" data-name="Carga tu certificado para facturar con FACTO" transform="translate(2749 -455.483)" fill="#707070" font-size="14" font-family="Montserrat-SemiBold, Montserrat" font-weight="600"><tspan x="8.312" y="14">Carga tu certificado para </tspan><tspan x="28.101" y="32">facturar con FACTO</tspan></text>
    <ellipse id="Elipse_12" data-name="Elipse 12" cx="25.5" cy="26" rx="25.5" ry="26" transform="translate(3074 -526.483)" fill="#0077be"/>
    <text id="Solicita_la_activación_de_tu_módulo_de_remuneraciones" data-name="Solicita la activación de tu módulo de remuneraciones" transform="translate(2995 -455.483)" fill="#707070" font-size="14" font-family="Montserrat-SemiBold, Montserrat" font-weight="600"><tspan x="10.829" y="14">Solicita la activación de tu </tspan><tspan x="4.83" y="32">módulo de remuneraciones</tspan></text>
    <path id="file-signature-solid_1_" data-name="file-signature-solid (1)" d="M11.781,22.9a.6.6,0,0,0-.549-.352.589.589,0,0,0-.541.334l-.414.828A.864.864,0,0,1,8.685,23.6l-.909-2.725L7.2,22.6a2.331,2.331,0,0,1-2.214,1.595H4.32a.864.864,0,1,1,0-1.728h.669a.605.605,0,0,0,.575-.414L6.546,19.1a1.3,1.3,0,0,1,2.46,0l.75,2.249a2.423,2.423,0,0,1,3.564.765.613.613,0,0,0,.505.338V18.017l6.912-6.863V8.64H13.392a1.3,1.3,0,0,1-1.3-1.3V0H1.3A1.293,1.293,0,0,0,0,1.3V26.353a1.293,1.293,0,0,0,1.3,1.3H19.44a1.293,1.293,0,0,0,1.3-1.3v-2.16l-6.912-.006A2.319,2.319,0,0,1,11.781,22.9ZM20.736,6.583a1.292,1.292,0,0,0-.378-.913L15.072.378A1.3,1.3,0,0,0,14.154,0h-.329V6.912h6.912ZM15.552,18.736v3.728h3.726l8.731-8.79-3.666-3.666Zm15.15-9.7L28.981,7.315a1.375,1.375,0,0,0-1.945,0L25.565,8.787l3.666,3.666L30.7,10.981A1.374,1.374,0,0,0,30.7,9.036Z" transform="translate(2836.953 -515.344)" fill="#fff"/>
    <path id="mouse-pointer-solid" d="M18.076,19.687H11.73l3.34,8.135a1.111,1.111,0,0,1-.565,1.436l-2.941,1.282a1.058,1.058,0,0,1-1.4-.581L7,22.234,1.811,27.565A1.058,1.058,0,0,1,0,26.8V1.095A1.058,1.058,0,0,1,1.811.326l17.012,17.5A1.1,1.1,0,0,1,18.076,19.687Z" transform="translate(2588.614 -515.344)" fill="#fff"/>
    <path id="headset-solid" d="M10.823,12.825a1.894,1.894,0,0,0-1.8-1.973h-.9A3.788,3.788,0,0,0,4.51,14.8v2.96A3.788,3.788,0,0,0,8.117,21.7h.9a1.894,1.894,0,0,0,1.8-1.973ZM20.744,21.7a3.788,3.788,0,0,0,3.608-3.946V14.8a3.788,3.788,0,0,0-3.608-3.946h-.9a1.894,1.894,0,0,0-1.8,1.973v6.906a1.894,1.894,0,0,0,1.8,1.973ZM14.431,0C6.38,0,.258,7.327,0,15.785v.987a.947.947,0,0,0,.9.987h.9a.947.947,0,0,0,.9-.987v-.987c0-7.072,5.26-12.825,11.725-12.825S26.156,8.713,26.156,15.785h-.007c0,.15.007,10.218.007,10.218a2.5,2.5,0,0,1-2.383,2.607H18.038a2.841,2.841,0,0,0-2.706-2.96h-1.8a2.972,2.972,0,0,0,0,5.919H23.772A5.344,5.344,0,0,0,28.861,26V15.785C28.6,7.327,22.481,0,14.431,0Z" transform="translate(3084.825 -517.082)" fill="#fff"/>
  </g>
</svg>
