<svg id="Grupo_7" data-name="Grupo 7" xmlns="http://www.w3.org/2000/svg" xmlns:xlink="http://www.w3.org/1999/xlink" width="143.167" height="83.746" viewBox="0 0 143.167 83.746">
  <defs>
    <clipPath id="clip-path">
      <rect id="Rectángulo_43" data-name="Rectángulo 43" width="143.167" height="83.746" fill="none"/>
    </clipPath>
  </defs>
  <g id="Grupo_71" data-name="Grupo 71" clip-path="url(#clip-path)">
    <path id="Trazado_40" data-name="Trazado 40" d="M273.422,6.16a19.69,19.69,0,1,1-19.69,19.69,19.688,19.688,0,0,1,19.69-19.69" transform="translate(-201.838 -4.9)" fill="#9cce4a"/>
    <path id="Trazado_41" data-name="Trazado 41" d="M220.056,215.71c15.1,0,28.032,10.8,33.411,26.132a48.1,48.1,0,0,1-66.822,0c5.379-15.328,18.311-26.132,33.411-26.132" transform="translate(-148.472 -171.592)" fill="#9cce4a"/>
    <path id="Trazado_42" data-name="Trazado 42" d="M503.259,0a16.145,16.145,0,1,1-16.145,16.145A16.145,16.145,0,0,1,503.259,0" transform="translate(-387.488)" fill="#9cce4a"/>
    <path id="Trazado_43" data-name="Trazado 43" d="M482.959,171.823c12.384,0,22.986,8.856,27.4,21.424a39.488,39.488,0,0,1-32.865,10.689,47.434,47.434,0,0,0-15.9-21.493c5.385-6.546,12.966-10.622,21.364-10.622Z" transform="translate(-367.188 -136.68)" fill="#9cce4a"/>
    <circle id="Elipse_13" data-name="Elipse 13" cx="16.145" cy="16.145" r="16.145" transform="translate(11.252 0)" fill="#9cce4a"/>
    <path id="Trazado_44" data-name="Trazado 44" d="M27.4,171.83c8.4,0,15.977,4.078,21.364,10.624a47.43,47.43,0,0,0-15.893,21.489A39.495,39.495,0,0,1,0,193.254c4.411-12.568,15.016-21.424,27.4-21.424Z" transform="translate(0 -136.687)" fill="#9cce4a"/>
  </g>
</svg>
