<svg id="Grupo_402" data-name="Grupo 402" xmlns="http://www.w3.org/2000/svg" xmlns:xlink="http://www.w3.org/1999/xlink" width="82.687" height="65.732" viewBox="0 0 82.687 65.732">
  <defs>
    <clipPath id="clip-path">
      <rect id="Rectángulo_345" data-name="Rectángulo 345" width="82.687" height="65.732" fill="none"/>
    </clipPath>
  </defs>
  <g id="Grupo_401" data-name="Grupo 401" clip-path="url(#clip-path)">
    <path id="Trazado_782" data-name="Trazado 782" d="M475.131,170.55H454.807A5.807,5.807,0,0,0,449,176.357V211.2A5.807,5.807,0,0,0,454.807,217h20.324a5.807,5.807,0,0,0,5.806-5.807v-34.84a5.81,5.81,0,0,0-5.806-5.807M464.969,214.1a2.9,2.9,0,1,1,2.9-2.9,2.895,2.895,0,0,1-2.9,2.9m10.162-8.71H454.807V176.357h20.324Z" transform="translate(-398.25 -151.273)" fill="#0077be"/>
    <path id="Trazado_783" data-name="Trazado 783" d="M59.679,0H12.659A5.444,5.444,0,0,0,7.234,5.425V36.169h7.234V7.234h43.4V25.084H65.1V5.425A5.444,5.444,0,0,0,59.679,0M1.808,39.684A1.821,1.821,0,0,0,0,41.493V43.3a7.248,7.248,0,0,0,7.234,7.234H56.557V39.684Z" fill="#0077be"/>
  </g>
</svg>
