<svg id="Componente_8_1" data-name="Componente 8 – 1" xmlns="http://www.w3.org/2000/svg" width="50" height="50" viewBox="0 0 50 50">
  <g id="Elipse_3" data-name="Elipse 3" fill="none" stroke="#9cce4a" stroke-width="1">
    <circle cx="25" cy="25" r="25" stroke="none"/>
    <circle cx="25" cy="25" r="24.5" fill="none"/>
  </g>
  <path id="cash-register-solid_4_" data-name="cash-register-solid (4)" d="M16.875,0A1.874,1.874,0,0,1,18.75,1.875v3.75A1.873,1.873,0,0,1,16.875,7.5H12.188V9.375H24.85a3.758,3.758,0,0,1,3.756,3.188l1.33,8.771a5.7,5.7,0,0,1,.064.838V26.25A3.753,3.753,0,0,1,26.25,30H3.75A3.752,3.752,0,0,1,0,26.25V22.172a5.539,5.539,0,0,1,.063-.838l1.329-8.771A3.748,3.748,0,0,1,5.1,9.375H8.385V7.5H3.7A1.909,1.909,0,0,1,1.822,5.625V1.875A1.91,1.91,0,0,1,3.7,0ZM5.625,2.813a.938.938,0,0,0,0,1.875H15a.938.938,0,0,0,0-1.875ZM4.688,26.25H25.313a.938.938,0,0,0,0-1.875H4.688a.938.938,0,0,0,0,1.875ZM6.563,12.656a1.406,1.406,0,1,0,1.406,1.406A1.4,1.4,0,0,0,6.563,12.656Zm5.625,2.813a1.406,1.406,0,1,0-1.406-1.406A1.4,1.4,0,0,0,12.188,15.469ZM9.375,17.344a1.406,1.406,0,1,0,1.406,1.406A1.4,1.4,0,0,0,9.375,17.344Zm8.438-1.875a1.406,1.406,0,1,0-1.406-1.406A1.4,1.4,0,0,0,17.813,15.469ZM15,17.344a1.406,1.406,0,1,0,1.406,1.406A1.4,1.4,0,0,0,15,17.344Zm8.438-1.875a1.406,1.406,0,1,0-1.406-1.406A1.4,1.4,0,0,0,23.438,15.469Zm-2.812,1.875a1.406,1.406,0,1,0,1.406,1.406A1.4,1.4,0,0,0,20.625,17.344Z" transform="translate(10 10)" fill="#9cce4a"/>
</svg>
