<svg id="Componente_6_1" data-name="Componente 6 – 1" xmlns="http://www.w3.org/2000/svg" width="50" height="50" viewBox="0 0 50 50">
  <path id="desktop-solid_1_" data-name="desktop-solid (1)" d="M27.5,0H2.5A2.5,2.5,0,0,0,0,2.5V19.167a2.5,2.5,0,0,0,2.5,2.5h10l-.833,2.5H7.917a1.25,1.25,0,0,0,0,2.5H22.083a1.25,1.25,0,0,0,0-2.5h-3.75l-.833-2.5h10a2.5,2.5,0,0,0,2.5-2.5V2.5A2.5,2.5,0,0,0,27.5,0Zm-.833,18.333H3.333v-15H26.667Z" transform="translate(10 12)" fill="#9cce4a"/>
  <g id="Elipse_1" data-name="Elipse 1" fill="none" stroke="#9cce4a" stroke-width="1">
    <circle cx="25" cy="25" r="25" stroke="none"/>
    <circle cx="25" cy="25" r="24.5" fill="none"/>
  </g>
</svg>
