<svg xmlns="http://www.w3.org/2000/svg" width="192" height="68.941" viewBox="0 0 192 68.941">
  <g id="g10" transform="translate(63.564 2274.507)">
    <g id="g5669" transform="translate(-63.564 -2274.507)">
      <path id="path660" d="M564.386-1912.761h16.255v-48.631H564.386Z" transform="translate(-523.654 1981.702)" fill="#fff"/>
      <g id="g662" transform="translate(40.883 0)">
        <path id="path664" d="M0-117.22a8.129,8.129,0,0,1,8.129-8.131,8.127,8.127,0,0,1,8.126,8.131,8.128,8.128,0,0,1-8.126,8.126A8.13,8.13,0,0,1,0-117.22" transform="translate(0 125.351)" fill="#fff"/>
      </g>
      <path id="path666" d="M940.257-1912.761h16.255v-48.631H940.257Z" transform="translate(-875.145 1981.702)" fill="#fff"/>
      <g id="g668" transform="translate(65.112 0)">
        <path id="path670" d="M0-117.22a8.129,8.129,0,0,1,8.126-8.131,8.129,8.129,0,0,1,8.129,8.131,8.13,8.13,0,0,1-8.129,8.126A8.129,8.129,0,0,1,0-117.22" transform="translate(0 125.351)" fill="#fff"/>
      </g>
      <path id="path672" d="M190.934-2274.5h16.252v16.25H190.934Z" transform="translate(-174.426 2274.5)" fill="#fff"/>
      <g id="g674" transform="translate(0 16.252)">
        <path id="path676" d="M-36.486,0h13.977a9.875,9.875,0,0,0-.379,2.8,8.723,8.723,0,0,0,2.727,6.3c5.516,5.565,7.972,7.342,11.825,12.2A17.993,17.993,0,0,1-4.885,32.5a20.183,20.183,0,0,1-6.394,14.89,19.939,19.939,0,0,1-12.766,5.151,24.733,24.733,0,0,1-10.268-2.1,48.329,48.329,0,0,1-4.7-2.676V33.909a28.458,28.458,0,0,0,4.181,2.8,15.54,15.54,0,0,0,7.054,2.187c2.6.176,5.172-.332,6.829-2.177A7.04,7.04,0,0,0-19.369,31.8a7.973,7.973,0,0,0-1.166-4.017c-3.28-5.867-11.53-9.891-14.674-15.616C-37.79,7.478-36.486,0-36.486,0" transform="translate(39.016)" fill="#fff"/>
      </g>
      <g id="g678" transform="translate(97.505 16.255)">
        <path id="path680" d="M-137.268-14.716v2.585a11.083,11.083,0,0,0-4.193-1.185,2.88,2.88,0,0,0-1.416.3.885.885,0,0,0-.522.789.969.969,0,0,0,.377.721,6.788,6.788,0,0,0,1.847.88,20.789,20.789,0,0,1,2.346,1,4.522,4.522,0,0,1,1.519,1.311,3.384,3.384,0,0,1,.639,2.128,3.509,3.509,0,0,1-1.4,2.924,5.82,5.82,0,0,1-3.678,1.086,9.746,9.746,0,0,1-4.771-1.274V-6.3A12.679,12.679,0,0,0-144.17-5a5.734,5.734,0,0,0,2.17.41c1.292,0,1.941-.41,1.941-1.217a1.081,1.081,0,0,0-.393-.789,6.246,6.246,0,0,0-1.864-.9,18.113,18.113,0,0,1-2.351-.983,4.46,4.46,0,0,1-1.5-1.3,3.515,3.515,0,0,1-.625-2.156,3.294,3.294,0,0,1,1.37-2.753,5.921,5.921,0,0,1,3.676-1.044,11.247,11.247,0,0,1,4.476,1.021" transform="translate(146.79 15.737)" fill="#fff"/>
      </g>
      <g id="g682" transform="translate(108.898 20.522)">
        <path id="path684" d="M-42.763-52.281h3.882c-.15-1.3-.8-1.948-1.938-1.948q-1.735,0-1.943,1.948m6.2,2.727v1.77a6.556,6.556,0,0,1-3.987,1.173,5.448,5.448,0,0,1-3.767-1.262,4.287,4.287,0,0,1-1.414-3.35A4.533,4.533,0,0,1-44.4-54.587a4.6,4.6,0,0,1,3.381-1.32,4.469,4.469,0,0,1,3.385,1.388A4.9,4.9,0,0,1-36.4-50.8h-6.422a2.578,2.578,0,0,0,.864,1.873,3.133,3.133,0,0,0,2.084.656,5.636,5.636,0,0,0,3.313-1.281" transform="translate(45.73 55.908)" fill="#fff"/>
      </g>
      <g id="g686" transform="translate(119.893 20.523)">
        <path id="path688" d="M-40.6-2.734V-.175h.037q1.222-2.746,2.849-2.749a3.336,3.336,0,0,1,1.866.817L-36.626.38a3.447,3.447,0,0,0-1.667-.658,1.924,1.924,0,0,0-1.643,1.2A6.152,6.152,0,0,0-40.6,2.337V6.2H-43.42V-2.734Z" transform="translate(43.42 2.924)" fill="#fff"/>
      </g>
      <g id="g690" transform="translate(127.764 20.712)">
        <path id="path692" d="M-59.572-131.294-63.7-140.4h3.015l1.892,4.926,1.929-4.926h2.983L-58-131.294Z" transform="translate(63.704 140.401)" fill="#fff"/>
      </g>
      <path id="path694" d="M2073.549-2010.5h-2.817v-8.938h2.817Zm-2.966-11.846a1.5,1.5,0,0,1,.454-1.1,1.491,1.491,0,0,1,1.089-.452,1.506,1.506,0,0,1,1.1.452,1.5,1.5,0,0,1,.454,1.1,1.5,1.5,0,0,1-.454,1.1,1.5,1.5,0,0,1-1.1.461,1.482,1.482,0,0,1-1.089-.461,1.5,1.5,0,0,1-.454-1.1" transform="translate(-1932.152 2040.154)" fill="#fff"/>
      <g id="g696" transform="translate(142.98 20.524)">
        <path id="path698" d="M-118.2-96.361v2.018a8.952,8.952,0,0,1-3.02.592,5.441,5.441,0,0,1-3.767-1.262A4.28,4.28,0,0,1-126.4-98.36a4.39,4.39,0,0,1,1.426-3.362,5.148,5.148,0,0,1,3.629-1.323,8.668,8.668,0,0,1,3.013.588v2.091a5.012,5.012,0,0,0-2.292-.595,2.849,2.849,0,0,0-2.016.7,2.426,2.426,0,0,0-.756,1.878,2.567,2.567,0,0,0,.735,1.91,2.671,2.671,0,0,0,1.943.728,7.75,7.75,0,0,0,2.517-.618" transform="translate(126.397 103.045)" fill="#fff"/>
      </g>
      <path id="path700" d="M2293.562-2010.5h-2.814v-8.938h2.814Zm-2.966-11.846a1.515,1.515,0,0,1,.454-1.1,1.492,1.492,0,0,1,1.091-.452,1.5,1.5,0,0,1,1.1.452,1.5,1.5,0,0,1,.454,1.1,1.5,1.5,0,0,1-.454,1.1,1.491,1.491,0,0,1-1.1.461,1.483,1.483,0,0,1-1.091-.461,1.521,1.521,0,0,1-.454-1.1" transform="translate(-2137.893 2040.154)" fill="#fff"/>
      <g id="g702" transform="translate(157.225 20.522)">
        <path id="path704" d="M-72.9-110.064c1.344,0,2.016-1.018,2.016-3.046q0-2.911-2.016-2.91a1.741,1.741,0,0,0-1.51.768,3.748,3.748,0,0,0-.541,2.2q0,2.981,2.051,2.985m0-7.635a5.339,5.339,0,0,1,3.563,1.234,4.243,4.243,0,0,1,1.466,3.43,4.167,4.167,0,0,1-1.484,3.42A5.414,5.414,0,0,1-72.9-108.4a5.171,5.171,0,0,1-3.641-1.292,4.358,4.358,0,0,1-1.416-3.355,4.278,4.278,0,0,1,1.444-3.378A5.276,5.276,0,0,1-72.9-117.7" transform="translate(77.961 117.699)" fill="#fff"/>
      </g>
      <g id="g706" transform="translate(172.422 16.753)">
        <path id="path708" d="M-93.661-151.478v-4.163a2.667,2.667,0,0,0-1.531-.508,1.952,1.952,0,0,0-1.613.719,3.2,3.2,0,0,0-.574,2.023,3.018,3.018,0,0,0,.571,1.924,1.844,1.844,0,0,0,1.524.726,2.4,2.4,0,0,0,1.622-.721m2.744-10.507v12.9h-2.744v-.7a3.7,3.7,0,0,1-2.418.871,3.776,3.776,0,0,1-2.912-1.3,4.666,4.666,0,0,1-1.166-3.245,4.582,4.582,0,0,1,1.185-3.259,3.987,3.987,0,0,1,3.044-1.267,5.1,5.1,0,0,1,2.269.55v-4.549Z" transform="translate(100.158 161.985)" fill="#fff"/>
      </g>
      <g id="g710" transform="translate(182.901 20.751)">
        <path id="path712" d="M-41.683-50.965H-37.9c-.145-1.269-.775-1.9-1.889-1.9s-1.754.63-1.892,1.9m6.047,2.662v1.725a6.432,6.432,0,0,1-3.886,1.145A5.284,5.284,0,0,1-43.2-46.669a4.162,4.162,0,0,1-1.379-3.266,4.46,4.46,0,0,1,1.292-3.282,4.493,4.493,0,0,1,3.3-1.283,4.344,4.344,0,0,1,3.3,1.353,4.747,4.747,0,0,1,1.2,3.622H-41.74A2.507,2.507,0,0,0-40.9-47.7a3.034,3.034,0,0,0,2.03.639A5.5,5.5,0,0,0-35.636-48.3" transform="translate(44.575 54.5)" fill="#fff"/>
      </g>
      <path id="path714" d="M1443.014-1747.129h-3.374v-13.544h3.374Z" transform="translate(-1342.135 1794.002)" fill="#fff"/>
      <g id="g716" transform="translate(103.774 37.528)">
        <path id="path718" d="M-41.548-2.8v1.171A4.588,4.588,0,0,1-38.367-3a3.355,3.355,0,0,1,3.3,1.948A4.736,4.736,0,0,1-31.456-3a3.567,3.567,0,0,1,2.58.962,3.31,3.31,0,0,1,1,2.5V6.348h-2.877V.98A2.287,2.287,0,0,0-31.2-.526a1.519,1.519,0,0,0-1.245-.538A2.8,2.8,0,0,0-34.722.488v5.86h-2.87V.926a2.089,2.089,0,0,0-.48-1.477,1.652,1.652,0,0,0-1.274-.513A2.942,2.942,0,0,0-41.548.2V6.348H-44.43V-2.8Z" transform="translate(44.43 2.996)" fill="#fff"/>
      </g>
      <g id="g720" transform="translate(122.689 37.529)">
        <path id="path722" d="M-41.548-40.1v4.207a2.761,2.761,0,0,0,1.667.6,2.037,2.037,0,0,0,1.662-.754,3.123,3.123,0,0,0,.616-2.032A3.233,3.233,0,0,0-38.17-40.1a1.894,1.894,0,0,0-1.594-.728,2.89,2.89,0,0,0-1.784.735m0-2.587v.794a3.9,3.9,0,0,1,2.615-.988,3.93,3.93,0,0,1,3.018,1.349,4.72,4.72,0,0,1,1.229,3.308,4.986,4.986,0,0,1-1.236,3.535,4.256,4.256,0,0,1-3.273,1.33,4.631,4.631,0,0,1-2.353-.632v5.026H-44.43V-42.684Z" transform="translate(44.43 42.878)" fill="#fff"/>
      </g>
      <g id="g724" transform="translate(134.286 37.723)">
        <path id="path726" d="M-90.995-131.9v-1.309a3.8,3.8,0,0,1-2.959,1.487,3.3,3.3,0,0,1-2.423-.922,3.421,3.421,0,0,1-.929-2.547v-5.858h2.882v5.656c0,1.159.48,1.742,1.442,1.742a1.8,1.8,0,0,0,1.391-.639,1.792,1.792,0,0,0,.578-.932v-5.827h2.9v9.149Z" transform="translate(97.306 141.051)" fill="#fff"/>
      </g>
      <g id="g728" transform="translate(145.384 37.528)">
        <path id="path730" d="M-43.742-53.53h3.973c-.152-1.327-.817-2-1.985-2-1.185,0-1.847.672-1.988,2m6.347,2.793v1.814a6.73,6.73,0,0,1-4.076,1.2,5.573,5.573,0,0,1-3.863-1.295,4.392,4.392,0,0,1-1.442-3.432,4.646,4.646,0,0,1,1.356-3.446,4.7,4.7,0,0,1,3.465-1.349,4.566,4.566,0,0,1,3.463,1.421,5,5,0,0,1,1.264,3.8H-43.8a2.637,2.637,0,0,0,.88,1.92,3.206,3.206,0,0,0,2.133.67A5.768,5.768,0,0,0-37.4-50.737" transform="translate(46.776 57.243)" fill="#fff"/>
      </g>
      <g id="g732" transform="translate(156.424 37.528)">
        <path id="path734" d="M-97.2-9.788v2.046a5.933,5.933,0,0,0-3.051-1.014c-.691,0-1.039.241-1.039.712a.491.491,0,0,0,.22.363A9.994,9.994,0,0,0-99.4-6.92a4.86,4.86,0,0,1,2.053,1.334,2.615,2.615,0,0,1,.6,1.662,2.656,2.656,0,0,1-.972,2.2,4.346,4.346,0,0,1-2.763.775,7.655,7.655,0,0,1-3.278-.667V-3.64a7.676,7.676,0,0,0,2.957.775c.929,0,1.4-.227,1.4-.677a.663.663,0,0,0-.26-.494,8.091,8.091,0,0,0-1.73-.808,4.766,4.766,0,0,1-2.016-1.267,2.4,2.4,0,0,1-.541-1.531,2.443,2.443,0,0,1,1.039-2.039,4.428,4.428,0,0,1,2.749-.787,6.386,6.386,0,0,1,2.955.679" transform="translate(103.947 10.467)" fill="#fff"/>
      </g>
      <g id="g736" transform="translate(164.458 34.845)">
        <path id="path738" d="M-108.444-41.481v1.969h-3.331v3.772a1.491,1.491,0,0,0,.37,1.07,1.354,1.354,0,0,0,1.035.391,4.2,4.2,0,0,0,1.927-.531v2.086a6.958,6.958,0,0,1-2.662.571,3.688,3.688,0,0,1-2.622-.873,3.344,3.344,0,0,1-.929-2.559v-3.926h-1.309v-.564l3.828-4.282h.363v2.877Z" transform="translate(115.966 44.358)" fill="#fff"/>
      </g>
      <g id="g740" transform="translate(173.012 37.528)">
        <path id="path742" d="M-74.625-112.663q2.065,0,2.067-3.118c0-1.985-.691-2.983-2.067-2.983a1.805,1.805,0,0,0-1.548.789,3.869,3.869,0,0,0-.557,2.255q0,3.059,2.1,3.058m0-7.815a5.488,5.488,0,0,1,3.652,1.264,4.341,4.341,0,0,1,1.5,3.512A4.273,4.273,0,0,1-71-112.2a5.561,5.561,0,0,1-3.629,1.241,5.307,5.307,0,0,1-3.727-1.323,4.458,4.458,0,0,1-1.449-3.441,4.391,4.391,0,0,1,1.477-3.458,5.408,5.408,0,0,1,3.7-1.3" transform="translate(79.801 120.478)" fill="#fff"/>
      </g>
      <g id="g744" transform="translate(184.75 37.528)">
        <path id="path746" d="M-97.272-9.788v2.046a5.948,5.948,0,0,0-3.055-1.014c-.691,0-1.037.241-1.037.712a.488.488,0,0,0,.218.363,9.994,9.994,0,0,0,1.674.761,4.855,4.855,0,0,1,2.056,1.334,2.6,2.6,0,0,1,.6,1.662,2.653,2.653,0,0,1-.967,2.2,4.337,4.337,0,0,1-2.763.775,7.673,7.673,0,0,1-3.28-.667V-3.64a7.675,7.675,0,0,0,2.959.775c.929,0,1.4-.227,1.4-.677a.668.668,0,0,0-.258-.494,8.073,8.073,0,0,0-1.732-.808,4.77,4.77,0,0,1-2.013-1.267,2.407,2.407,0,0,1-.543-1.531,2.44,2.44,0,0,1,1.042-2.039,4.433,4.433,0,0,1,2.749-.787,6.4,6.4,0,0,1,2.957.679" transform="translate(104.02 10.467)" fill="#fff"/>
      </g>
      <path id="path748" d="M1443.014-1482.425h-3.374v-13.546h3.374Z" transform="translate(-1342.135 1546.471)" fill="#fff"/>
      <g id="g750" transform="translate(103.739 54.696)">
        <path id="path752" d="M-41.481-2.835v1.3a3.812,3.812,0,0,1,2.976-1.5,3.3,3.3,0,0,1,2.383.915,3.435,3.435,0,0,1,.955,2.61V6.316h-2.882V.737c0-1.227-.473-1.838-1.426-1.838q-1.011,0-2.006,1.512v5.9h-2.877V-2.835Z" transform="translate(44.358 3.032)" fill="#fff"/>
      </g>
      <g id="g754" transform="translate(114.251 52.015)">
        <path id="path756" d="M-108.478-41.481v1.969h-3.334v3.769a1.481,1.481,0,0,0,.375,1.075,1.351,1.351,0,0,0,1.03.391,4.272,4.272,0,0,0,1.929-.531v2.084a6.914,6.914,0,0,1-2.667.574,3.683,3.683,0,0,1-2.615-.873,3.355,3.355,0,0,1-.934-2.559v-3.928H-116v-.564l3.83-4.282h.361v2.877Z" transform="translate(116.002 44.358)" fill="#fff"/>
      </g>
      <g id="g758" transform="translate(122.818 54.696)">
        <path id="path760" d="M-43.776-53.6H-39.8q-.232-2-1.988-2-1.773,0-1.988,2m6.352,2.788v1.814a6.723,6.723,0,0,1-4.083,1.206,5.568,5.568,0,0,1-3.861-1.3,4.4,4.4,0,0,1-1.444-3.432,4.653,4.653,0,0,1,1.358-3.446,4.715,4.715,0,0,1,3.463-1.351,4.578,4.578,0,0,1,3.465,1.423,5,5,0,0,1,1.267,3.807h-6.572a2.608,2.608,0,0,0,.883,1.917,3.189,3.189,0,0,0,2.133.67,5.778,5.778,0,0,0,3.392-1.311" transform="translate(46.812 57.315)" fill="#fff"/>
      </g>
      <g id="g762" transform="translate(134.375 54.696)">
        <path id="path764" d="M-41.582-2.835V-.218h.035q1.254-2.813,2.919-2.814A3.425,3.425,0,0,1-36.72-2.2L-37.513.354a3.547,3.547,0,0,0-1.7-.679A1.975,1.975,0,0,0-40.9.915a6.228,6.228,0,0,0-.679,1.442V6.316h-2.884V-2.835Z" transform="translate(44.466 3.032)" fill="#fff"/>
      </g>
      <g id="g766" transform="translate(143.345 54.696)">
        <path id="path768" d="M-41.515-2.835v1.3a3.8,3.8,0,0,1,2.976-1.5,3.308,3.308,0,0,1,2.383.915A3.434,3.434,0,0,1-35.2.494V6.316h-2.88V.737c0-1.227-.473-1.838-1.426-1.838-.677,0-1.349.5-2.006,1.512v5.9h-2.88V-2.835Z" transform="translate(44.394 3.032)" fill="#fff"/>
      </g>
      <g id="g770" transform="translate(154.405 54.696)">
        <path id="path772" d="M-74.693-112.7c1.379,0,2.065-1.035,2.065-3.116,0-1.99-.686-2.98-2.065-2.98a1.793,1.793,0,0,0-1.548.784,3.861,3.861,0,0,0-.555,2.252c0,2.039.7,3.06,2.1,3.06m0-7.817a5.484,5.484,0,0,1,3.652,1.264,4.356,4.356,0,0,1,1.5,3.514,4.264,4.264,0,0,1-1.524,3.5,5.561,5.561,0,0,1-3.626,1.243,5.3,5.3,0,0,1-3.727-1.327,4.443,4.443,0,0,1-1.454-3.441,4.379,4.379,0,0,1,1.48-3.451,5.413,5.413,0,0,1,3.7-1.306" transform="translate(79.874 120.514)" fill="#fff"/>
      </g>
      <g id="g774" transform="translate(166.145 54.696)">
        <path id="path776" d="M-97.272-9.822v2.046a5.945,5.945,0,0,0-3.055-1.009q-1.036,0-1.037.707a.481.481,0,0,0,.22.363,9.673,9.673,0,0,0,1.674.759,4.892,4.892,0,0,1,2.053,1.337,2.6,2.6,0,0,1,.6,1.662,2.67,2.67,0,0,1-.969,2.2,4.348,4.348,0,0,1-2.765.777,7.611,7.611,0,0,1-3.275-.672V-3.676a7.6,7.6,0,0,0,2.957.777q1.394,0,1.4-.677a.672.672,0,0,0-.258-.494,8.191,8.191,0,0,0-1.735-.81,4.751,4.751,0,0,1-2.011-1.262,2.427,2.427,0,0,1-.543-1.533,2.442,2.442,0,0,1,1.042-2.039,4.451,4.451,0,0,1,2.751-.789,6.365,6.365,0,0,1,2.955.681" transform="translate(104.02 10.503)" fill="#fff"/>
      </g>
    </g>
  </g>
</svg>
