<svg id="Grupo_243" data-name="Grupo 243" xmlns="http://www.w3.org/2000/svg" xmlns:xlink="http://www.w3.org/1999/xlink" width="222" height="222" viewBox="0 0 222 222">
  <defs>
    <clipPath id="clip-path">
      <rect id="Rectángulo_255" data-name="Rectángulo 255" width="222" height="222" fill="none"/>
    </clipPath>
  </defs>
  <g id="Grupo_242" data-name="Grupo 242" clip-path="url(#clip-path)">
    <path id="Trazado_605" data-name="Trazado 605" d="M160.088,433.045a11.927,11.927,0,0,0,11.893-11.893v-6.293l-17,17a11.356,11.356,0,0,0,5.1,1.189" transform="translate(-84.767 -226.903)" fill="#0077be"/>
    <path id="Trazado_606" data-name="Trazado 606" d="M113.8,0H53.639a4.011,4.011,0,0,0-2.824,1.14l-38.454,38.5H113.8Z" transform="translate(-6.761)" fill="#0077be"/>
    <path id="Trazado_607" data-name="Trazado 607" d="M154.613,297.5h-5.55l-7.384,4.906a4.046,4.046,0,0,0-1.784,3.32v9.96l16.749-16.749Z" transform="translate(-76.515 -162.714)" fill="#0077be"/>
    <path id="Trazado_608" data-name="Trazado 608" d="M140,392.379a12,12,0,0,0,1.14,5.1l22.646-22.646V362.251L140,386.036Z" transform="translate(-76.571 -198.129)" fill="#0077be"/>
    <path id="Trazado_609" data-name="Trazado 609" d="M316.688,1.14A3.928,3.928,0,0,0,313.864,0H253.756V39.643H355.192Z" transform="translate(-138.789)" fill="#0077be"/>
    <path id="Trazado_610" data-name="Trazado 610" d="M165.429,145.446a4.039,4.039,0,0,0-2.18-3.568l-1.784-.892-1.784.892a3.928,3.928,0,0,0-2.18,3.568v58.522h7.929Z" transform="translate(-86.143 -77.111)" fill="#0077be"/>
    <path id="Trazado_611" data-name="Trazado 611" d="M289.551,143.645l-4.906-1.239v32.705l-15.857,10.555-15.857-10.555V142.406l-4.906,1.239A3.974,3.974,0,0,0,245,147.51v37.561a3.922,3.922,0,0,0,1.486,3.072l13.677,10.952a12.005,12.005,0,0,1,4.46,9.861L261.4,276.3a7.391,7.391,0,1,0,14.767.694V276.3l-3.221-67.343a11.867,11.867,0,0,1,4.46-9.861l13.677-10.952a3.922,3.922,0,0,0,1.486-3.072V147.51A3.974,3.974,0,0,0,289.551,143.645Z" transform="translate(-134.001 -77.887)" fill="#0077be"/>
    <path id="Trazado_612" data-name="Trazado 612" d="M0,105V275.464a3.976,3.976,0,0,0,3.964,3.964H218.036A3.976,3.976,0,0,0,222,275.464V105ZM95.143,251.679a19.821,19.821,0,0,1-39.643,0V200.442a11.946,11.946,0,0,1,5.3-9.911l2.626-1.734v-63.03a11.885,11.885,0,0,1,6.591-10.654l5.3-2.676,5.3,2.676a11.83,11.83,0,0,1,6.591,10.654V188.8l2.626,1.734a11.816,11.816,0,0,1,5.3,9.911ZM166.5,164.614a11.792,11.792,0,0,1-4.46,9.267l-13.677,10.951a4.014,4.014,0,0,0-1.486,3.271l3.221,67.343a15.3,15.3,0,0,1-30.574,1.437v-1.437l3.221-67.343a3.95,3.95,0,0,0-1.487-3.271l-13.726-10.9a11.792,11.792,0,0,1-4.46-9.266V127.1a11.921,11.921,0,0,1,9.019-11.546l14.767-3.716v38.651l7.929,5.3,7.929-5.3V111.84l14.767,3.716A11.921,11.921,0,0,1,166.5,127.1Z" transform="translate(0 -57.429)" fill="#0077be"/>
    <path id="Trazado_613" data-name="Trazado 613" d="M140,334.364V346.95l23.786-23.786V313.2a4.153,4.153,0,0,0-.545-2.031Z" transform="translate(-76.571 -170.193)" fill="#0077be"/>
  </g>
</svg>
