<svg id="Grupo_224" data-name="Grupo 224" xmlns="http://www.w3.org/2000/svg" xmlns:xlink="http://www.w3.org/1999/xlink" width="225.484" height="228.112" viewBox="0 0 225.484 228.112">
  <defs>
    <clipPath id="clip-path">
      <rect id="Rectángulo_252" data-name="Rectángulo 252" width="225.484" height="228.112" fill="none"/>
    </clipPath>
  </defs>
  <g id="Grupo_223" data-name="Grupo 223" clip-path="url(#clip-path)">
    <path id="Trazado_599" data-name="Trazado 599" d="M91.522,217.769H65.678v19.443a3.178,3.178,0,0,1-1.9,3.083,3.557,3.557,0,0,1-3.557,0l-8.3-5.453-8.3,5.453a4.288,4.288,0,0,1-3.794.236,3.7,3.7,0,0,1-1.9-3.083V218.005H12.092A12.142,12.142,0,0,0,0,230.1v68.049a12.142,12.142,0,0,0,12.092,12.092H91.758a12.142,12.142,0,0,0,12.092-12.092l0-68.286a12.51,12.51,0,0,0-12.33-12.092Z" transform="translate(0 -82.126)" fill="#0077be"/>
    <path id="Trazado_600" data-name="Trazado 600" d="M286.8,217.769H260.955v19.443a3.179,3.179,0,0,1-1.9,3.083,3.558,3.558,0,0,1-3.558,0l-8.3-5.453-8.3,5.453a4.288,4.288,0,0,1-3.794.236,3.7,3.7,0,0,1-1.9-3.083V218.005H207.37A12.142,12.142,0,0,0,195.278,230.1v68.049a12.142,12.142,0,0,0,12.092,12.092h79.666a12.142,12.142,0,0,0,12.092-12.092V229.86A12.507,12.507,0,0,0,286.8,217.768Z" transform="translate(-73.644 -82.126)" fill="#0077be"/>
    <path id="Trazado_601" data-name="Trazado 601" d="M114.3,155.746h79.666a12.142,12.142,0,0,0,12.092-12.092V75.605a12.143,12.143,0,0,0-12.092-12.092H168.121V82.956a3.179,3.179,0,0,1-1.9,3.083,2.258,2.258,0,0,1-1.659.473,4.449,4.449,0,0,1-1.9-.475l-8.536-5.453-8.3,5.453a4.292,4.292,0,0,1-3.794.236,3.7,3.7,0,0,1-1.9-3.083l0-19.678H114.3A12.142,12.142,0,0,0,102.208,75.6v68.049A12.14,12.14,0,0,0,114.3,155.746Z" transform="translate(-38.545 -23.952)" fill="#0077be"/>
    <path id="Trazado_602" data-name="Trazado 602" d="M293.986,46.078l24.245-24.245V33.564a6.393,6.393,0,0,0,12.786,0V12.786A12.785,12.785,0,0,0,318.23,0H297.454a6.393,6.393,0,1,0,0,12.785h11.731L284.94,37.032a6.4,6.4,0,1,0,9.045,9.045Z" transform="translate(-106.751 0)" fill="#0077be"/>
  </g>
</svg>
