<svg id="Grupo_220" data-name="Grupo 220" xmlns="http://www.w3.org/2000/svg" xmlns:xlink="http://www.w3.org/1999/xlink" width="221.235" height="222.538" viewBox="0 0 221.235 222.538">
  <defs>
    <clipPath id="clip-path">
      <rect id="Rectángulo_250" data-name="Rectángulo 250" width="221.235" height="222.538" fill="none"/>
    </clipPath>
  </defs>
  <g id="Grupo_219" data-name="Grupo 219" clip-path="url(#clip-path)">
    <path id="Trazado_592" data-name="Trazado 592" d="M203.537,258.039H17.7C20.109,274.1,1.124,275.692,0,262.464V107.6a8.849,8.849,0,1,1,17.7,0v53.1H203.537V107.6a8.849,8.849,0,0,1,17.7,0V262.464c-1.119,13.225-20.107,11.645-17.7-4.425m0-79.645H17.7V240.34H203.537Zm-53.1-70.8h39.822a4.425,4.425,0,0,1,4.425,4.425v35.4a4.425,4.425,0,0,1-4.425,4.425H150.44a4.425,4.425,0,0,1-4.425-4.425v-35.4a4.425,4.425,0,0,1,4.425-4.425M75.22,191.669v35.4a4.425,4.425,0,0,1-4.425,4.425H30.973a4.425,4.425,0,0,1-4.425-4.425v-35.4a4.425,4.425,0,0,1,4.425-4.425H70.8a4.425,4.425,0,0,1,4.425,4.425m57.521,0v35.4a4.425,4.425,0,0,1-4.425,4.425H88.494a4.425,4.425,0,0,1-4.425-4.425v-35.4a4.425,4.425,0,0,1,4.425-4.425h39.822a4.425,4.425,0,0,1,4.425,4.425" transform="translate(0 -48.814)" fill="#0077be"/>
    <path id="Trazado_593" data-name="Trazado 593" d="M188.1,0a8.57,8.57,0,0,0-5.716,2.86L156.656,37.567,135.424,21.643a6.2,6.2,0,0,0-5.309-1.225,7.755,7.755,0,0,0-4.492,2.86L99.9,57.575l-6.94-5.309a5.176,5.176,0,0,0-8.168,4.084L83.566,84.524a6.56,6.56,0,0,0,2.042,4.491,5.985,5.985,0,0,0,4.491.818l26.539-8.983c1.632-.818,3.267-2.042,3.267-4.084a4.681,4.681,0,0,0-2.042-4.9l-7.348-5.309,21.64-28.991,21.232,15.924a6.2,6.2,0,0,0,5.309,1.225,7.755,7.755,0,0,0,4.492-2.86l29.805-40.013c2.45-2.86,1.632-7.348-1.225-9.8C191.361.408,189.729,0,188.1,0Z" transform="translate(-41.308)" fill="#0077be"/>
  </g>
</svg>
