<svg xmlns="http://www.w3.org/2000/svg" xmlns:xlink="http://www.w3.org/1999/xlink" viewBox="0 0 78.7 106.57"><defs><style>.cls-1{fill:none;}.cls-2{fill:url(#Áåçûìÿííûé_ãðàäèåíò_131);}.cls-3{fill:url(#Áåçûìÿííûé_ãðàäèåíò_135);}.cls-4{isolation:isolate;}.cls-5{fill:url(#Áåçûìÿííûé_ãðàäèåíò_107);}.cls-6{fill:url(#Áåçûìÿííûé_ãðàäèåíò_107-2);}.cls-7{opacity:0.7;}.cls-8{fill:url(#Áåçûìÿííûé_ãðàäèåíò_107-3);}.cls-9{fill:url(#Áåçûìÿííûé_ãðàäèåíò_107-4);}.cls-10{clip-path:url(#clip-path);}.cls-11,.cls-12,.cls-13,.cls-14,.cls-15,.cls-16,.cls-17,.cls-19,.cls-20,.cls-21,.cls-22,.cls-23,.cls-24,.cls-25,.cls-29,.cls-30,.cls-31,.cls-32,.cls-33,.cls-34,.cls-37,.cls-38,.cls-39,.cls-43,.cls-44,.cls-45,.cls-47,.cls-50,.cls-51,.cls-53{mix-blend-mode:multiply;}.cls-11{fill:url(#Áåçûìÿííûé_ãðàäèåíò_109);}.cls-12{fill:url(#Áåçûìÿííûé_ãðàäèåíò_109-2);}.cls-13{fill:url(#Áåçûìÿííûé_ãðàäèåíò_109-3);}.cls-14{fill:url(#Áåçûìÿííûé_ãðàäèåíò_109-4);}.cls-15{fill:url(#Áåçûìÿííûé_ãðàäèåíò_109-5);}.cls-16{fill:url(#Áåçûìÿííûé_ãðàäèåíò_109-6);}.cls-17{fill:url(#Áåçûìÿííûé_ãðàäèåíò_109-7);}.cls-18{opacity:0.6;}.cls-19{fill:url(#Áåçûìÿííûé_ãðàäèåíò_109-8);}.cls-20{fill:url(#Áåçûìÿííûé_ãðàäèåíò_109-9);}.cls-21{fill:url(#Áåçûìÿííûé_ãðàäèåíò_109-10);}.cls-22{fill:url(#Áåçûìÿííûé_ãðàäèåíò_109-11);}.cls-23{fill:url(#Áåçûìÿííûé_ãðàäèåíò_109-12);}.cls-24{fill:url(#Áåçûìÿííûé_ãðàäèåíò_109-13);}.cls-25{fill:url(#Áåçûìÿííûé_ãðàäèåíò_109-14);}.cls-26{fill:url(#Áåçûìÿííûé_ãðàäèåíò_107-5);}.cls-27{clip-path:url(#clip-path-2);}.cls-28,.cls-54{opacity:0.2;}.cls-29{fill:url(#Áåçûìÿííûé_ãðàäèåíò_109-15);}.cls-30{fill:url(#Áåçûìÿííûé_ãðàäèåíò_109-16);}.cls-31{fill:url(#Áåçûìÿííûé_ãðàäèåíò_109-17);}.cls-32{fill:url(#Áåçûìÿííûé_ãðàäèåíò_109-18);}.cls-33{fill:url(#Áåçûìÿííûé_ãðàäèåíò_109-19);}.cls-34{fill:url(#Áåçûìÿííûé_ãðàäèåíò_109-20);}.cls-35{opacity:0.5;}.cls-36{clip-path:url(#clip-path-3);}.cls-37{fill:url(#Áåçûìÿííûé_ãðàäèåíò_109-21);}.cls-38{fill:url(#Áåçûìÿííûé_ãðàäèåíò_109-22);}.cls-39{fill:url(#Áåçûìÿííûé_ãðàäèåíò_109-23);}.cls-40{clip-path:url(#clip-path-4);}.cls-41{fill:url(#Áåçûìÿííûé_ãðàäèåíò_17);}.cls-42{fill:url(#Áåçûìÿííûé_ãðàäèåíò_18);}.cls-43,.cls-44,.cls-45,.cls-47,.cls-50,.cls-51,.cls-53,.cls-55{opacity:0.3;}.cls-43{fill:url(#Áåçûìÿííûé_ãðàäèåíò_113);}.cls-44{fill:url(#Áåçûìÿííûé_ãðàäèåíò_113-2);}.cls-45{fill:url(#Áåçûìÿííûé_ãðàäèåíò_113-3);}.cls-46{clip-path:url(#clip-path-5);}.cls-47{fill:url(#Áåçûìÿííûé_ãðàäèåíò_39);}.cls-48{opacity:0.8;}.cls-49{clip-path:url(#clip-path-6);}.cls-50{fill:url(#Áåçûìÿííûé_ãðàäèåíò_39-2);}.cls-51{fill:url(#Áåçûìÿííûé_ãðàäèåíò_113-4);}.cls-52{fill:url(#Áåçûìÿííûé_ãðàäèåíò_44);}.cls-53{fill:url(#Áåçûìÿííûé_ãðàäèåíò_42);}.cls-54,.cls-55{mix-blend-mode:screen;}.cls-54{fill:url(#Áåçûìÿííûé_ãðàäèåíò_46);}.cls-55{fill:url(#Áåçûìÿííûé_ãðàäèåíò_46-2);}.cls-56{fill:#fff;}.cls-57{clip-path:url(#clip-path-7);}</style><linearGradient id="Áåçûìÿííûé_ãðàäèåíò_131" x1="-362.13" y1="-607.65" x2="-272.56" y2="-607.65" gradientTransform="translate(26.95 714.02) rotate(28.14)" gradientUnits="userSpaceOnUse"><stop offset="0" stop-color="#f1cdd7"/><stop offset="0.07" stop-color="#efc0cc"/><stop offset="0.24" stop-color="#e9a4b6"/><stop offset="0.39" stop-color="#e693a9"/><stop offset="0.5" stop-color="#e58da4"/><stop offset="0.61" stop-color="#e693a9"/><stop offset="0.77" stop-color="#eaa6b8"/><stop offset="0.95" stop-color="#efc3cf"/><stop offset="1" stop-color="#f1cdd7"/></linearGradient><linearGradient id="Áåçûìÿííûé_ãðàäèåíò_135" x1="-344.26" y1="-599.85" x2="-297.57" y2="-599.85" gradientTransform="translate(26.95 714.02) rotate(28.14)" gradientUnits="userSpaceOnUse"><stop offset="0" stop-color="#eaadbe"/><stop offset="1" stop-color="#eec0cc"/></linearGradient><linearGradient id="Áåçûìÿííûé_ãðàäèåíò_107" x1="-1408.63" y1="-419.62" x2="-1400.13" y2="-419.62" gradientTransform="matrix(-1, -0.1, -0.1, 1, -1390.39, 340.95)" gradientUnits="userSpaceOnUse"><stop offset="0" stop-color="#eaadbe"/><stop offset="1" stop-color="#f2d2db"/></linearGradient><linearGradient id="Áåçûìÿííûé_ãðàäèåíò_107-2" x1="-584.85" y1="-419.42" x2="-576.35" y2="-419.42" gradientTransform="translate(557.28 535.44) rotate(5.71)" xlink:href="#Áåçûìÿííûé_ãðàäèåíò_107"/><linearGradient id="Áåçûìÿííûé_ãðàäèåíò_107-3" x1="-603.05" y1="-453.84" x2="-594.84" y2="-453.84" gradientTransform="translate(534.13 615.2) rotate(10.38)" xlink:href="#Áåçûìÿííûé_ãðàäèåíò_107"/><linearGradient id="Áåçûìÿííûé_ãðàäèåíò_107-4" x1="-1423.69" y1="-387.38" x2="-1415.48" y2="-387.38" gradientTransform="matrix(-1, -0.02, -0.02, 1, -1383.66, 424.1)" xlink:href="#Áåçûìÿííûé_ãðàäèåíò_107"/><clipPath id="clip-path"><path id="SVGID" class="cls-2" d="M75.68,10.89c-6.41-8.53-21.32-7.45-35.61,1.73C28.06.62,13.72-3.61,5.64,3.37-3.83,11.55-1.1,32,11.74,49.12c.77,1,1.56,2,2.37,3,6.22,7.36,13.39,14.19,19.79,18,7.28-2.5,15.53-7.55,23.17-13.43,1-.76,2-1.56,2.94-2.39C76.18,40.33,83.2,20.89,75.68,10.89Z"/></clipPath><radialGradient id="Áåçûìÿííûé_ãðàäèåíò_109" cx="-8285.61" cy="-7723.96" r="12.22" gradientTransform="translate(10240.12 11775.09) rotate(6.13) scale(1.37)" gradientUnits="userSpaceOnUse"><stop offset="0.12" stop-color="#d7a0af"/><stop offset="0.26" stop-color="#e2bbc5"/><stop offset="0.46" stop-color="#efd8df"/><stop offset="0.65" stop-color="#f8eef1"/><stop offset="0.83" stop-color="#fdfbfb"/><stop offset="1" stop-color="#fff"/></radialGradient><radialGradient id="Áåçûìÿííûé_ãðàäèåíò_109-2" cx="-8285.61" cy="-7716.08" r="12.22" gradientTransform="translate(2670.28 15351.4) rotate(37.37) scale(1.37)" xlink:href="#Áåçûìÿííûé_ãðàäèåíò_109"/><radialGradient id="Áåçûìÿííûé_ãðàäèåíò_109-3" cx="-8286.57" cy="-7708.92" r="12.22" xlink:href="#Áåçûìÿííûé_ãðàäèåíò_109"/><radialGradient id="Áåçûìÿííûé_ãðàäèåíò_109-4" cx="-8288.36" cy="-7703.86" r="12.22" gradientTransform="translate(-1037.08 15541.11) rotate(51.13) scale(1.37)" xlink:href="#Áåçûìÿííûé_ãðàäèåíò_109"/><radialGradient id="Áåçûìÿííûé_ãðàäèåíò_109-5" cx="-8291.58" cy="-7697.81" r="12.22" gradientTransform="translate(-1033.12 15547.12) rotate(51.13) scale(1.37)" xlink:href="#Áåçûìÿííûé_ãðàäèåíò_109"/><radialGradient id="Áåçûìÿííûé_ãðàäèåíò_109-6" cx="-8297.84" cy="-7695.73" r="12.22" xlink:href="#Áåçûìÿííûé_ãðàäèåíò_109"/><radialGradient id="Áåçûìÿííûé_ãðàäèåíò_109-7" cx="-8300.58" cy="-7690.53" r="12.22" gradientTransform="translate(-3971.83 15069.68) rotate(62.14) scale(1.37)" xlink:href="#Áåçûìÿííûé_ãðàäèåíò_109"/><radialGradient id="Áåçûìÿííûé_ãðàäèåíò_109-8" cx="6091.04" cy="-7722.7" r="10.95" gradientTransform="matrix(-1.36, -0.15, -0.15, 1.36, 7200.59, 11449.49)" xlink:href="#Áåçûìÿííûé_ãðàäèåíò_109"/><radialGradient id="Áåçûìÿííûé_ãðàäèåíò_109-9" cx="6091.04" cy="-7715.64" r="10.95" gradientTransform="matrix(-1.36, -0.15, -0.15, 1.36, 7200.59, 11449.49)" xlink:href="#Áåçûìÿííûé_ãðàäèåíò_109"/><radialGradient id="Áåçûìÿííûé_ãðàäèåíò_109-10" cx="6090.18" cy="-7709.22" r="10.95" gradientTransform="matrix(-1.36, -0.15, -0.15, 1.36, 7200.59, 11449.49)" xlink:href="#Áåçûìÿííûé_ãðàäèåíò_109"/><radialGradient id="Áåçûìÿííûé_ãðàäèåíò_109-11" cx="6088.57" cy="-7704.69" r="10.95" gradientTransform="matrix(-1.36, -0.15, -0.15, 1.36, 7200.59, 11449.49)" xlink:href="#Áåçûìÿííûé_ãðàäèåíò_109"/><radialGradient id="Áåçûìÿííûé_ãðàäèåíò_109-12" cx="6085.69" cy="-7699.27" r="10.95" gradientTransform="matrix(-0.97, -0.97, -0.97, 0.97, -1544.05, 13430.02)" xlink:href="#Áåçûìÿííûé_ãðàäèåíò_109"/><radialGradient id="Áåçûìÿííûé_ãðàäèåíò_109-13" cx="6080.08" cy="-7697.4" r="10.95" gradientTransform="matrix(-1.36, -0.15, -0.15, 1.36, 7200.59, 11449.49)" xlink:href="#Áåçûìÿííûé_ãðàäèåíò_109"/><radialGradient id="Áåçûìÿííûé_ãðàäèåíò_109-14" cx="6077.62" cy="-7692.74" r="10.95" gradientTransform="matrix(-0.97, -0.97, -0.97, 0.97, -1535.49, 13425.94)" xlink:href="#Áåçûìÿííûé_ãðàäèåíò_109"/><linearGradient id="Áåçûìÿííûé_ãðàäèåíò_107-5" x1="-8322.05" y1="-7708.92" x2="-8282.15" y2="-7708.92" gradientTransform="translate(10240.12 11775.09) rotate(6.13) scale(1.37)" xlink:href="#Áåçûìÿííûé_ãðàäèåíò_107"/><clipPath id="clip-path-2"><path id="SVGID-2" data-name="SVGID" class="cls-3" d="M33.89,70.13c-4.46-3.76-9.12-10.2-13.23-17.33-.53-.93-1.05-1.89-1.55-2.88C10.7,33.3,9.45,13,16.33,4.52c5.86-7.22,15.75-3.47,23.74,8.1Z"/></clipPath><radialGradient id="Áåçûìÿííûé_ãðàäèåíò_109-15" cx="4437.19" cy="-4845.38" r="10.78" gradientTransform="matrix(0, -1.78, -2.17, 0, -10497.45, 7932.3)" xlink:href="#Áåçûìÿííûé_ãðàäèåíò_109"/><radialGradient id="Áåçûìÿííûé_ãðàäèåíò_109-16" cx="4437.19" cy="-4850.76" r="10.78" gradientTransform="matrix(0, -1.78, -2.17, 0, -10507.9, 7920.67)" xlink:href="#Áåçûìÿííûé_ãðàäèåíò_109"/><radialGradient id="Áåçûìÿííûé_ãðàäèåíò_109-17" cx="4438.35" cy="-4669.48" r="8.55" gradientTransform="matrix(0, -1.78, -2.26, 0, -10531.7, 7901.97)" xlink:href="#Áåçûìÿííûé_ãðàäèåíò_109"/><radialGradient id="Áåçûìÿííûé_ãðàäèåíò_109-18" cx="4440.78" cy="-4671.51" r="10.13" gradientTransform="matrix(0, -1.78, -2.26, 0, -10540.09, 7901.27)" xlink:href="#Áåçûìÿííûé_ãðàäèåíò_109"/><radialGradient id="Áåçûìÿííûé_ãðàäèåíò_109-19" cx="4438.35" cy="-4654.52" r="27.9" gradientTransform="matrix(0, -1.78, -2.26, 0, -10501.44, 7935.65)" xlink:href="#Áåçûìÿííûé_ãðàäèåíò_109"/><radialGradient id="Áåçûìÿííûé_ãðàäèåíò_109-20" cx="4437.19" cy="-4840.95" r="10.78" gradientTransform="matrix(0, -1.78, -2.17, 0, -10488.83, 7941.89)" xlink:href="#Áåçûìÿííûé_ãðàäèåíò_109"/><clipPath id="clip-path-3"><path id="SVGID-3" data-name="SVGID" class="cls-1" d="M33.9,70.13C39.06,67.4,45,62.1,50.51,56c.71-.79,1.42-1.62,2.13-2.48C64.39,39.07,69.92,19.47,65,9.74,60.79,1.45,50.34,3,40.07,12.62Z"/></clipPath><radialGradient id="Áåçûìÿííûé_ãðàäèåíò_109-21" cx="-6666.82" cy="-4845.05" r="10.78" gradientTransform="matrix(0, 1.78, -2.17, 0, -10501.09, 11894.99)" xlink:href="#Áåçûìÿííûé_ãðàäèåíò_109"/><radialGradient id="Áåçûìÿííûé_ãðàäèåíò_109-22" cx="-6666.82" cy="-4850.43" r="10.78" gradientTransform="matrix(0, 1.78, -2.17, 0, -10511.53, 11883.37)" xlink:href="#Áåçûìÿííûé_ãðàäèåíò_109"/><radialGradient id="Áåçûìÿííûé_ãðàäèåíò_109-23" cx="-6666.82" cy="-4840.61" r="10.78" gradientTransform="matrix(0, 1.78, -2.17, 0, -10492.46, 11904.59)" xlink:href="#Áåçûìÿííûé_ãðàäèåíò_109"/><clipPath id="clip-path-4"><path id="SVGID-4" data-name="SVGID" class="cls-1" d="M43.86,99.05l-.11-7.89-.07-5.8a5.18,5.18,0,0,0,1,.09c.86,0,.69-.27.55-.49l-.76-1.25-.77-1.25a.8.8,0,0,0-.34-.14c-.19,0-.44-.08-.72-.11l-9.51-.95-9.51-1a4.74,4.74,0,0,0-.72,0,.78.78,0,0,0-.37.06l-1,1.08-1,1.08c-.17.18-.38.36.45.58a5.43,5.43,0,0,0,1,.12l-1.22,5.67-1.67,7.71c-.29,1.36-.6,2.63.14,3.65,1.37,2.67,4.05,5.5,11.4,6.23,6.32.64,10.48-1.54,12.3-3.86C43.93,101.74,43.87,100.44,43.86,99.05Z"/></clipPath><linearGradient id="Áåçûìÿííûé_ãðàäèåíò_17" x1="-1390.71" y1="-374.81" x2="-1390.71" y2="-382.66" gradientTransform="matrix(-1, -0.1, -0.1, 1, -1390.39, 340.95)" gradientUnits="userSpaceOnUse"><stop offset="0" stop-color="#e8a1b4"/><stop offset="1" stop-color="#f2d2db"/></linearGradient><linearGradient id="Áåçûìÿííûé_ãðàäèåíò_18" x1="-1390.69" y1="-382.88" x2="-1390.69" y2="-398.96" gradientTransform="matrix(-1, -0.1, -0.1, 1, -1390.39, 340.95)" gradientUnits="userSpaceOnUse"><stop offset="0" stop-color="#f2d2db"/><stop offset="1" stop-color="#eaadbe"/></linearGradient><radialGradient id="Áåçûìÿííûé_ãðàäèåíò_113" cx="-10488.66" cy="-6202.34" r="6.27" gradientTransform="matrix(0.19, -1.32, -0.69, -0.37, -2205.7, -16089.75)" gradientUnits="userSpaceOnUse"><stop offset="0" stop-color="#c693a1"/><stop offset="0.01" stop-color="#c795a3"/><stop offset="0.12" stop-color="#d8b6bf"/><stop offset="0.25" stop-color="#e6d0d6"/><stop offset="0.38" stop-color="#f1e5e8"/><stop offset="0.53" stop-color="#f9f4f5"/><stop offset="0.71" stop-color="#fefcfd"/><stop offset="1" stop-color="#fff"/></radialGradient><radialGradient id="Áåçûìÿííûé_ãðàäèåíò_113-2" cx="-10492.57" cy="-6203.22" r="6.27" gradientTransform="matrix(0.19, -1.32, -0.69, -0.37, -2200.06, -16094.95)" xlink:href="#Áåçûìÿííûé_ãðàäèåíò_113"/><radialGradient id="Áåçûìÿííûé_ãðàäèåíò_113-3" cx="-10496.11" cy="-6203.74" r="6.27" gradientTransform="matrix(0.19, -1.32, -0.69, -0.37, -2194.87, -16099.37)" xlink:href="#Áåçûìÿííûé_ãðàäèåíò_113"/><clipPath id="clip-path-5"><rect id="SVGID-5" data-name="SVGID" class="cls-1" x="19.33" y="81.33" width="7.53" height="14.77" transform="matrix(0.99, 0.14, -0.14, 0.99, 12.23, -2.31)"/></clipPath><radialGradient id="Áåçûìÿííûé_ãðàäèåíò_39" cx="-10771.26" cy="-8369.13" r="10.96" gradientTransform="matrix(0.97, -0.18, -0.53, -0.33, 6020.58, -4553.95)" gradientUnits="userSpaceOnUse"><stop offset="0" stop-color="#d46884"/><stop offset="0.01" stop-color="#d66e89"/><stop offset="0.11" stop-color="#e194a8"/><stop offset="0.21" stop-color="#eab5c3"/><stop offset="0.33" stop-color="#f2d0d9"/><stop offset="0.45" stop-color="#f8e5ea"/><stop offset="0.58" stop-color="#fcf4f6"/><stop offset="0.74" stop-color="#fefcfd"/><stop offset="1" stop-color="#fff"/></radialGradient><clipPath id="clip-path-6"><rect id="SVGID-6" data-name="SVGID" class="cls-1" x="20.84" y="81.37" width="8.97" height="17.59" transform="translate(12.44 -2.6) rotate(7.78)"/></clipPath><radialGradient id="Áåçûìÿííûé_ãðàäèåíò_39-2" cx="-10774.1" cy="-8374.96" r="13.06" gradientTransform="matrix(0.97, -0.18, -0.53, -0.33, 6022.67, -4556.3)" xlink:href="#Áåçûìÿííûé_ãðàäèåíò_39"/><radialGradient id="Áåçûìÿííûé_ãðàäèåíò_113-4" cx="-10409.18" cy="-6379.43" r="4.57" gradientTransform="matrix(0.19, -1.32, -0.69, -0.37, -2328.62, -16048.95)" xlink:href="#Áåçûìÿííûé_ãðàäèåíò_113"/><linearGradient id="Áåçûìÿííûé_ãðàäèåíò_44" x1="-292.94" y1="-560.8" x2="-291.87" y2="-558.22" gradientTransform="translate(26.95 714.02) rotate(28.14)" gradientUnits="userSpaceOnUse"><stop offset="0" stop-color="#f6e1e7"/><stop offset="0.7" stop-color="#e89fb2"/><stop offset="0.83" stop-color="#e9a5b7"/><stop offset="1" stop-color="#ecb8c6"/><stop offset="1" stop-color="#ecb8c6"/></linearGradient><radialGradient id="Áåçûìÿííûé_ãðàäèåíò_42" cx="-1333.59" cy="-776.36" r="14.08" gradientTransform="matrix(0, 0.94, -1, 0, -756.92, 1350.05)" gradientUnits="userSpaceOnUse"><stop offset="0" stop-color="#d7879c"/><stop offset="0.04" stop-color="#dc95a7"/><stop offset="0.15" stop-color="#e6b5c2"/><stop offset="0.27" stop-color="#efd0d8"/><stop offset="0.4" stop-color="#f6e5ea"/><stop offset="0.55" stop-color="#fbf4f6"/><stop offset="0.72" stop-color="#fefcfd"/><stop offset="1" stop-color="#fff"/></radialGradient><linearGradient id="Áåçûìÿííûé_ãðàäèåíò_46" x1="387.62" y1="-202.16" x2="387.62" y2="-210.85" gradientTransform="matrix(0.64, 0, 0, 1, -204.64, 300.5)" gradientUnits="userSpaceOnUse"><stop offset="0"/><stop offset="1" stop-color="#eaadbe"/></linearGradient><linearGradient id="Áåçûìÿííûé_ãðàäèåíò_46-2" x1="-1500.24" y1="-838.83" x2="-1500.24" y2="-847.52" gradientTransform="matrix(-0.06, 0.64, -1, -0.09, -886.03, 962.36)" xlink:href="#Áåçûìÿííûé_ãðàäèåíò_46"/><clipPath id="clip-path-7"><rect class="cls-1" x="-1320.76" y="775.49" width="1898.1" height="867.58"/></clipPath></defs><g class="cls-4"><g id="OBJECTS"><path class="cls-5" d="M42.81,82.52a.29.29,0,0,0,.31-.21L54.9,44.08a.3.3,0,0,0-.19-.37.31.31,0,0,0-.37.2L42.56,82.14a.29.29,0,0,0,.2.36Z"/><path class="cls-6" d="M23.25,80.56h.06a.3.3,0,0,0,.26-.32l-4-39.81a.29.29,0,0,0-.58.06L23,80.3A.28.28,0,0,0,23.25,80.56Z"/><g class="cls-7"><path class="cls-8" d="M27.09,81.06h0a.15.15,0,0,0,.15-.15l-.73-40a.15.15,0,1,0-.29,0l.73,40A.14.14,0,0,0,27.09,81.06Z"/></g><g class="cls-7"><path class="cls-9" d="M38.41,82.19a.14.14,0,0,0,.15-.12L47.19,43a.15.15,0,0,0-.11-.18.14.14,0,0,0-.17.11L38.28,82a.13.13,0,0,0,.11.17Z"/></g><path id="SVGID-7" data-name="SVGID" class="cls-2" d="M75.68,10.89c-6.41-8.53-21.32-7.45-35.61,1.73C28.06.62,13.72-3.61,5.64,3.37-3.83,11.55-1.1,32,11.74,49.12c.77,1,1.56,2,2.37,3,6.22,7.36,13.39,14.19,19.79,18,7.28-2.5,15.53-7.55,23.17-13.43,1-.76,2-1.56,2.94-2.39C76.18,40.33,83.2,20.89,75.68,10.89Z"/><g class="cls-10"><circle class="cls-11" cx="62.23" cy="18.27" r="16.78"/><circle class="cls-12" cx="61.08" cy="29.03" r="16.78" transform="matrix(0.85, -0.52, 0.52, 0.85, -6.2, 35.9)"/><circle class="cls-13" cx="58.73" cy="38.67" r="16.78"/><circle class="cls-14" cx="55.54" cy="45.31" r="16.78" transform="translate(-15.78 52.54) rotate(-45)"/><circle class="cls-15" cx="50.25" cy="53.1" r="16.78" transform="translate(-22.83 51.09) rotate(-45)"/><circle class="cls-16" cx="41.41" cy="55.03" r="16.78"/><circle class="cls-17" cx="36.9" cy="61.72" r="16.78" transform="matrix(0.56, -0.83, 0.83, 0.56, -34.9, 57.81)"/><g class="cls-18"><circle class="cls-19" cx="18.02" cy="15.93" r="15.04"/><circle class="cls-20" cx="16.99" cy="25.57" r="15.04"/><circle class="cls-21" cx="17.21" cy="34.46" r="15.04"/><circle class="cls-22" cx="18.74" cy="40.88" r="15.04"/><circle class="cls-23" cx="21.89" cy="48.7" r="15.04" transform="translate(-25.71 24.52) rotate(-38.87)"/><circle class="cls-24" cx="29.26" cy="52.07" r="15.04"/><circle class="cls-25" cx="31.94" cy="58.79" r="15.04" transform="translate(-29.82 33.06) rotate(-38.87)"/></g></g><path class="cls-26" d="M65,9.74C60.79,1.45,50.34,3,40.07,12.62c-8-11.57-17.88-15.32-23.74-8.1C9.45,13,10.7,33.3,19.11,49.92c.5,1,1,1.95,1.55,2.88,4.11,7.13,8.89,13.71,13.24,17.33C39.06,67.4,45,62.1,50.51,56c.71-.79,1.42-1.62,2.13-2.48C64.39,39.07,69.92,19.47,65,9.74Z"/><path id="SVGID-8" data-name="SVGID" class="cls-3" d="M33.89,70.13c-4.46-3.76-9.12-10.2-13.23-17.33-.53-.93-1.05-1.89-1.55-2.88C10.7,33.3,9.45,13,16.33,4.52c5.86-7.22,15.75-3.47,23.74,8.1Z"/><g class="cls-27"><g class="cls-28"><ellipse class="cls-29" cx="38.85" cy="45.05" rx="23.43" ry="19.15" transform="translate(-10.09 78.87) rotate(-83.87)"/><ellipse class="cls-30" cx="40.1" cy="33.42" rx="23.43" ry="19.15" transform="translate(2.59 69.72) rotate(-83.87)"/><ellipse class="cls-31" cx="40.04" cy="12.92" rx="19.37" ry="15.2" transform="matrix(0.11, -0.99, 0.99, 0.11, 22.92, 51.35)"/><ellipse class="cls-32" cx="36.24" cy="7.89" rx="22.94" ry="18.01" transform="translate(24.52 43.08) rotate(-83.87)"/><ellipse class="cls-33" cx="36.42" cy="46.59" rx="63.16" ry="49.59" transform="translate(-13.79 77.83) rotate(-83.87)"/><ellipse class="cls-34" cx="37.82" cy="54.64" rx="23.43" ry="19.15" transform="translate(-20.55 86.41) rotate(-83.87)"/></g></g><g class="cls-35"><g class="cls-36"><g class="cls-28"><ellipse class="cls-37" cx="34.38" cy="44.57" rx="23.43" ry="19.15" transform="translate(-13.6 74) rotate(-83.87)"/><ellipse class="cls-38" cx="35.63" cy="32.94" rx="23.43" ry="19.15" transform="translate(-0.92 64.85) rotate(-83.87)"/><ellipse class="cls-39" cx="33.35" cy="54.16" rx="23.43" ry="19.15" transform="translate(-24.06 81.54) rotate(-83.87)"/></g></g></g><g class="cls-40"><path class="cls-41" d="M43,102.6c1.86-2.35-4.39-6.44-11.2-7.13S18,97.79,19.29,100.23c1.37,2.67,4.05,5.5,11.4,6.23C37,107.1,41.17,104.92,43,102.6Z"/><path class="cls-42" d="M31.35,99.37c8.5.85,10.71,4.09,11.64,3.23s.88-2.16.87-3.55l-.11-7.89-.1-7.89a1,1,0,0,0-.29-.71,1.07,1.07,0,0,0-.69-.35l-9.51-.95-9.51-1a1.08,1.08,0,0,0-1.17.85l-1.66,7.71-1.67,7.71c-.29,1.36-.6,2.63.14,3.65S23,98.54,31.35,99.37Z"/><ellipse class="cls-43" cx="24.72" cy="82.45" rx="4.49" ry="8.6" transform="translate(-58.29 105.22) rotate(-88.66)"/><ellipse class="cls-44" cx="30.19" cy="82.73" rx="4.49" ry="8.6" transform="translate(-53.22 110.98) rotate(-88.66)"/><ellipse class="cls-45" cx="35.06" cy="83.18" rx="4.49" ry="8.6" transform="translate(-48.92 116.28) rotate(-88.66)"/><g class="cls-46"><ellipse class="cls-47" cx="24.09" cy="81.4" rx="12.05" ry="4.06" transform="translate(-60.07 92.47) rotate(-81.01)"/></g><g class="cls-48"><g class="cls-49"><ellipse class="cls-50" cx="26.52" cy="81.45" rx="14.35" ry="4.84" transform="translate(-58.08 94.91) rotate(-81.01)"/></g></g><ellipse class="cls-51" cx="38.97" cy="83.75" rx="3.27" ry="6.27" transform="translate(-50.69 105.96) rotate(-78.96)"/><path class="cls-52" d="M32.89,84c8.5.85,11,1.55,11.82,1.49s.69-.27.55-.49l-.76-1.25-.77-1.25a.8.8,0,0,0-.34-.14c-.19,0-.44-.08-.72-.11l-9.51-.95-9.51-1a4.74,4.74,0,0,0-.72,0,.78.78,0,0,0-.37.06l-1,1.08-1,1.08c-.17.18-.38.36.45.58S24.52,83.13,32.89,84Z"/><ellipse class="cls-53" cx="19.48" cy="100.57" rx="14.08" ry="13.19" transform="translate(-13.84 3.7) rotate(-8.02)"/><path class="cls-54" d="M43,94c0,3-.21,5.52-.48,5.52S42,97,42,94s.21-5.52.49-5.52S43,90.93,43,94Z"/><path class="cls-55" d="M38.36,82.92c-3-.27-5.48-.71-5.46-1s2.51-.28,5.55,0,5.48.72,5.45,1S41.39,83.2,38.36,82.92Z"/></g><path class="cls-56" d="M35.91,88.69c-1-1.12-3-.35-4.08.46-.76-1-2.58-2.2-3.8-1.54-1.06.58-1.13,2.27-.55,3.94A11.15,11.15,0,0,0,30.89,96a11,11,0,0,0,4.49-3.41C36.43,91.2,36.71,89.59,35.91,88.69Z"/></g></g></svg>