<svg id="Componente_18_2" data-name="Componente 18 – 2" xmlns="http://www.w3.org/2000/svg" width="100" height="100" viewBox="0 0 100 100">
  <text id="_50_" data-name="50%" transform="translate(84.878 61.07)" fill="#0077be" font-size="32" font-family="Montserrat-Bold, Montserrat" font-weight="700"><tspan x="-68" y="0">50%</tspan></text>
  <g id="Grupo_1019" data-name="Grupo 1019">
    <g id="Trazado_1371" data-name="Trazado 1371" fill="none" stroke-dasharray="157.5 1000">
      <path d="M50,0A50,50,0,1,1,0,50,50,50,0,0,1,50,0Z" stroke="none"/>
      <path d="M 50 0 C 77.61422729492188 0 100 22.38577270507812 100 50 C 100 77.61422729492188 77.61422729492188 100 50 100 L 50 90 C 72.05606842041016 90 90 72.05606842041016 90 50 C 90 27.94393157958984 72.05606842041016 10 50 10 L 50 0 C 50 0 50 0 50 0 Z" stroke="none" fill="#0077be"/>
    </g>
    <g id="Grupo_1018" data-name="Grupo 1018" transform="translate(9 72)">
      <rect id="Rectángulo_679" data-name="Rectángulo 679" width="6" height="21" transform="translate(7)" fill="#0077be"/>
      <rect id="Rectángulo_680" data-name="Rectángulo 680" width="6" height="21" transform="translate(0 14) rotate(-90)" fill="#0077be"/>
    </g>
  </g>
</svg>
