<svg id="Grupo_2" data-name="Grupo 2" xmlns="http://www.w3.org/2000/svg" xmlns:xlink="http://www.w3.org/1999/xlink" width="216.763" height="50.757" viewBox="0 0 216.763 50.757">
  <defs>
    <clipPath id="clip-path">
      <rect id="Rectángulo_1" data-name="Rectángulo 1" width="216.763" height="50.757" fill="none"/>
    </clipPath>
  </defs>
  <g id="Grupo_1" data-name="Grupo 1" clip-path="url(#clip-path)">
    <path id="Trazado_1" data-name="Trazado 1" d="M258.29,62.067a.813.813,0,0,1,.2-.587.719.719,0,0,1,.489-.231h17.028a.779.779,0,0,1,.614.231.9.9,0,0,1,.2.621v4.4a.926.926,0,0,1-.213.577.741.741,0,0,1-.623.275H265.176v5.516h7.989a.878.878,0,0,1,.569.187.722.722,0,0,1,.231.6V77.9a.958.958,0,0,1-.2.578.66.66,0,0,1-.56.276h-8.025v8.149q0,.765-.818.765h-5.427a.672.672,0,0,1-.641-.747Z" transform="translate(-192.273 -45.594)" fill="#4277ba"/>
    <path id="Trazado_2" data-name="Trazado 2" d="M359.941,85.208q-.347.9-.685,1.806a.891.891,0,0,1-.908.658H353.1a.867.867,0,0,1-.561-.178.42.42,0,0,1-.08-.534l9.662-25.018a.524.524,0,0,1,.116-.231,1.323,1.323,0,0,1,.543-.4.836.836,0,0,1,.3-.062h4.555a.757.757,0,0,1,.516.187,2.284,2.284,0,0,1,.32.329l.445,1.014,9.341,24.093a.524.524,0,0,1-.053.578.865.865,0,0,1-.676.222h-5.107a1.115,1.115,0,0,1-.632-.151.975.975,0,0,1-.347-.507q-.356-.908-.694-1.806t-.676-1.806l-1.993-5.712-2.722-8.132q-.338.907-.685,1.957t-.685,2.117q-.338,1.068-.685,2.109Z" transform="translate(-262.331 -45.594)" fill="#4277ba"/>
    <path id="Trazado_3" data-name="Trazado 3" d="M494.022,58.507a1.115,1.115,0,0,1,.576.282.735.735,0,0,1,.181.654l-1.365,5.041a.7.7,0,0,1-.274.469.785.785,0,0,1-.562.043,6.792,6.792,0,0,0-2.153-.3,6.885,6.885,0,0,0-2.212.426A6.444,6.444,0,0,0,484.4,68.71a6.989,6.989,0,0,0-.538,2.582,7.5,7.5,0,0,0,.469,2.745,7.424,7.424,0,0,0,1.4,2.4,6.906,6.906,0,0,0,2.065,1.615,6.481,6.481,0,0,0,5.217.288,6.918,6.918,0,0,0,3.455-2.734.82.82,0,0,1,.447-.333.728.728,0,0,1,.511.155L501.79,78.5a.7.7,0,0,1,.276.6,1.144,1.144,0,0,1-.266.57,14.123,14.123,0,0,1-2.792,2.863A13.332,13.332,0,0,1,495.4,84.5a13.459,13.459,0,0,1-7.087.61,13.785,13.785,0,0,1-6.246-2.906,13.294,13.294,0,0,1-2.4-2.575,13.653,13.653,0,0,1-2.3-10.334,13.784,13.784,0,0,1,1.052-3.327,13.265,13.265,0,0,1,1.856-2.939,13.959,13.959,0,0,1,2.583-2.4,13.784,13.784,0,0,1,7.226-2.517,13.844,13.844,0,0,1,3.94.393" transform="translate(-355.191 -43.25)" fill="#4277ba"/>
    <path id="Trazado_4" data-name="Trazado 4" d="M598.018,62.03a.721.721,0,0,1,.24-.568.866.866,0,0,1,.6-.213H618a.9.9,0,0,1,.569.2.8.8,0,0,1,.285.586v4.417a1,1,0,0,1-.222.612.747.747,0,0,1-.632.293h-6.139V86.836a.848.848,0,0,1-.231.579.77.77,0,0,1-.6.258H605.81a.836.836,0,0,1-.568-.241.772.772,0,0,1-.266-.6V67.352h-6.121a.827.827,0,0,1-.6-.23.892.892,0,0,1-.24-.675Z" transform="translate(-445.168 -45.594)" fill="#4277ba"/>
    <path id="Trazado_5" data-name="Trazado 5" d="M708.985,73.347a13.516,13.516,0,0,1,1.852-6.877,13.772,13.772,0,0,1,2.128-2.767,13.283,13.283,0,0,1,2.751-2.127,13.972,13.972,0,0,1,3.25-1.37,13.623,13.623,0,0,1,7.238,0,13.929,13.929,0,0,1,3.258,1.37,13.517,13.517,0,0,1,4.888,4.893,14.124,14.124,0,0,1,1.371,3.256,13.641,13.641,0,0,1,0,7.242,13.777,13.777,0,0,1-1.371,3.238,13.377,13.377,0,0,1-2.128,2.74,13.9,13.9,0,0,1-2.76,2.126,13.418,13.418,0,0,1-3.258,1.37,13.586,13.586,0,0,1-13.238-3.5,13.765,13.765,0,0,1-2.128-2.74,13.28,13.28,0,0,1-1.371-3.238,13.5,13.5,0,0,1-.48-3.621m6.886-.018a7.547,7.547,0,0,0,.5,2.758,6.8,6.8,0,0,0,1.4,2.233,6.5,6.5,0,0,0,2.123,1.495,7.016,7.016,0,0,0,5.411,0,6.474,6.474,0,0,0,2.132-1.495,6.812,6.812,0,0,0,1.4-2.233,7.867,7.867,0,0,0,0-5.507,6.9,6.9,0,0,0-1.4-2.251,6.63,6.63,0,0,0-9.667,0,6.886,6.886,0,0,0-1.4,2.251,7.57,7.57,0,0,0-.5,2.749" transform="translate(-527.773 -44.454)" fill="#4277ba"/>
    <path id="Trazado_6" data-name="Trazado 6" d="M815.115,32.462l-9.675,2.057a.68.68,0,0,0-.074,1.309l4.768,1.591a.679.679,0,0,1,.427.422l1.533,4.436a.679.679,0,0,0,1.3-.038l2.52-8.929a.68.68,0,0,0-.8-.849" transform="translate(-599.173 -24.154)" fill="#c41d3c"/>
    <path id="Trazado_7" data-name="Trazado 7" d="M19.2,96.819c-1.676.106-3.352.255-5.035.262l-.937,0a25.492,25.492,0,0,0,5.22,6.377.351.351,0,0,0,.282.083C41.2,100.22,50.7,85.362,53.507,79.8a.335.335,0,0,0-.544-.381c-4.132,4.5-16.539,16.3-33.762,17.4" transform="translate(-9.847 -59.04)" fill="#77b438"/>
    <path id="Trazado_8" data-name="Trazado 8" d="M117.342,60.452c-.007-.016-.012-.033-.018-.049l0,0a.207.207,0,0,0-.4.094,27.881,27.881,0,0,1-.293,4.347,30.851,30.851,0,0,1-1.851,6.873c-3.752,9.533-12.126,18.074-22.613,23.557a.156.156,0,0,0,.065.3c.006,0,.01.005.017,0l.021,0c.547.035,1.1.06,1.654.06a25.389,25.389,0,0,0,23.416-35.178" transform="translate(-68.548 -44.872)" fill="#4277ba"/>
    <path id="Trazado_9" data-name="Trazado 9" d="M46.493,4.483a.479.479,0,0,0-.929-.176C41.773,14.672,23.549,29.833.253,24.749h0v0A25.618,25.618,0,0,0,0,28.347a25.351,25.351,0,0,0,1.347,8.181v-.011l0,.011a39.773,39.773,0,0,0,5.7-.082C39.687,33.134,46.737,10.915,46.493,4.483" transform="translate(0 -2.968)" fill="#77b438"/>
    <path id="Trazado_10" data-name="Trazado 10" d="M29.628,0A25.385,25.385,0,0,0,5.708,16.892a39.047,39.047,0,0,0,5.577.806,19.788,19.788,0,0,1,27.721-9.68,29.987,29.987,0,0,0,3.85-4.3A25.26,25.26,0,0,0,29.628,0" transform="translate(-4.249)" fill="#4277ba"/>
  </g>
</svg>
