<svg id="Grupo_332" data-name="Grupo 332" xmlns="http://www.w3.org/2000/svg" xmlns:xlink="http://www.w3.org/1999/xlink" width="620.28" height="308.077" viewBox="0 0 620.28 308.077">
  <defs>
    <clipPath id="clip-path">
      <rect id="Rectángulo_148" data-name="Rectángulo 148" width="620.28" height="308.077" fill="none"/>
    </clipPath>
    <clipPath id="clip-path-2">
      <rect id="Rectángulo_147" data-name="Rectángulo 147" width="620.281" height="308.078" fill="none"/>
    </clipPath>
    <clipPath id="clip-path-3">
      <rect id="Rectángulo_119" data-name="Rectángulo 119" width="1.43" height="0.043" fill="none"/>
    </clipPath>
    <clipPath id="clip-path-4">
      <rect id="Rectángulo_120" data-name="Rectángulo 120" width="0.659" height="0.02" fill="none"/>
    </clipPath>
    <clipPath id="clip-path-5">
      <rect id="Rectángulo_121" data-name="Rectángulo 121" width="29.024" height="41.739" fill="none"/>
    </clipPath>
    <clipPath id="clip-path-6">
      <rect id="Rectángulo_122" data-name="Rectángulo 122" width="0.015" height="0.001" fill="none"/>
    </clipPath>
    <clipPath id="clip-path-7">
      <rect id="Rectángulo_123" data-name="Rectángulo 123" width="62.303" height="41.772" fill="none"/>
    </clipPath>
    <clipPath id="clip-path-8">
      <rect id="Rectángulo_124" data-name="Rectángulo 124" width="9.703" height="28.998" fill="none"/>
    </clipPath>
    <clipPath id="clip-path-9">
      <rect id="Rectángulo_125" data-name="Rectángulo 125" width="47.64" height="21.835" fill="none"/>
    </clipPath>
    <clipPath id="clip-path-10">
      <rect id="Rectángulo_126" data-name="Rectángulo 126" width="27.497" height="29.859" fill="none"/>
    </clipPath>
    <clipPath id="clip-path-11">
      <rect id="Rectángulo_127" data-name="Rectángulo 127" width="0.081" height="0.408" fill="none"/>
    </clipPath>
    <clipPath id="clip-path-12">
      <rect id="Rectángulo_128" data-name="Rectángulo 128" width="0.003" height="0.02" fill="none"/>
    </clipPath>
    <clipPath id="clip-path-13">
      <rect id="Rectángulo_129" data-name="Rectángulo 129" width="0.216" height="1.094" fill="none"/>
    </clipPath>
    <clipPath id="clip-path-14">
      <rect id="Rectángulo_130" data-name="Rectángulo 130" width="0.109" height="0.547" fill="none"/>
    </clipPath>
    <clipPath id="clip-path-15">
      <rect id="Rectángulo_131" data-name="Rectángulo 131" width="57.409" height="30.559" fill="none"/>
    </clipPath>
    <clipPath id="clip-path-16">
      <rect id="Rectángulo_132" data-name="Rectángulo 132" width="7.678" height="3.733" fill="none"/>
    </clipPath>
    <clipPath id="clip-path-17">
      <rect id="Rectángulo_133" data-name="Rectángulo 133" width="7.678" height="3.734" fill="none"/>
    </clipPath>
    <clipPath id="clip-path-18">
      <rect id="Rectángulo_134" data-name="Rectángulo 134" width="31.073" height="41.74" fill="none"/>
    </clipPath>
    <clipPath id="clip-path-19">
      <rect id="Rectángulo_135" data-name="Rectángulo 135" width="15.847" height="19.492" fill="none"/>
    </clipPath>
    <clipPath id="clip-path-20">
      <rect id="Rectángulo_136" data-name="Rectángulo 136" width="57.164" height="41.534" fill="none"/>
    </clipPath>
    <clipPath id="clip-path-21">
      <rect id="Rectángulo_137" data-name="Rectángulo 137" width="0.081" height="0.411" fill="none"/>
    </clipPath>
    <clipPath id="clip-path-22">
      <rect id="Rectángulo_138" data-name="Rectángulo 138" width="47.653" height="21.884" fill="none"/>
    </clipPath>
    <clipPath id="clip-path-23">
      <rect id="Rectángulo_139" data-name="Rectángulo 139" width="0.116" height="0.585" fill="none"/>
    </clipPath>
    <clipPath id="clip-path-24">
      <rect id="Rectángulo_140" data-name="Rectángulo 140" width="0.009" height="0.047" fill="none"/>
    </clipPath>
    <clipPath id="clip-path-25">
      <rect id="Rectángulo_141" data-name="Rectángulo 141" width="0.202" height="1.02" fill="none"/>
    </clipPath>
    <clipPath id="clip-path-26">
      <rect id="Rectángulo_142" data-name="Rectángulo 142" width="14.911" height="31.91" fill="none"/>
    </clipPath>
    <clipPath id="clip-path-27">
      <rect id="Rectángulo_143" data-name="Rectángulo 143" width="29.656" height="7.228" fill="none"/>
    </clipPath>
    <clipPath id="clip-path-28">
      <rect id="Rectángulo_144" data-name="Rectángulo 144" width="53.393" height="28.974" fill="none"/>
    </clipPath>
    <clipPath id="clip-path-29">
      <rect id="Rectángulo_145" data-name="Rectángulo 145" width="7.46" height="3.623" fill="none"/>
    </clipPath>
  </defs>
  <g id="Grupo_330" data-name="Grupo 330" clip-path="url(#clip-path)">
    <g id="Grupo_329" data-name="Grupo 329" transform="translate(0 0)">
      <g id="Grupo_328" data-name="Grupo 328" clip-path="url(#clip-path-2)">
        <path id="Trazado_300" data-name="Trazado 300" d="M710.388,565.285s72.2-110.128-4.452-140.248c-19.308-7.587-26.043-113.8-111.806-60.7-34.107,21.12-83.217-4.438-130.248,9.532-43.192,12.83-44.185,49.838-38.724,63.16,5.967,14.558-17.829,31.963-42.2,43.916-38.227,18.751-10.117,84.648,26,84.963s301.433-.627,301.433-.627" transform="translate(-271.908 -260.612)" fill="#eaeaea"/>
        <path id="Trazado_301" data-name="Trazado 301" d="M543.486,895.67s3.087-40.649-20.561-27.184-33.922,50.95-44.2,28.825l-7.8-16.8c-2.658-5.724-9.8-6.9-13.789-2.183-1.611,1.9-2.954,4.761-3.64,9-2.632,16.292-10.631,59.871-25.546,44.33s-58.05-7.837-61.544,19.262h179Z" transform="translate(-273.196 -645.511)" fill="#d5d6da"/>
        <path id="Trazado_302" data-name="Trazado 302" d="M1714.546,904.49s25.53-15.356,21.171-30.781-26.152-1.571-21.171-14.756,22.387-22.184,17.42-37.812L1727,805.515s-38.605-27.776-51.37,78.8v19.915Z" transform="translate(-1249.361 -598.166)" fill="#d5d6da"/>
        <path id="Trazado_303" data-name="Trazado 303" d="M697.026,1201.848H276.617a.653.653,0,1,1,0-1.306H697.026a.653.653,0,1,1,0,1.306" transform="translate(-205.758 -895.133)" fill="#131f2d"/>
        <path id="Trazado_304" data-name="Trazado 304" d="M904.528,200.1H814.651a16.737,16.737,0,0,0,0,33.474h74.069l10.19,9.286v-9.286h5.617a16.737,16.737,0,1,0,0-33.474" transform="translate(-594.931 -149.196)" fill="#4e69ff"/>
        <path id="Trazado_305" data-name="Trazado 305" d="M856.8,229.305a5.306,5.306,0,1,0-6.774,0,9.834,9.834,0,0,0-6.453,9.229c0,5.435,19.68,5.435,19.68,0a9.835,9.835,0,0,0-6.453-9.229" transform="translate(-628.973 -163.97)" fill="#9cce4a"/>
        <path id="Trazado_306" data-name="Trazado 306" d="M1031.174,232.47h-64.4a.512.512,0,1,1,0-1.024h64.4a.512.512,0,0,1,0,1.024" transform="translate(-720.451 -172.567)" fill="#fff"/>
        <path id="Trazado_307" data-name="Trazado 307" d="M1021.183,291.872H966.773a.512.512,0,0,1,0-1.024h54.411a.512.512,0,0,1,0,1.024" transform="translate(-720.451 -216.858)" fill="#fff"/>
        <path id="Trazado_308" data-name="Trazado 308" d="M1006.366,264.051H966.773a.512.512,0,0,1,0-1.024h39.593a.512.512,0,1,1,0,1.024" transform="translate(-720.451 -196.114)" fill="#fff"/>
        <path id="Trazado_309" data-name="Trazado 309" d="M1161.691,264.051H1141.82a.512.512,0,1,1,0-1.024h19.871a.512.512,0,0,1,0,1.024" transform="translate(-850.968 -196.114)" fill="#fff"/>
        <path id="Trazado_310" data-name="Trazado 310" d="M891.473,253.091a1.53,1.53,0,0,1-1.086-.45l-3.857-3.857a1.535,1.535,0,1,1,2.171-2.171l2.772,2.772,7.447-7.447a1.535,1.535,0,0,1,2.171,2.171l-8.532,8.532a1.531,1.531,0,0,1-1.086.45" transform="translate(-660.668 -180.055)" fill="#fff"/>
        <path id="Trazado_311" data-name="Trazado 311" d="M1235.594,0h92.211a17.172,17.172,0,0,1,0,34.344h-75.993l-10.455,9.527V34.342h-5.763a17.172,17.172,0,0,1,0-34.344" transform="translate(-908.465 0.002)" fill="#c1c1c1"/>
        <path id="Trazado_312" data-name="Trazado 312" d="M1601.521,30.057a5.306,5.306,0,1,0-6.774,0,9.834,9.834,0,0,0-6.453,9.229c0,5.435,19.68,5.435,19.68,0a9.835,9.835,0,0,0-6.453-9.229" transform="translate(-1184.244 -15.41)" fill="#4e69ff"/>
        <path id="Trazado_313" data-name="Trazado 313" d="M1645.972,60.27h-2.542V57.728a.5.5,0,0,0-.5-.5h-2.319a.5.5,0,0,0-.5.5V60.27h-2.542a.5.5,0,0,0-.5.5v2.319a.5.5,0,0,0,.5.5h2.542v2.542a.5.5,0,0,0,.5.5h2.319a.5.5,0,0,0,.5-.5V63.587h2.542a.5.5,0,0,0,.5-.5V60.768a.5.5,0,0,0-.5-.5" transform="translate(-1220.614 -42.67)" fill="#fff"/>
        <path id="Trazado_314" data-name="Trazado 314" d="M1366.38,37.246h-64.4a.512.512,0,1,1,0-1.024h64.4a.512.512,0,1,1,0,1.024" transform="translate(-970.384 -27.007)" fill="#fff"/>
        <path id="Trazado_315" data-name="Trazado 315" d="M1356.388,96.648h-54.409a.512.512,0,1,1,0-1.024h54.409a.512.512,0,1,1,0,1.024" transform="translate(-970.384 -71.297)" fill="#fff"/>
        <path id="Trazado_316" data-name="Trazado 316" d="M1341.57,68.827h-39.593a.512.512,0,1,1,0-1.024h39.593a.512.512,0,1,1,0,1.024" transform="translate(-970.383 -50.554)" fill="#fff"/>
        <path id="Trazado_317" data-name="Trazado 317" d="M1496.894,68.827h-19.871a.512.512,0,0,1,0-1.024h19.871a.512.512,0,1,1,0,1.024" transform="translate(-1100.898 -50.554)" fill="#fff"/>
        <path id="Trazado_318" data-name="Trazado 318" d="M1524.042,298.442l.034-.117,14.82-51.558-.063-.048a18.52,18.52,0,0,1,5.929-6.569,17.159,17.159,0,0,0,6.839-11.321c3.263-3.158,6.94-5.852,10.271-8.937a2.364,2.364,0,0,0,.811-1.137,1.985,1.985,0,0,0-.422-1.481c-1.719-2.547-4.879-2.916-7.507-1.739a18.309,18.309,0,0,0-4.206,2.748,20.862,20.862,0,0,0-3.334,2.852L1559,195.962c1.047-2.235.362-4.786-1.522-5.668a3.5,3.5,0,0,0-2.978.061,4.736,4.736,0,0,0-1.64,1.306l.057-.293c-13.807-11.611-30.844,27.908-30.844,27.908l-4.836,11.409-41.008,76.034a22.091,22.091,0,0,0,9.874,30.135h0c.161.079.324.148.486.222a22.271,22.271,0,0,0,11.169,2.989h80.7l17.391-41.332Zm22.993-76.93Z" transform="translate(-1098.794 -141.092)" fill="#fec29e"/>
        <g id="Grupo_246" data-name="Grupo 246" transform="translate(409.997 198.909)" opacity="0.17">
          <g id="Grupo_245" data-name="Grupo 245">
            <g id="Grupo_244" data-name="Grupo 244" clip-path="url(#clip-path-3)">
              <path id="Trazado_319" data-name="Trazado 319" d="M1613.1,781.938h0" transform="translate(-1611.666 -781.894)" fill="#ff887c"/>
            </g>
          </g>
        </g>
        <g id="Grupo_249" data-name="Grupo 249" transform="translate(411.442 198.953)" opacity="0.17">
          <g id="Grupo_248" data-name="Grupo 248">
            <g id="Grupo_247" data-name="Grupo 247" clip-path="url(#clip-path-4)">
              <path id="Trazado_320" data-name="Trazado 320" d="M1617.346,782.067l.661.02-.661-.02" transform="translate(-1617.347 -782.067)" fill="#ff887c"/>
            </g>
          </g>
        </g>
        <g id="Grupo_252" data-name="Grupo 252" transform="translate(412.101 157.233)" opacity="0.17">
          <g id="Grupo_251" data-name="Grupo 251">
            <g id="Grupo_250" data-name="Grupo 250" clip-path="url(#clip-path-5)">
              <path id="Trazado_321" data-name="Trazado 321" d="M1633.124,618.071l-2.348,8.169c-.61,2.267-1.316,4.7-2.066,7.186l-2.838,9.872a22.238,22.238,0,0,1-1.471,3.6c-2.443,7.308-4.458,12.911-4.458,12.911l29.024-41.558c-7.219,0-8.876-.173-15.844-.181" transform="translate(-1619.943 -618.071)" fill="#ff887c"/>
            </g>
          </g>
        </g>
        <g id="Grupo_255" data-name="Grupo 255" transform="translate(411.427 198.952)" opacity="0.17">
          <g id="Grupo_254" data-name="Grupo 254">
            <g id="Grupo_253" data-name="Grupo 253" clip-path="url(#clip-path-6)">
              <path id="Trazado_322" data-name="Trazado 322" d="M1617.29,782.065h0" transform="translate(-1617.29 -782.065)" fill="#ff887c"/>
            </g>
          </g>
        </g>
        <path id="Trazado_323" data-name="Trazado 323" d="M1716.187,309.974a.512.512,0,0,1-.412-.816,9.379,9.379,0,0,1,12.144-3.173.512.512,0,0,1-.5.893c-.252-.14-6.213-3.359-10.819,2.888a.51.51,0,0,1-.412.208" transform="translate(-1279.22 -227.36)" fill="#fb8e77"/>
        <path id="Trazado_324" data-name="Trazado 324" d="M1755.836,196.926a78.129,78.129,0,0,0-5.862,8.433,38.205,38.205,0,0,0-2.329,4.537,11.162,11.162,0,0,0-1.1,4.765l0,.032a.512.512,0,1,1-1.022.055s0-.009,0-.012a11.986,11.986,0,0,1,1.271-5.2,38.989,38.989,0,0,1,2.476-4.6,78.845,78.845,0,0,1,6.091-8.4.305.305,0,0,1,.474.384Z" transform="translate(-1301.477 -146.456)" fill="#fb8e77"/>
        <path id="Trazado_325" data-name="Trazado 325" d="M1738.7,190.908a19.28,19.28,0,0,0-3.648,3.44,30.578,30.578,0,0,0-2.9,4.149,36.627,36.627,0,0,0-2.214,4.56c-.334.776-.584,1.588-.88,2.379l-.734,2.43-.009.03a.512.512,0,1,1-.98-.3l0-.009.8-2.471c.318-.806.59-1.629.947-2.419a37.438,37.438,0,0,1,2.356-4.628,31.33,31.33,0,0,1,3.055-4.2,19.8,19.8,0,0,1,3.874-3.506.317.317,0,0,1,.355.526Z" transform="translate(-1287.902 -141.898)" fill="#fb8e77"/>
        <path id="Trazado_326" data-name="Trazado 326" d="M1721.451,192.7a49.736,49.736,0,0,0-5.36,6.623,28.339,28.339,0,0,0-2.112,3.666,14.947,14.947,0,0,0-1.292,3.931l0,.012a.512.512,0,1,1-1.011-.16l0-.012a15.9,15.9,0,0,1,1.479-4.175,29.25,29.25,0,0,1,2.269-3.722,50.4,50.4,0,0,1,5.609-6.59.3.3,0,0,1,.427.417Z" transform="translate(-1276.232 -143.294)" fill="#fb8e77"/>
        <path id="Trazado_327" data-name="Trazado 327" d="M1921.467,693.166l-19.8-53.964c-2.356-11.841-13.621-20.818-27.174-20.818l-55.3-.44-62.3.237v41.534h19.335l-9.979,108.329,137.191.776-.769-73.355Z" transform="translate(-1309.953 -460.743)" fill="#4e69ff"/>
        <g id="Grupo_258" data-name="Grupo 258" transform="translate(446.94 157.201)" opacity="0.05">
          <g id="Grupo_257" data-name="Grupo 257">
            <g id="Grupo_256" data-name="Grupo 256" clip-path="url(#clip-path-7)">
              <path id="Trazado_328" data-name="Trazado 328" d="M1819.089,618.406l.108-.462-62.3.237v41.534h19.335l.1-1.1c0-21.92,19.057-39.733,42.759-40.213" transform="translate(-1756.893 -617.944)" fill="#1b1b25"/>
            </g>
          </g>
        </g>
        <g id="Grupo_261" data-name="Grupo 261" transform="translate(430.399 97.56)" opacity="0.18">
          <g id="Grupo_260" data-name="Grupo 260">
            <g id="Grupo_259" data-name="Grupo 259" clip-path="url(#clip-path-8)">
              <path id="Trazado_329" data-name="Trazado 329" d="M1691.872,383.5s3.5,29.7,3.7,28.985,6-20.87,6-20.87Z" transform="translate(-1691.871 -383.501)" fill="#ff887c"/>
            </g>
          </g>
        </g>
        <path id="Trazado_330" data-name="Trazado 330" d="M1900.657,827.088l-5.236-26.388-4.039-20.359a4.452,4.452,0,0,0-5.219-3.49l-20.223,4.012a4.453,4.453,0,0,0-3.49,5.218l4.066,20.492,3.225,16.253,1.985,10a4.452,4.452,0,0,0,5.219,3.49l11.944-2.37,8.279-1.642a4.453,4.453,0,0,0,3.49-5.218" transform="translate(-1388.594 -579.162)" fill="#1b1b25"/>
        <path id="Trazado_331" data-name="Trazado 331" d="M2010.835,921.559l-9.12-39.71-41.463,5.073,2.277,10.1-.21-.052-45.073-11.158-.039.055a15.1,15.1,0,0,1-5.636-5.18,13.493,13.493,0,0,0-10.128-5.8c-1.223-1.281-2.363-2.651-3.49-4.032l1.056,5.322-.264.14a17.078,17.078,0,0,1-9.331,1.939l-19.818-1.547a3.016,3.016,0,0,0-2.965,1.686c-5.8,12.194,19.106,23.35,24.79,25.708h0l.2.082.232.1.217.088.181.073.17.067.065.026.085.033,9.748,3.654,77.168,37.984a22.38,22.38,0,0,0,2.173.9,19.249,19.249,0,0,0,12.37,1.278,22.382,22.382,0,0,0,16.8-26.824" transform="translate(-1391.126 -649.313)" fill="#fec29e"/>
        <g id="Grupo_264" data-name="Grupo 264" transform="translate(569.127 237.609)" opacity="0.17">
          <g id="Grupo_263" data-name="Grupo 263">
            <g id="Grupo_262" data-name="Grupo 262" clip-path="url(#clip-path-9)">
              <path id="Trazado_332" data-name="Trazado 332" d="M2284.838,955.858,2237.2,934.023c1.591,6.928.665,3.871,2.066,10.049l3.241.8c13.72.926,42.334,10.984,42.334,10.984" transform="translate(-2237.197 -934.023)" fill="#ff887c"/>
            </g>
          </g>
        </g>
        <g id="Grupo_267" data-name="Grupo 267" transform="translate(558.811 208.262)" opacity="0.35">
          <g id="Grupo_266" data-name="Grupo 266">
            <g id="Grupo_265" data-name="Grupo 265" clip-path="url(#clip-path-10)">
              <path id="Trazado_333" data-name="Trazado 333" d="M2203.118,848.52a.511.511,0,0,1-.5-.408l-5.953-28.834a.512.512,0,0,1,1-.208l5.858,28.37,20.048-2.551a.512.512,0,1,1,.13,1.016l-20.519,2.611a.48.48,0,0,1-.066,0" transform="translate(-2196.653 -818.661)" fill="#1b1b25"/>
            </g>
          </g>
        </g>
        <g id="Grupo_270" data-name="Grupo 270" transform="translate(617.093 261.085)" opacity="0.17">
          <g id="Grupo_269" data-name="Grupo 269">
            <g id="Grupo_268" data-name="Grupo 268" clip-path="url(#clip-path-11)">
              <path id="Trazado_334" data-name="Trazado 334" d="M2425.75,1026.307l.081.408c-.008-.042-.034-.171-.081-.408" transform="translate(-2425.75 -1026.307)" fill="#ff887c"/>
            </g>
          </g>
        </g>
        <g id="Grupo_273" data-name="Grupo 273" transform="translate(617.174 261.493)" opacity="0.17">
          <g id="Grupo_272" data-name="Grupo 272">
            <g id="Grupo_271" data-name="Grupo 271" clip-path="url(#clip-path-12)">
              <path id="Trazado_335" data-name="Trazado 335" d="M2426.068,1027.911h0" transform="translate(-2426.069 -1027.911)" fill="#ff887c"/>
            </g>
          </g>
        </g>
        <g id="Grupo_276" data-name="Grupo 276" transform="translate(616.767 259.444)" opacity="0.17">
          <g id="Grupo_275" data-name="Grupo 275">
            <g id="Grupo_274" data-name="Grupo 274" clip-path="url(#clip-path-13)">
              <path id="Trazado_336" data-name="Trazado 336" d="M2424.474,1019.856l.217,1.094c-.058-.291-.126-.636-.217-1.094" transform="translate(-2424.473 -1019.856)" fill="#ff887c"/>
            </g>
          </g>
        </g>
        <g id="Grupo_279" data-name="Grupo 279" transform="translate(616.983 260.538)" opacity="0.17">
          <g id="Grupo_278" data-name="Grupo 278">
            <g id="Grupo_277" data-name="Grupo 277" clip-path="url(#clip-path-14)">
              <path id="Trazado_337" data-name="Trazado 337" d="M2425.325,1024.155c.044.222.081.408.108.547-.032-.162-.07-.351-.108-.547" transform="translate(-2425.324 -1024.155)" fill="#ff887c"/>
            </g>
          </g>
        </g>
        <path id="Trazado_338" data-name="Trazado 338" d="M1986.42,144.719a16.308,16.308,0,0,0-24.378-11.756,14.361,14.361,0,0,0-22.276-2.852,18.957,18.957,0,0,0-21.013,31.181l-3.855,20.594a10.89,10.89,0,0,0,8.7,12.708l45.679,8.551a10.89,10.89,0,0,0,12.708-8.7l7.483-39.976a10.878,10.878,0,0,0-3.048-9.749" transform="translate(-1425.839 -93.987)" fill="#1b1b25"/>
        <path id="Trazado_339" data-name="Trazado 339" d="M1931.926,180.352a.513.513,0,0,1-.433-.238c-8.159-12.913,3.079-21.192,3.194-21.274a.512.512,0,0,1,.6.831c-.435.313-10.562,7.81-2.925,19.9a.511.511,0,0,1-.433.785" transform="translate(-1437.923 -118.359)" fill="#fcf0e3"/>
        <path id="Trazado_340" data-name="Trazado 340" d="M1982.545,286.315l-1-.187-10.083-21.673a16.323,16.323,0,0,1-6.823-2.638,12.279,12.279,0,0,1-17.335.728,18.939,18.939,0,0,1-22.895,1.614l-7.024,37.521a20.67,20.67,0,0,0,2.6,14.462,20.992,20.992,0,0,0,14.771,12.613v24.778a15.7,15.7,0,0,0,15.649,15.65h4.937a15.7,15.7,0,0,0,15.65-15.65V325.4a20.908,20.908,0,0,0,5.12-10.258l1.283-6.851,1,.187a11,11,0,0,0,12.8-8.762l.113-.6a11,11,0,0,0-8.762-12.8" transform="translate(-1429.352 -195.212)" fill="#fec29e"/>
        <g id="Grupo_282" data-name="Grupo 282" transform="translate(490.637 112.208)" opacity="0.32">
          <g id="Grupo_281" data-name="Grupo 281">
            <g id="Grupo_280" data-name="Grupo 280" clip-path="url(#clip-path-15)">
              <path id="Trazado_341" data-name="Trazado 341" d="M1983.745,441.082l-.915,4.888a20.771,20.771,0,0,1-24.238,16.594l-15.941-2.984a20.7,20.7,0,0,1-13.992-9.777,21,21,0,0,0,15.624,12.818l.636.119a15.684,15.684,0,0,0,14.09,8.9h5a15.7,15.7,0,0,0,15.225-12.1,20.925,20.925,0,0,0,5.552-10.74l1.283-6.851Z" transform="translate(-1928.659 -441.082)" fill="#ff887c"/>
            </g>
          </g>
        </g>
        <path id="Trazado_342" data-name="Trazado 342" d="M2164.84,390.241a.511.511,0,0,1-.314-.107l-3.982-3.092a.512.512,0,0,1-.037-.777l4.911-4.636a.512.512,0,1,1,.7.745l-4.477,4.226,3.511,2.725a.512.512,0,0,1-.314.916" transform="translate(-1610.77 -284.442)" fill="#fb8e77"/>
        <path id="Trazado_343" data-name="Trazado 343" d="M2050.625,321.4a6.058,6.058,0,0,1-2.351-.894c-.788-.426-1.589-.834-2.3-1.164s-1.539-.684-2.372-1.013a6.024,6.024,0,0,1-2.192-1.224c-.489-.542-.393-1.4.752-1.967a6.939,6.939,0,0,1,5.664.388,6.73,6.73,0,0,1,3.879,4.061c.269,1.231-.344,1.843-1.082,1.814" transform="translate(-1521.884 -234.643)" fill="#1b1b25"/>
        <path id="Trazado_344" data-name="Trazado 344" d="M1948.8,321.068a6.8,6.8,0,0,0,2.463.509c.892.077,1.786.174,2.56.283s1.664.26,2.543.431a6.756,6.756,0,0,0,2.5.186c.7-.157,1.068-.834.4-1.825a7.433,7.433,0,0,0-5-2.528,7.147,7.147,0,0,0-5.426,1.069c-.876.774-.679,1.531-.039,1.876" transform="translate(-1452.63 -237.122)" fill="#1b1b25"/>
        <path id="Trazado_345" data-name="Trazado 345" d="M2045.823,363.3l.069.013a1.271,1.271,0,0,0,1.478-1.012l.3-1.622a1.27,1.27,0,0,0-1.012-1.478l-.069-.013a1.27,1.27,0,0,0-1.478,1.012l-.3,1.622a1.27,1.27,0,0,0,1.012,1.478" transform="translate(-1524.61 -267.797)" fill="#1b1b25"/>
        <path id="Trazado_346" data-name="Trazado 346" d="M1959.09,349.207l.069.013a1.27,1.27,0,0,0,1.478-1.012l.3-1.622a1.27,1.27,0,0,0-1.012-1.478l-.069-.013a1.27,1.27,0,0,0-1.478,1.012l-.3,1.622a1.27,1.27,0,0,0,1.012,1.478" transform="translate(-1459.941 -257.289)" fill="#1b1b25"/>
        <g id="Grupo_285" data-name="Grupo 285" transform="translate(520.729 98.156)" opacity="0.17">
          <g id="Grupo_284" data-name="Grupo 284">
            <g id="Grupo_283" data-name="Grupo 283" clip-path="url(#clip-path-16)">
              <path id="Trazado_347" data-name="Trazado 347" d="M2048.347,389.055l4.53.51a1.573,1.573,0,0,0,1.734-1.383l.01-.087a1.573,1.573,0,0,0-1.383-1.734l-4.53-.51a1.573,1.573,0,0,0-1.734,1.383l-.01.087a1.573,1.573,0,0,0,1.384,1.734" transform="translate(-2046.953 -385.841)" fill="#ff887c"/>
            </g>
          </g>
        </g>
        <g id="Grupo_288" data-name="Grupo 288" transform="translate(490.856 93.449)" opacity="0.17">
          <g id="Grupo_287" data-name="Grupo 287">
            <g id="Grupo_286" data-name="Grupo 286" clip-path="url(#clip-path-17)">
              <path id="Trazado_348" data-name="Trazado 348" d="M1930.912,370.555l4.53.51a1.573,1.573,0,0,0,1.734-1.383l.01-.087a1.573,1.573,0,0,0-1.383-1.734l-4.53-.509a1.573,1.573,0,0,0-1.734,1.383l-.01.087a1.573,1.573,0,0,0,1.383,1.734" transform="translate(-1929.519 -367.341)" fill="#ff887c"/>
            </g>
          </g>
        </g>
        <path id="Trazado_349" data-name="Trazado 349" d="M1985.389,465.792a.512.512,0,0,1-.3-.925,4.841,4.841,0,0,1,5.519-.006.512.512,0,0,1-.587.839,3.84,3.84,0,0,0-4.328-.006.511.511,0,0,1-.3.1" transform="translate(-1479.939 -345.954)" fill="#fb8e77"/>
        <path id="Trazado_350" data-name="Trazado 350" d="M2000.5,408.864l11.971-1.71-1.311,4.158a6.4,6.4,0,0,1-6.1,4.473h0a4.25,4.25,0,0,1-4.225-3.8Z" transform="translate(-1491.585 -303.577)" fill="#fff"/>
        <path id="Trazado_351" data-name="Trazado 351" d="M1989.945,341.48a.513.513,0,0,1-.129-.017l-3.712-.966a5.222,5.222,0,0,1-3.25-7.588l5.652-10.175a.512.512,0,0,1,.9.5l-5.652,10.175a4.2,4.2,0,0,0,2.612,6.1l3.712.966a.512.512,0,0,1-.129,1.007" transform="translate(-1477.939 -240.437)" fill="#fb8e77"/>
        <path id="Trazado_352" data-name="Trazado 352" d="M659,338.979l-41.008-76.034-4.835-11.409s-17.036-39.518-30.844-27.907l.057.293a4.734,4.734,0,0,0-1.64-1.305,3.5,3.5,0,0,0-2.978-.061c-1.884.882-2.569,3.433-1.522,5.668L588.016,253.4a20.858,20.858,0,0,0-3.334-2.852,18.315,18.315,0,0,0-4.206-2.748c-2.628-1.177-5.788-.809-7.507,1.739a1.984,1.984,0,0,0-.422,1.481,2.361,2.361,0,0,0,.812,1.137c3.331,3.085,7.008,5.779,10.271,8.937a17.16,17.16,0,0,0,6.839,11.322,18.526,18.526,0,0,1,5.929,6.568l-.064.048L611.187,330.7l-21.693.29v41.332h47.974a22.272,22.272,0,0,0,11.181-3c.158-.073.317-.138.474-.215h0A22.092,22.092,0,0,0,659,338.979" transform="translate(-426.873 -165.147)" fill="#fec29e"/>
        <g id="Grupo_291" data-name="Grupo 291" transform="translate(168.501 165.439)" opacity="0.17">
          <g id="Grupo_290" data-name="Grupo 290">
            <g id="Grupo_289" data-name="Grupo 289" clip-path="url(#clip-path-18)">
              <path id="Trazado_353" data-name="Trazado 353" d="M691.326,692.069h0s-11.148-29.992-13.063-41.74c-7.386,0-8.509.329-15.9.329Z" transform="translate(-662.367 -650.329)" fill="#ff887c"/>
            </g>
          </g>
        </g>
        <path id="Trazado_354" data-name="Trazado 354" d="M643.308,342.238a.511.511,0,0,1-.412-.208c-4.606-6.246-10.568-3.027-10.819-2.887a.512.512,0,0,1-.5-.893,9.381,9.381,0,0,1,12.143,3.172.512.512,0,0,1-.411.816" transform="translate(-470.714 -251.417)" fill="#fb8e77"/>
        <path id="Trazado_355" data-name="Trazado 355" d="M610.326,228.772a44.616,44.616,0,0,1,6.415,8.24,31.584,31.584,0,0,1,2.294,4.733,20.189,20.189,0,0,1,1.151,5.186.512.512,0,0,1-1.021.08v-.029a19.224,19.224,0,0,0-1-4.927,30.75,30.75,0,0,0-2.133-4.632,41.931,41.931,0,0,0-2.827-4.286,42.577,42.577,0,0,0-3.31-3.929l-.007-.007a.305.305,0,0,1,.435-.427" transform="translate(-454.676 -170.507)" fill="#fb8e77"/>
        <path id="Trazado_356" data-name="Trazado 356" d="M624.1,221.191a13.488,13.488,0,0,1,4.037,3.5,27.74,27.74,0,0,1,2.943,4.385,45.255,45.255,0,0,1,2.268,4.754l.931,2.461.827,2.5a.512.512,0,0,1-.972.322l0-.007-.007-.023-.768-2.472-.87-2.436a44.393,44.393,0,0,0-2.135-4.7,26.947,26.947,0,0,0-2.782-4.32,13.033,13.033,0,0,0-3.716-3.376l-.048-.026a.316.316,0,0,1,.3-.559" transform="translate(-464.991 -164.895)" fill="#fb8e77"/>
        <path id="Trazado_357" data-name="Trazado 357" d="M646.139,224.506a25.4,25.4,0,0,1,3.126,3.047,29.386,29.386,0,0,1,2.629,3.474A27.689,27.689,0,0,1,654,234.853a28.739,28.739,0,0,1,1.51,4.112.512.512,0,1,1-.98.295l0-.009-.007-.026a27.73,27.73,0,0,0-1.358-4,26.872,26.872,0,0,0-1.952-3.762,28.583,28.583,0,0,0-2.48-3.451,24.857,24.857,0,0,0-2.959-3.034l-.013-.011a.3.3,0,0,1,.38-.459" transform="translate(-481.404 -167.344)" fill="#fb8e77"/>
        <g id="Grupo_294" data-name="Grupo 294" transform="translate(167.612 109.004)" opacity="0.18">
          <g id="Grupo_293" data-name="Grupo 293">
            <g id="Grupo_292" data-name="Grupo 292" clip-path="url(#clip-path-19)">
              <path id="Trazado_358" data-name="Trazado 358" d="M658.873,430.442l15.847-1.956-9.8,19.492s-2.917-14.495-6.048-17.536" transform="translate(-658.873 -428.486)" fill="#ff887c"/>
            </g>
          </g>
        </g>
        <path id="Trazado_359" data-name="Trazado 359" d="M127.186,651.34l0,.019c-.244-.006-.487-.019-.733-.019H76.382A25.428,25.428,0,0,0,52.6,667.764H52.6l-.077.208-.036.1-21.3,58.052,19.77,2.419v64.469h107.6L166.6,692.672h18.717V651.138Z" transform="translate(-23.255 -485.493)" fill="#fff"/>
        <g id="Grupo_297" data-name="Grupo 297" transform="translate(105.457 165.645)" opacity="0.05">
          <g id="Grupo_296" data-name="Grupo 296">
            <g id="Grupo_295" data-name="Grupo 295" clip-path="url(#clip-path-20)">
              <path id="Trazado_360" data-name="Trazado 360" d="M471.709,651.138l-57.164.238v.007a40.231,40.231,0,0,1,38.534,40.192l-.088,1.1h18.718Z" transform="translate(-414.545 -651.138)" fill="#1b1b25"/>
            </g>
          </g>
        </g>
        <path id="Trazado_361" data-name="Trazado 361" d="M458.771,813.124l-20.223-4.012a4.452,4.452,0,0,0-5.218,3.49l-4.039,20.359-5.235,26.388a4.452,4.452,0,0,0,3.49,5.218l8.279,1.643,11.944,2.37a4.452,4.452,0,0,0,5.218-3.49l1.985-10,3.225-16.253,4.065-20.492a4.452,4.452,0,0,0-3.49-5.218" transform="translate(-316.115 -603.216)" fill="#1b1b25"/>
        <path id="Trazado_362" data-name="Trazado 362" d="M144.775,910.446a2.938,2.938,0,0,0-1.132-1.243c-.086-.127-.156-.254-.249-.381l-.484.06a3.067,3.067,0,0,0-1.1-.121l-19.818,1.547a17.082,17.082,0,0,1-9.331-1.939l-.478-.254.992-5c-1.07,1.311-2.156,2.606-3.308,3.831a13.851,13.851,0,0,0-7.042,2.656,12.733,12.733,0,0,0-3.267,3.349,16.2,16.2,0,0,1-3.664,3.936,12.669,12.669,0,0,1-1.694,1.039l-.039-.055L49.085,929.026l-.207.051,2.287-10.149L9.692,913.9.573,953.614a22.382,22.382,0,0,0,16.8,26.824,19.246,19.246,0,0,0,12.37-1.278,22.327,22.327,0,0,0,2.173-.9l76.3-37.554,10.342-3.876s.419-.161,1.15-.464l-.152-.03c4.719-1.922,31.178-13.358,25.218-25.885" transform="translate(0 -673.367)" fill="#fec29e"/>
        <g id="Grupo_300" data-name="Grupo 300" transform="translate(2.836 269.256)" opacity="0.17">
          <g id="Grupo_299" data-name="Grupo 299">
            <g id="Grupo_298" data-name="Grupo 298" clip-path="url(#clip-path-21)">
              <path id="Trazado_363" data-name="Trazado 363" d="M11.229,1058.427l-.081.411.081-.411" transform="translate(-11.148 -1058.427)" fill="#ff887c"/>
            </g>
          </g>
        </g>
        <g id="Grupo_303" data-name="Grupo 303" transform="translate(3.235 245.768)" opacity="0.17">
          <g id="Grupo_302" data-name="Grupo 302">
            <g id="Grupo_301" data-name="Grupo 301" clip-path="url(#clip-path-22)">
              <path id="Trazado_364" data-name="Trazado 364" d="M58.289,976.192c.934-4.3.663-3.927,2.081-10.1L12.717,987.978s4.723-1.422,11.238-3.15c.605-.221,1.222-.425,1.858-.6Z" transform="translate(-12.717 -966.094)" fill="#ff887c"/>
            </g>
          </g>
        </g>
        <g id="Grupo_306" data-name="Grupo 306" transform="translate(2.917 268.671)" opacity="0.17">
          <g id="Grupo_305" data-name="Grupo 305">
            <g id="Grupo_304" data-name="Grupo 304" clip-path="url(#clip-path-23)">
              <path id="Trazado_365" data-name="Trazado 365" d="M11.583,1056.126l-.116.585.116-.585" transform="translate(-11.467 -1056.126)" fill="#ff887c"/>
            </g>
          </g>
        </g>
        <g id="Grupo_309" data-name="Grupo 309" transform="translate(2.827 269.667)" opacity="0.17">
          <g id="Grupo_308" data-name="Grupo 308">
            <g id="Grupo_307" data-name="Grupo 307" clip-path="url(#clip-path-24)">
              <path id="Trazado_366" data-name="Trazado 366" d="M11.121,1060.041h0" transform="translate(-11.112 -1060.041)" fill="#ff887c"/>
            </g>
          </g>
        </g>
        <g id="Grupo_312" data-name="Grupo 312" transform="translate(3.033 267.651)" opacity="0.17">
          <g id="Grupo_311" data-name="Grupo 311">
            <g id="Grupo_310" data-name="Grupo 310" clip-path="url(#clip-path-25)">
              <path id="Trazado_367" data-name="Trazado 367" d="M12.124,1052.117l-.2,1.02.2-1.02" transform="translate(-11.922 -1052.117)" fill="#ff887c"/>
            </g>
          </g>
        </g>
        <g id="Grupo_315" data-name="Grupo 315" transform="translate(45.167 214.37)" opacity="0.35">
          <g id="Grupo_314" data-name="Grupo 314">
            <g id="Grupo_313" data-name="Grupo 313" clip-path="url(#clip-path-26)">
              <path id="Trazado_368" data-name="Trazado 368" d="M187.106,874.581a.426.426,0,0,1-.063,0L178,873.461a.512.512,0,1,1,.125-1.016l8.556,1.055,4.764-30.4a.512.512,0,1,1,1.012.158l-4.84,30.886a.512.512,0,0,1-.505.433" transform="translate(-177.547 -842.672)" fill="#1b1b25"/>
            </g>
          </g>
        </g>
        <g id="Grupo_318" data-name="Grupo 318" transform="translate(65.296 244.385)" opacity="0.08">
          <g id="Grupo_317" data-name="Grupo 317">
            <g id="Grupo_316" data-name="Grupo 316" clip-path="url(#clip-path-27)">
              <path id="Trazado_369" data-name="Trazado 369" d="M256.675,967.887l20.427-.512c3.811.5,9.878-2.937,9.172-6.716Z" transform="translate(-256.675 -960.659)" fill="#ff887c"/>
            </g>
          </g>
        </g>
        <path id="Trazado_370" data-name="Trazado 370" d="M219.952,327.693,213,280.412a52.251,52.251,0,0,0-4.377-14.574l3.772-.606s-2.648-38.376-45.69-29.214a52.348,52.348,0,0,0-13.011.283h0a38.267,38.267,0,0,0-32.3,43.424l4.05,27.561a38.267,38.267,0,0,0,43.424,32.3l47.415-6.967a4.34,4.34,0,0,0,3.663-4.925" transform="translate(-90.21 -174.922)" fill="#1b1b25"/>
        <path id="Trazado_371" data-name="Trazado 371" d="M396.264,282.757a.512.512,0,0,1-.069-1.019l13.841-1.89a.413.413,0,0,0,.278-.167.382.382,0,0,0,.07-.293c-2.238-12.476-13.731-18.232-13.847-18.288a.512.512,0,0,1,.449-.92c.121.059,12.073,6.029,14.405,19.027a1.4,1.4,0,0,1-.25,1.075,1.443,1.443,0,0,1-.967.58l-13.841,1.89a.588.588,0,0,1-.07,0" transform="translate(-295.076 -193.953)" fill="#fcf0e3"/>
        <path id="Trazado_372" data-name="Trazado 372" d="M256.608,337.821l-37.887,6.087-9.2-13.6c1.806,15.174-9.383,24.975-9.383,24.975s-.115-.157-.313-.444l-.314.059a10.967,10.967,0,0,0,4.036,21.56l.724-.136a28.215,28.215,0,0,0,8.2,14.351v24.282a15.65,15.65,0,0,0,31.3,0V395.779a28.4,28.4,0,0,0,13.9-13.939l.018-.027a27.983,27.983,0,0,0,3.491-19.558Z" transform="translate(-142.087 -246.28)" fill="#fec29e"/>
        <g id="Grupo_321" data-name="Grupo 321" transform="translate(62.211 129.698)" opacity="0.32">
          <g id="Grupo_320" data-name="Grupo 320">
            <g id="Grupo_319" data-name="Grupo 319" clip-path="url(#clip-path-28)">
              <path id="Trazado_373" data-name="Trazado 373" d="M278.985,528.9h0A28.1,28.1,0,0,1,247.1,509.99c-.141-.434-2.613.134-2.551.4A28.217,28.217,0,0,0,252.8,524.6a15.63,15.63,0,0,0,29.439,5.776,28.373,28.373,0,0,0,15.705-14.707A28.022,28.022,0,0,1,278.985,528.9" transform="translate(-244.549 -509.832)" fill="#ff887c"/>
            </g>
          </g>
        </g>
        <path id="Trazado_374" data-name="Trazado 374" d="M217.091,458.411a.512.512,0,0,1-.314-.916l3.4-2.641-4.345-4.1a.512.512,0,0,1,.7-.745l4.779,4.51a.512.512,0,0,1-.037.777L217.4,458.3a.512.512,0,0,1-.313.107" transform="translate(-160.809 -335.426)" fill="#fb8e77"/>
        <path id="Trazado_375" data-name="Trazado 375" d="M326.4,398.438a3.6,3.6,0,0,0,1.4-.531c.468-.253.944-.5,1.365-.691s.914-.406,1.408-.6a3.573,3.573,0,0,0,1.3-.727c.29-.322.233-.829-.446-1.168a4.12,4.12,0,0,0-3.362.23,4,4,0,0,0-2.3,2.411c-.16.731.2,1.094.642,1.077" transform="translate(-242.862 -294.115)" fill="#1b1b25"/>
        <path id="Trazado_376" data-name="Trazado 376" d="M416.8,382.852a3.593,3.593,0,0,1-1.488-.124c-.519-.114-1.044-.215-1.5-.287s-.99-.137-1.52-.188a3.576,3.576,0,0,1-1.452-.338c-.368-.229-.453-.732.106-1.246a4.119,4.119,0,0,1,3.295-.709,4,4,0,0,1,2.88,1.68c.356.658.106,1.108-.319,1.212" transform="translate(-306.107 -283.252)" fill="#1b1b25"/>
        <path id="Trazado_377" data-name="Trazado 377" d="M353.868,481.1a10.086,10.086,0,0,1-7.036-3.338.512.512,0,0,1,.786-.655c.163.194,4.047,4.731,9.474,2.226a.512.512,0,1,1,.429.93,8.641,8.641,0,0,1-3.653.837" transform="translate(-258.513 -355.596)" fill="#fb8e77"/>
        <path id="Trazado_378" data-name="Trazado 378" d="M385.35,419.719a.512.512,0,0,1-.1-1.014l3.6-.708a4.139,4.139,0,0,0,3.259-4.855,1.5,1.5,0,0,0-1.753-1.177,3.5,3.5,0,0,1-4.105-2.755l-.869-4.415a.512.512,0,1,1,1-.2l.869,4.415a2.475,2.475,0,0,0,2.9,1.948,2.518,2.518,0,0,1,2.956,1.984A5.164,5.164,0,0,1,389.049,419l-3.6.708a.534.534,0,0,1-.1.009" transform="translate(-286.938 -301.362)" fill="#fb8e77"/>
        <path id="Trazado_379" data-name="Trazado 379" d="M341.539,432.251h0a1.27,1.27,0,0,1-1.478-1.012l-.283-1.51a1.267,1.267,0,0,1,2.49-.466l.283,1.51a1.27,1.27,0,0,1-1.012,1.478" transform="translate(-253.325 -319.29)" fill="#1b1b25"/>
        <path id="Trazado_380" data-name="Trazado 380" d="M425.92,418.54h0a1.27,1.27,0,0,1-1.478-1.012l-.283-1.51a1.267,1.267,0,0,1,2.49-.466l.283,1.51a1.27,1.27,0,0,1-1.012,1.478" transform="translate(-316.24 -309.067)" fill="#1b1b25"/>
        <g id="Grupo_324" data-name="Grupo 324" transform="translate(81.253 115.539)" opacity="0.17">
          <g id="Grupo_323" data-name="Grupo 323">
            <g id="Grupo_322" data-name="Grupo 322" clip-path="url(#clip-path-29)">
              <path id="Trazado_381" data-name="Trazado 381" d="M325.469,457.3l-4.322.486a1.568,1.568,0,0,1-.351-3.117l4.322-.486a1.573,1.573,0,0,1,1.734,1.383h0a1.573,1.573,0,0,1-1.383,1.734" transform="translate(-319.403 -454.173)" fill="#ff887c"/>
            </g>
          </g>
        </g>
        <g id="Grupo_327" data-name="Grupo 327" transform="translate(110.318 110.96)" opacity="0.17">
          <g id="Grupo_326" data-name="Grupo 326">
            <g id="Grupo_325" data-name="Grupo 325" clip-path="url(#clip-path-29)">
              <path id="Trazado_382" data-name="Trazado 382" d="M439.718,439.3l-4.322.486a1.569,1.569,0,0,1-.351-3.118l4.322-.486a1.569,1.569,0,0,1,.351,3.118" transform="translate(-433.652 -436.175)" fill="#ff887c"/>
            </g>
          </g>
        </g>
        <path id="Trazado_383" data-name="Trazado 383" d="M391.644,531.912a.511.511,0,0,1-.3-.1,3.721,3.721,0,0,0-4.193.006.512.512,0,0,1-.588-.838,4.722,4.722,0,0,1,5.385.006.512.512,0,0,1-.3.925" transform="translate(-288.061 -395.269)" fill="#fb8e77"/>
        <path id="Trazado_384" data-name="Trazado 384" d="M999.892,774.255H765.381l64.306-144.312a3.979,3.979,0,0,1,3.634-2.359H1054.5a4.883,4.883,0,0,1,3.56,1.541l.058.063a9.564,9.564,0,0,1,1.763,10.439Z" transform="translate(-570.674 -467.931)" fill="#364154"/>
        <path id="Trazado_385" data-name="Trazado 385" d="M991.256,774.255H765.38l64.349-144.41a3.814,3.814,0,0,1,3.483-2.261h220.571a1.837,1.837,0,0,1,1.678,2.585Z" transform="translate(-570.673 -467.931)" fill="#657285"/>
        <path id="Trazado_386" data-name="Trazado 386" d="M1007.8,802.956H792.767l58.457-130a3.631,3.631,0,0,1,3.316-2.153h209.981a1.749,1.749,0,0,1,1.6,2.461Z" transform="translate(-591.093 -500.152)" fill="#d5d6da"/>
        <path id="Trazado_387" data-name="Trazado 387" d="M862.375,1174.144H589.133a7.892,7.892,0,0,1-7.891-7.892v-2.342H862.375Z" transform="translate(-433.378 -867.82)" fill="#364154"/>
        <path id="Trazado_388" data-name="Trazado 388" d="M1312.14,1163.91v3.2a7.035,7.035,0,0,0,7.035,7.035h88.163V1163.91Z" transform="translate(-978.341 -867.82)" fill="#364154"/>
        <path id="Trazado_389" data-name="Trazado 389" d="M1389.183,647.248h-42.211a1.13,1.13,0,0,1-1.13-1.13V646.1a1.13,1.13,0,0,1,1.13-1.13h42.211a1.13,1.13,0,0,1,1.13,1.13v.023a1.13,1.13,0,0,1-1.13,1.13" transform="translate(-1003.47 -480.89)" fill="#364154"/>
        <path id="Trazado_390" data-name="Trazado 390" d="M947.506,811.3H887.793a3.148,3.148,0,0,1-2.875-4.429l37.79-84.767a3.148,3.148,0,0,1,2.875-1.866H985.3a3.148,3.148,0,0,1,2.875,4.429l-37.79,84.767a3.148,3.148,0,0,1-2.875,1.866" transform="translate(-659.595 -537.017)" fill="#eaeaea"/>
        <path id="Trazado_391" data-name="Trazado 391" d="M1288.24,843.163h-48.817a2.573,2.573,0,0,1-2.35-3.621l24.218-54.115a2.573,2.573,0,0,1,2.35-1.526h48.817a2.573,2.573,0,0,1,2.35,3.621l-24.218,54.115a2.574,2.574,0,0,1-2.35,1.525" transform="translate(-922.202 -584.482)" fill="#eaeaea"/>
        <path id="Trazado_392" data-name="Trazado 392" d="M1531.578,844.522h-48.817a2.573,2.573,0,0,1-2.35-3.621l24.218-54.115a2.574,2.574,0,0,1,2.35-1.526H1555.8a2.573,2.573,0,0,1,2.35,3.621L1533.928,843a2.574,2.574,0,0,1-2.35,1.525" transform="translate(-1103.637 -585.495)" fill="#eaeaea"/>
        <path id="Trazado_393" data-name="Trazado 393" d="M935.181,1101.09H873.07a2.074,2.074,0,0,1-2.075-2.074v-.042a2.075,2.075,0,0,1,2.075-2.075h62.111a2.075,2.075,0,0,1,2.075,2.075v.042a2.074,2.074,0,0,1-2.075,2.074" transform="translate(-649.42 -817.856)" fill="#9cce4a"/>
        <path id="Trazado_394" data-name="Trazado 394" d="M1070.14,791.309h-54a1.8,1.8,0,0,1-1.8-1.8v-.036a1.8,1.8,0,0,1,1.8-1.8h54a1.8,1.8,0,0,1,1.8,1.8v.036a1.8,1.8,0,0,1-1.8,1.8" transform="translate(-756.3 -587.289)" fill="#00a3fe"/>
        <path id="Trazado_395" data-name="Trazado 395" d="M1043.723,862.235h-54a1.8,1.8,0,0,1-1.8-1.8V860.4a1.8,1.8,0,0,1,1.8-1.8h54a1.8,1.8,0,0,1,1.8,1.8v.036a1.8,1.8,0,0,1-1.8,1.8" transform="translate(-736.603 -640.172)" fill="#00a3fe"/>
        <path id="Trazado_396" data-name="Trazado 396" d="M916.565,1129.014H854.454a2.075,2.075,0,0,1-2.075-2.075v-.042a2.075,2.075,0,0,1,2.075-2.075h62.111a2.074,2.074,0,0,1,2.074,2.075v.042a2.074,2.074,0,0,1-2.074,2.075" transform="translate(-635.54 -838.676)" fill="#9cce4a"/>
        <path id="Trazado_397" data-name="Trazado 397" d="M1276.553,1042.934h-48.581a2.075,2.075,0,0,1-2.074-2.075v-.042a2.075,2.075,0,0,1,2.074-2.075h48.581a2.074,2.074,0,0,1,2.074,2.075v.042a2.074,2.074,0,0,1-2.074,2.075" transform="translate(-914.039 -774.494)" fill="#9cce4a"/>
        <path id="Trazado_398" data-name="Trazado 398" d="M1257.937,1070.858h-48.581a2.074,2.074,0,0,1-2.074-2.074v-.042a2.074,2.074,0,0,1,2.074-2.075h48.581a2.074,2.074,0,0,1,2.074,2.075v.042a2.074,2.074,0,0,1-2.074,2.074" transform="translate(-900.158 -795.314)" fill="#9cce4a"/>
        <path id="Trazado_399" data-name="Trazado 399" d="M1515.9,1042.934h-48.581a2.075,2.075,0,0,1-2.075-2.075v-.042a2.075,2.075,0,0,1,2.075-2.075H1515.9a2.075,2.075,0,0,1,2.074,2.075v.042a2.075,2.075,0,0,1-2.074,2.075" transform="translate(-1092.498 -774.494)" fill="#9cce4a"/>
        <path id="Trazado_400" data-name="Trazado 400" d="M1497.285,1070.858H1448.7a2.074,2.074,0,0,1-2.075-2.074v-.042a2.075,2.075,0,0,1,2.075-2.075h48.581a2.075,2.075,0,0,1,2.074,2.075v.042a2.075,2.075,0,0,1-2.074,2.074" transform="translate(-1078.618 -795.314)" fill="#9cce4a"/>
        <path id="Trazado_401" data-name="Trazado 401" d="M1015.516,926.466h-54a1.8,1.8,0,0,1-1.8-1.8v-.036a1.8,1.8,0,0,1,1.8-1.8h54a1.8,1.8,0,0,1,1.8,1.8v.036a1.8,1.8,0,0,1-1.8,1.8" transform="translate(-715.572 -688.063)" fill="#00a3fe"/>
        <path id="Trazado_402" data-name="Trazado 402" d="M1371.6,838.381h-33.94a1.134,1.134,0,0,1-1.134-1.134v-.023a1.134,1.134,0,0,1,1.134-1.134h33.94a1.134,1.134,0,0,1,1.134,1.134v.023a1.134,1.134,0,0,1-1.134,1.134" transform="translate(-996.523 -623.395)" fill="#00a3fe"/>
        <path id="Trazado_403" data-name="Trazado 403" d="M1354.994,882.964h-33.94a1.134,1.134,0,0,1-1.134-1.134v-.023a1.134,1.134,0,0,1,1.134-1.134h33.94a1.133,1.133,0,0,1,1.134,1.134v.023a1.133,1.133,0,0,1-1.134,1.134" transform="translate(-984.142 -656.637)" fill="#00a3fe"/>
        <path id="Trazado_404" data-name="Trazado 404" d="M1337.264,923.338h-33.94a1.134,1.134,0,0,1-1.134-1.134v-.023a1.134,1.134,0,0,1,1.134-1.134h33.94a1.134,1.134,0,0,1,1.134,1.134v.023a1.134,1.134,0,0,1-1.134,1.134" transform="translate(-970.923 -686.74)" fill="#00a3fe"/>
        <path id="Trazado_405" data-name="Trazado 405" d="M1611.484,853.548h-30.708a1.026,1.026,0,0,1-1.026-1.026V852.5a1.026,1.026,0,0,1,1.026-1.026h30.708a1.026,1.026,0,0,1,1.026,1.026v.021a1.026,1.026,0,0,1-1.026,1.026" transform="translate(-1177.873 -634.866)" fill="#00a3fe"/>
        <path id="Trazado_406" data-name="Trazado 406" d="M1596.46,893.885h-30.709a1.026,1.026,0,0,1-1.026-1.026v-.021a1.026,1.026,0,0,1,1.026-1.026h30.709a1.026,1.026,0,0,1,1.026,1.026v.021a1.026,1.026,0,0,1-1.026,1.026" transform="translate(-1166.671 -664.942)" fill="#00a3fe"/>
        <path id="Trazado_407" data-name="Trazado 407" d="M1580.418,930.416H1549.71a1.026,1.026,0,0,1-1.026-1.026v-.021a1.026,1.026,0,0,1,1.026-1.026h30.708a1.026,1.026,0,0,1,1.026,1.026v.021a1.026,1.026,0,0,1-1.026,1.026" transform="translate(-1154.71 -692.18)" fill="#00a3fe"/>
      </g>
    </g>
  </g>
</svg>
