<svg id="Grupo_239" data-name="Grupo 239" xmlns="http://www.w3.org/2000/svg" width="225.232" height="80.873" viewBox="0 0 225.232 80.873">
  <path id="path660" d="M564.386-1904.344h19.068v-57.048H564.386Z" transform="translate(-516.604 1985.217)" fill="#0061a0"/>
  <g id="g662" transform="translate(47.96)">
    <path id="path664" d="M0-115.812a9.536,9.536,0,0,1,9.535-9.538,9.534,9.534,0,0,1,9.533,9.538,9.534,9.534,0,0,1-9.533,9.533A9.537,9.537,0,0,1,0-115.812" transform="translate(0 125.351)" fill="#ea500d"/>
  </g>
  <path id="path666" d="M940.257-1904.344h19.068v-57.048H940.257Z" transform="translate(-863.875 1985.217)" fill="#0061a0"/>
  <g id="g668" transform="translate(76.382)">
    <path id="path670" d="M0-115.812a9.536,9.536,0,0,1,9.533-9.538,9.536,9.536,0,0,1,9.535,9.538,9.537,9.537,0,0,1-9.535,9.533A9.536,9.536,0,0,1,0-115.812" transform="translate(0 125.351)" fill="#ea500d"/>
  </g>
  <path id="path672" d="M190.934-2274.5H210v19.062H190.934Z" transform="translate(-171.569 2274.5)" fill="#0061a0"/>
  <g id="g674" transform="translate(0 19.065)">
    <path id="path676" d="M-36.048,0h16.4A11.585,11.585,0,0,0-20.1,3.279a10.233,10.233,0,0,0,3.2,7.388c6.47,6.528,9.351,8.613,13.872,14.311,2.5,3.164,4.048,7.737,4.048,13.15a23.676,23.676,0,0,1-7.5,17.467,23.39,23.39,0,0,1-14.976,6.042c-4.246,0-9.085-.934-12.046-2.458a56.693,56.693,0,0,1-5.517-3.139V39.778a33.384,33.384,0,0,0,4.905,3.279,18.229,18.229,0,0,0,8.275,2.565c3.054.206,6.067-.39,8.011-2.554a8.258,8.258,0,0,0,1.857-5.762,9.353,9.353,0,0,0-1.368-4.713c-3.848-6.882-13.526-11.6-17.214-18.318C-37.577,8.772-36.048,0-36.048,0" transform="translate(39.016)" fill="#0061a0"/>
  </g>
  <g id="g678" transform="translate(114.382 19.069)">
    <path id="path680" d="M-135.62-14.539v3.032a13,13,0,0,0-4.919-1.39,3.379,3.379,0,0,0-1.662.352,1.038,1.038,0,0,0-.612.926,1.137,1.137,0,0,0,.442.846A7.963,7.963,0,0,0-140.2-9.741a24.388,24.388,0,0,1,2.752,1.175,5.305,5.305,0,0,1,1.782,1.538,3.97,3.97,0,0,1,.75,2.5,4.116,4.116,0,0,1-1.637,3.43A6.827,6.827,0,0,1-140.871.173a11.433,11.433,0,0,1-5.6-1.494V-4.666a14.873,14.873,0,0,0,2.752,1.519,6.726,6.726,0,0,0,2.546.481c1.516,0,2.277-.481,2.277-1.428a1.268,1.268,0,0,0-.461-.926,7.327,7.327,0,0,0-2.186-1.055A21.248,21.248,0,0,1-144.3-7.228a5.232,5.232,0,0,1-1.758-1.524,4.123,4.123,0,0,1-.733-2.529,3.864,3.864,0,0,1,1.607-3.23,6.946,6.946,0,0,1,4.312-1.225,13.193,13.193,0,0,1,5.251,1.2" transform="translate(146.79 15.737)" fill="#6e6e6e"/>
  </g>
  <g id="g682" transform="translate(127.747 24.074)">
    <path id="path684" d="M-42.25-51.654H-37.7c-.176-1.524-.937-2.285-2.274-2.285q-2.035,0-2.279,2.285m7.275,3.2v2.076A7.69,7.69,0,0,1-39.652-45a6.391,6.391,0,0,1-4.419-1.48,5.029,5.029,0,0,1-1.659-3.93,5.318,5.318,0,0,1,1.557-3.947,5.4,5.4,0,0,1,3.966-1.549,5.242,5.242,0,0,1,3.971,1.629,5.742,5.742,0,0,1,1.45,4.361h-7.533a3.024,3.024,0,0,0,1.013,2.2,3.676,3.676,0,0,0,2.444.769,6.612,6.612,0,0,0,3.886-1.5" transform="translate(45.73 55.908)" fill="#6e6e6e"/>
  </g>
  <g id="g686" transform="translate(140.645 24.075)">
    <path id="path688" d="M-40.116-2.7v3h.044q1.434-3.221,3.342-3.224a3.914,3.914,0,0,1,2.189.958L-35.45.952A4.043,4.043,0,0,0-37.405.18a2.257,2.257,0,0,0-1.928,1.412,7.216,7.216,0,0,0-.783,1.656V7.785h-3.3V-2.7Z" transform="translate(43.42 2.924)" fill="#6e6e6e"/>
  </g>
  <g id="g690" transform="translate(149.877 24.296)">
    <path id="path692" d="M-58.857-129.718-63.7-140.4h3.537l2.219,5.778,2.263-5.778h3.5l-4.825,10.683Z" transform="translate(63.704 140.401)" fill="#6e6e6e"/>
  </g>
  <path id="path694" d="M2074.063-2008.183h-3.3v-10.485h3.3Zm-3.48-13.9a1.757,1.757,0,0,1,.533-1.288,1.749,1.749,0,0,1,1.277-.53,1.766,1.766,0,0,1,1.291.53,1.757,1.757,0,0,1,.533,1.288,1.764,1.764,0,0,1-.533,1.285,1.756,1.756,0,0,1-1.291.541,1.739,1.739,0,0,1-1.277-.541,1.764,1.764,0,0,1-.533-1.285" transform="translate(-1908.192 2042.968)" fill="#6e6e6e"/>
  <g id="g696" transform="translate(167.727 24.076)">
    <path id="path698" d="M-116.779-95.2v2.367a10.5,10.5,0,0,1-3.543.695,6.383,6.383,0,0,1-4.419-1.48A5.021,5.021,0,0,1-126.4-97.55a5.15,5.15,0,0,1,1.673-3.944,6.04,6.04,0,0,1,4.257-1.552,10.169,10.169,0,0,1,3.535.689V-99.9a5.88,5.88,0,0,0-2.689-.7,3.342,3.342,0,0,0-2.365.824,2.846,2.846,0,0,0-.887,2.2,3.011,3.011,0,0,0,.862,2.241,3.133,3.133,0,0,0,2.279.854,9.091,9.091,0,0,0,2.952-.725" transform="translate(126.397 103.045)" fill="#6e6e6e"/>
  </g>
  <path id="path700" d="M2294.075-2008.183h-3.3v-10.485h3.3Zm-3.479-13.9a1.777,1.777,0,0,1,.533-1.288,1.75,1.75,0,0,1,1.279-.53,1.761,1.761,0,0,1,1.289.53,1.757,1.757,0,0,1,.532,1.288,1.764,1.764,0,0,1-.532,1.285,1.751,1.751,0,0,1-1.289.541,1.74,1.74,0,0,1-1.279-.541,1.785,1.785,0,0,1-.533-1.285" transform="translate(-2111.463 2042.968)" fill="#6e6e6e"/>
  <g id="g702" transform="translate(184.438 24.074)">
    <path id="path704" d="M-72.028-108.743c1.576,0,2.365-1.195,2.365-3.573q0-3.415-2.365-3.414a2.043,2.043,0,0,0-1.771.9,4.4,4.4,0,0,0-.634,2.584q0,3.5,2.406,3.5m0-8.956a6.263,6.263,0,0,1,4.18,1.447,4.977,4.977,0,0,1,1.719,4.023,4.888,4.888,0,0,1-1.741,4.012,6.351,6.351,0,0,1-4.158,1.423,6.066,6.066,0,0,1-4.271-1.516,5.112,5.112,0,0,1-1.662-3.936,5.018,5.018,0,0,1,1.695-3.963,6.189,6.189,0,0,1,4.238-1.491" transform="translate(77.961 117.699)" fill="#6e6e6e"/>
  </g>
  <g id="g706" transform="translate(202.266 19.653)">
    <path id="path708" d="M-92.537-149.659v-4.883a3.129,3.129,0,0,0-1.8-.6,2.29,2.29,0,0,0-1.892.843,3.753,3.753,0,0,0-.673,2.373,3.54,3.54,0,0,0,.67,2.258,2.164,2.164,0,0,0,1.788.851,2.809,2.809,0,0,0,1.9-.846m3.219-12.326v15.13h-3.219v-.824a4.339,4.339,0,0,1-2.837,1.022,4.429,4.429,0,0,1-3.416-1.521,5.474,5.474,0,0,1-1.368-3.806,5.375,5.375,0,0,1,1.39-3.823,4.677,4.677,0,0,1,3.57-1.486,5.988,5.988,0,0,1,2.661.645v-5.336Z" transform="translate(100.158 161.985)" fill="#6e6e6e"/>
  </g>
  <g id="g710" transform="translate(214.559 24.342)">
    <path id="path712" d="M-41.183-50.353h4.435c-.17-1.489-.909-2.227-2.216-2.227s-2.057.739-2.219,2.227m7.094,3.123v2.024a7.546,7.546,0,0,1-4.559,1.343,6.2,6.2,0,0,1-4.309-1.45,4.882,4.882,0,0,1-1.618-3.831A5.232,5.232,0,0,1-43.059-53a5.271,5.271,0,0,1,3.87-1.505,5.1,5.1,0,0,1,3.87,1.587,5.569,5.569,0,0,1,1.412,4.249h-7.341a2.941,2.941,0,0,0,.989,2.145,3.56,3.56,0,0,0,2.381.75,6.454,6.454,0,0,0,3.79-1.461" transform="translate(44.575 54.5)" fill="#6e6e6e"/>
  </g>
  <path id="path714" d="M1443.6-1744.785h-3.958v-15.888h3.958Z" transform="translate(-1325.259 1799.771)" fill="#6e6e6e"/>
  <g id="g716" transform="translate(121.736 44.024)">
    <path id="path718" d="M-41.05-2.768v1.373A5.382,5.382,0,0,1-37.317-3,3.936,3.936,0,0,1-33.445-.711,5.556,5.556,0,0,1-29.21-3a4.185,4.185,0,0,1,3.027,1.129,3.883,3.883,0,0,1,1.17,2.936v6.9h-3.375v-6.3A2.682,2.682,0,0,0-28.913-.1,1.781,1.781,0,0,0-30.374-.73a3.289,3.289,0,0,0-2.667,1.821V7.965h-3.367V1.6a2.45,2.45,0,0,0-.563-1.733,1.937,1.937,0,0,0-1.494-.6A3.451,3.451,0,0,0-41.05.759V7.965H-44.43V-2.768Z" transform="translate(44.43 2.996)" fill="#6e6e6e"/>
  </g>
  <g id="g720" transform="translate(143.924 44.025)">
    <path id="path722" d="M-41.05-39.616v4.935a3.239,3.239,0,0,0,1.955.709,2.39,2.39,0,0,0,1.95-.884,3.663,3.663,0,0,0,.722-2.384,3.793,3.793,0,0,0-.665-2.384,2.222,2.222,0,0,0-1.87-.854,3.39,3.39,0,0,0-2.093.862m0-3.035v.931a4.581,4.581,0,0,1,3.068-1.159,4.61,4.61,0,0,1,3.54,1.582A5.537,5.537,0,0,1-33-37.416a5.849,5.849,0,0,1-1.45,4.147,4.992,4.992,0,0,1-3.839,1.56,5.432,5.432,0,0,1-2.76-.742v5.9H-44.43v-16.1Z" transform="translate(44.43 42.878)" fill="#6e6e6e"/>
  </g>
  <g id="g724" transform="translate(157.528 44.252)">
    <path id="path726" d="M-89.9-130.318v-1.535a4.461,4.461,0,0,1-3.471,1.744,3.875,3.875,0,0,1-2.842-1.082,4.013,4.013,0,0,1-1.09-2.988v-6.871h3.381v6.635c0,1.359.563,2.043,1.692,2.043a2.114,2.114,0,0,0,1.631-.75,2.1,2.1,0,0,0,.678-1.093v-6.836h3.4v10.733Z" transform="translate(97.306 141.051)" fill="#6e6e6e"/>
  </g>
  <g id="g728" transform="translate(170.547 44.023)">
    <path id="path730" d="M-43.217-52.888h4.661c-.179-1.557-.958-2.345-2.329-2.345-1.39,0-2.167.788-2.332,2.345m7.445,3.276v2.128a7.9,7.9,0,0,1-4.781,1.409,6.538,6.538,0,0,1-4.532-1.519,5.153,5.153,0,0,1-1.692-4.026,5.45,5.45,0,0,1,1.59-4.043,5.518,5.518,0,0,1,4.065-1.582,5.356,5.356,0,0,1,4.062,1.667,5.863,5.863,0,0,1,1.483,4.463h-7.709a3.093,3.093,0,0,0,1.033,2.252,3.761,3.761,0,0,0,2.5.785,6.766,6.766,0,0,0,3.979-1.535" transform="translate(46.776 57.243)" fill="#6e6e6e"/>
  </g>
  <g id="g732" transform="translate(183.498 44.024)">
    <path id="path734" d="M-96.038-9.67v2.4a6.96,6.96,0,0,0-3.579-1.189c-.81,0-1.219.283-1.219.835a.576.576,0,0,0,.258.426,11.725,11.725,0,0,0,1.964.893,5.7,5.7,0,0,1,2.409,1.565,3.068,3.068,0,0,1,.709,1.95,3.116,3.116,0,0,1-1.14,2.584A5.1,5.1,0,0,1-99.877.7a8.98,8.98,0,0,1-3.845-.783V-2.459a9,9,0,0,0,3.469.909c1.09,0,1.64-.266,1.64-.794a.778.778,0,0,0-.3-.579,9.492,9.492,0,0,0-2.03-.947,5.591,5.591,0,0,1-2.365-1.486,2.821,2.821,0,0,1-.634-1.8,2.866,2.866,0,0,1,1.219-2.392,5.194,5.194,0,0,1,3.224-.923,7.491,7.491,0,0,1,3.466.8" transform="translate(103.947 10.467)" fill="#6e6e6e"/>
  </g>
  <g id="g736" transform="translate(192.923 40.876)">
    <path id="path738" d="M-107.142-40.983v2.31h-3.908v4.424a1.749,1.749,0,0,0,.434,1.255,1.588,1.588,0,0,0,1.214.459,4.932,4.932,0,0,0,2.26-.623v2.447a8.162,8.162,0,0,1-3.123.67,4.326,4.326,0,0,1-3.076-1.024,3.923,3.923,0,0,1-1.09-3v-4.606h-1.535v-.662l4.49-5.023h.426v3.375Z" transform="translate(115.966 44.358)" fill="#6e6e6e"/>
  </g>
  <g id="g740" transform="translate(202.958 44.023)">
    <path id="path742" d="M-73.729-111.311q2.422,0,2.425-3.658c0-2.329-.81-3.5-2.425-3.5a2.118,2.118,0,0,0-1.815.926A4.538,4.538,0,0,0-76.2-114.9q0,3.588,2.469,3.587m0-9.167a6.438,6.438,0,0,1,4.284,1.483,5.093,5.093,0,0,1,1.758,4.12,5.012,5.012,0,0,1-1.785,4.111,6.523,6.523,0,0,1-4.257,1.456A6.225,6.225,0,0,1-78.1-110.86a5.229,5.229,0,0,1-1.7-4.037,5.151,5.151,0,0,1,1.733-4.056,6.345,6.345,0,0,1,4.339-1.524" transform="translate(79.801 120.478)" fill="#6e6e6e"/>
  </g>
  <g id="g744" transform="translate(216.727 44.024)">
    <path id="path746" d="M-96.1-9.67v2.4a6.977,6.977,0,0,0-3.584-1.189c-.81,0-1.217.283-1.217.835a.572.572,0,0,0,.255.426,11.724,11.724,0,0,0,1.964.893,5.7,5.7,0,0,1,2.411,1.565,3.046,3.046,0,0,1,.7,1.95A3.112,3.112,0,0,1-96.706-.206,5.087,5.087,0,0,1-99.947.7a9,9,0,0,1-3.848-.783V-2.459a9,9,0,0,0,3.471.909c1.09,0,1.637-.266,1.637-.794a.783.783,0,0,0-.3-.579,9.47,9.47,0,0,0-2.032-.947,5.6,5.6,0,0,1-2.362-1.486,2.824,2.824,0,0,1-.637-1.8A2.862,2.862,0,0,1-102.8-9.544a5.2,5.2,0,0,1,3.224-.923,7.5,7.5,0,0,1,3.469.8" transform="translate(104.02 10.467)" fill="#6e6e6e"/>
  </g>
  <path id="path748" d="M1443.6-1480.081h-3.958v-15.891h3.958Z" transform="translate(-1325.259 1555.211)" fill="#6e6e6e"/>
  <g id="g750" transform="translate(121.695 64.163)">
    <path id="path752" d="M-40.983-2.8v1.524a4.472,4.472,0,0,1,3.491-1.755,3.867,3.867,0,0,1,2.8,1.074A4.03,4.03,0,0,1-33.576,1.1v6.83h-3.381V1.39c0-1.439-.555-2.156-1.673-2.156q-1.186,0-2.354,1.774V7.934h-3.375V-2.8Z" transform="translate(44.358 3.032)" fill="#6e6e6e"/>
  </g>
  <g id="g754" transform="translate(134.026 61.018)">
    <path id="path756" d="M-107.176-40.983v2.31h-3.911v4.422a1.737,1.737,0,0,0,.439,1.261,1.585,1.585,0,0,0,1.208.459,5.011,5.011,0,0,0,2.263-.623v2.444a8.111,8.111,0,0,1-3.128.673,4.32,4.32,0,0,1-3.068-1.024,3.935,3.935,0,0,1-1.1-3v-4.608H-116v-.662l4.493-5.023h.423v3.375Z" transform="translate(116.002 44.358)" fill="#6e6e6e"/>
  </g>
  <g id="g758" transform="translate(144.076 64.162)">
    <path id="path760" d="M-43.25-52.954h4.663q-.272-2.344-2.332-2.345-2.08,0-2.332,2.345m7.451,3.271v2.128a7.887,7.887,0,0,1-4.79,1.414,6.532,6.532,0,0,1-4.529-1.521,5.16,5.16,0,0,1-1.695-4.026,5.459,5.459,0,0,1,1.593-4.043,5.531,5.531,0,0,1,4.062-1.585,5.37,5.37,0,0,1,4.065,1.67,5.863,5.863,0,0,1,1.486,4.466h-7.709a3.059,3.059,0,0,0,1.035,2.249,3.741,3.741,0,0,0,2.5.785A6.779,6.779,0,0,0-35.8-49.683" transform="translate(46.812 57.315)" fill="#6e6e6e"/>
  </g>
  <g id="g762" transform="translate(157.633 64.163)">
    <path id="path764" d="M-41.083-2.8V.269h.041q1.471-3.3,3.425-3.3a4.018,4.018,0,0,1,2.238.975l-.931,3a4.161,4.161,0,0,0-2-.8A2.317,2.317,0,0,0-40.286,1.6a7.306,7.306,0,0,0-.8,1.692V7.934h-3.384V-2.8Z" transform="translate(44.466 3.032)" fill="#6e6e6e"/>
  </g>
  <g id="g766" transform="translate(168.156 64.163)">
    <path id="path768" d="M-41.016-2.8v1.524a4.46,4.46,0,0,1,3.491-1.755,3.881,3.881,0,0,1,2.8,1.074A4.029,4.029,0,0,1-33.612,1.1v6.83H-36.99V1.39c0-1.439-.555-2.156-1.673-2.156-.794,0-1.582.59-2.354,1.774V7.934h-3.378V-2.8Z" transform="translate(44.394 3.032)" fill="#6e6e6e"/>
  </g>
  <g id="g770" transform="translate(181.13 64.162)">
    <path id="path772" d="M-73.8-111.344c1.618,0,2.422-1.214,2.422-3.655,0-2.334-.8-3.5-2.422-3.5a2.1,2.1,0,0,0-1.815.92,4.529,4.529,0,0,0-.651,2.642c0,2.392.818,3.59,2.466,3.59m0-9.17a6.433,6.433,0,0,1,4.284,1.483,5.11,5.11,0,0,1,1.758,4.122,5,5,0,0,1-1.788,4.111,6.523,6.523,0,0,1-4.254,1.458,6.216,6.216,0,0,1-4.372-1.557,5.212,5.212,0,0,1-1.705-4.037,5.137,5.137,0,0,1,1.736-4.048,6.35,6.35,0,0,1,4.342-1.532" transform="translate(79.874 120.514)" fill="#6e6e6e"/>
  </g>
  <g id="g774" transform="translate(194.902 64.163)">
    <path id="path776" d="M-96.1-9.7v2.4a6.973,6.973,0,0,0-3.584-1.184q-1.215,0-1.217.829a.564.564,0,0,0,.258.426,11.347,11.347,0,0,0,1.964.89,5.739,5.739,0,0,1,2.409,1.568,3.055,3.055,0,0,1,.706,1.95A3.133,3.133,0,0,1-96.706-.24,5.1,5.1,0,0,1-99.95.672a8.928,8.928,0,0,1-3.842-.788V-2.495a8.917,8.917,0,0,0,3.469.912q1.635,0,1.637-.794a.788.788,0,0,0-.3-.579,9.609,9.609,0,0,0-2.035-.95,5.574,5.574,0,0,1-2.359-1.48,2.847,2.847,0,0,1-.637-1.8A2.865,2.865,0,0,1-102.8-9.577a5.221,5.221,0,0,1,3.227-.926,7.467,7.467,0,0,1,3.466.8" transform="translate(104.02 10.503)" fill="#6e6e6e"/>
  </g>
</svg>
