<svg xmlns="http://www.w3.org/2000/svg" width="390" height="272.99" viewBox="0 0 390 272.99">
  <path id="box-open-solid" d="M259.378,168.477a29.536,29.536,0,0,1-25.227-14.258l-39.18-64.955-39.119,64.955a29.636,29.636,0,0,1-25.287,14.319,28.026,28.026,0,0,1-8.1-1.158L38.981,143.494V251.956a19.436,19.436,0,0,0,14.746,18.889l131.739,32.965a39.61,39.61,0,0,0,18.889,0l131.86-32.965a19.541,19.541,0,0,0,14.746-18.889V143.494l-83.479,23.825A28.026,28.026,0,0,1,259.378,168.477Zm129.545-68.368L357.542,37.47a9.952,9.952,0,0,0-10.176-5.423l-152.4,19.438,55.876,92.68a10.015,10.015,0,0,0,11.273,4.448l120.588-34.428A10.036,10.036,0,0,0,388.923,100.109ZM32.4,37.47,1.019,100.109a9.934,9.934,0,0,0,6.154,14.015l120.588,34.428a10.015,10.015,0,0,0,11.273-4.448l55.937-92.619L42.515,32.046A9.957,9.957,0,0,0,32.4,37.47Z" transform="translate(0.042 -31.963)" fill="#83cf3b" opacity="0.5"/>
</svg>
