<svg xmlns="http://www.w3.org/2000/svg" width="191.072" height="44.742" viewBox="0 0 191.072 44.742">
  <g id="Grupo_37" data-name="Grupo 37" transform="translate(0 -36.055)">
    <g id="Grupo_39" data-name="Grupo 39" transform="translate(0 36.055)">
      <path id="Trazado_45" data-name="Trazado 45" d="M169.549,76.982a.718.718,0,0,1,.18-.518.633.633,0,0,1,.431-.2h15.01a.685.685,0,0,1,.541.2.794.794,0,0,1,.18.547V80.89a.815.815,0,0,1-.188.508.652.652,0,0,1-.549.242h-9.536V86.5h7.043a.773.773,0,0,1,.5.165.636.636,0,0,1,.2.525v3.749a.844.844,0,0,1-.181.51.582.582,0,0,1-.494.243h-7.074v7.184q0,.674-.721.674h-4.784a.592.592,0,0,1-.565-.659Z" transform="translate(-111.356 -62.461)" fill="#fff"/>
      <path id="Trazado_46" data-name="Trazado 46" d="M237.972,97.38q-.306.792-.6,1.592a.786.786,0,0,1-.8.58h-4.627a.764.764,0,0,1-.494-.157.37.37,0,0,1-.071-.47l8.517-22.053a.463.463,0,0,1,.1-.2,1.169,1.169,0,0,1,.478-.353.734.734,0,0,1,.267-.055h4.015a.668.668,0,0,1,.455.165,2.027,2.027,0,0,1,.282.29l.392.894,8.234,21.237a.461.461,0,0,1-.047.51.763.763,0,0,1-.6.2h-4.5a.984.984,0,0,1-.557-.133.862.862,0,0,1-.306-.447q-.314-.8-.612-1.592t-.6-1.592l-1.757-5.035-2.4-7.168q-.3.8-.6,1.725t-.6,1.866q-.3.941-.6,1.859Z" transform="translate(-151.931 -62.461)" fill="#fff"/>
      <path id="Trazado_47" data-name="Trazado 47" d="M328.088,74.553a.98.98,0,0,1,.508.249.647.647,0,0,1,.16.576l-1.2,4.444a.618.618,0,0,1-.242.414.692.692,0,0,1-.5.038,5.973,5.973,0,0,0-1.9-.261,6.068,6.068,0,0,0-1.95.376,5.678,5.678,0,0,0-3.357,3.158,6.147,6.147,0,0,0-.474,2.276,6.838,6.838,0,0,0,1.65,4.532,6.085,6.085,0,0,0,1.82,1.424,5.711,5.711,0,0,0,4.6.254,6.093,6.093,0,0,0,3.045-2.41.724.724,0,0,1,.394-.293.641.641,0,0,1,.45.136l3.84,2.708a.618.618,0,0,1,.243.53,1.012,1.012,0,0,1-.234.5,12.462,12.462,0,0,1-2.462,2.523,11.77,11.77,0,0,1-3.183,1.734,11.869,11.869,0,0,1-6.247.538,12.147,12.147,0,0,1-5.506-2.561,11.683,11.683,0,0,1-2.111-2.269,12.032,12.032,0,0,1-2.031-9.109,12.16,12.16,0,0,1,.927-2.933,11.7,11.7,0,0,1,1.636-2.59,12.3,12.3,0,0,1,2.277-2.114,12.151,12.151,0,0,1,6.37-2.218,12.207,12.207,0,0,1,3.473.347" transform="translate(-205.712 -61.104)" fill="#fff"/>
      <path id="Trazado_48" data-name="Trazado 48" d="M392.556,76.949a.636.636,0,0,1,.212-.5.764.764,0,0,1,.526-.188H410.17a.794.794,0,0,1,.5.172.7.7,0,0,1,.251.516v3.894a.881.881,0,0,1-.2.54.658.658,0,0,1-.557.258h-5.411V98.815a.747.747,0,0,1-.2.51.679.679,0,0,1-.532.228h-4.6a.736.736,0,0,1-.5-.212.681.681,0,0,1-.234-.526V81.641h-5.4a.728.728,0,0,1-.526-.2.788.788,0,0,1-.212-.595Z" transform="translate(-257.822 -62.461)" fill="#fff"/>
      <path id="Trazado_49" data-name="Trazado 49" d="M465.4,87.27a11.918,11.918,0,0,1,1.632-6.062,12.155,12.155,0,0,1,1.876-2.439,11.7,11.7,0,0,1,2.425-1.874,12.325,12.325,0,0,1,2.864-1.208,12.018,12.018,0,0,1,6.38,0,12.285,12.285,0,0,1,2.872,1.208,11.91,11.91,0,0,1,4.308,4.313,12.439,12.439,0,0,1,1.208,2.87,12.011,12.011,0,0,1,0,6.384,12.13,12.13,0,0,1-1.208,2.855,11.786,11.786,0,0,1-1.875,2.415,12.254,12.254,0,0,1-2.433,1.874,11.821,11.821,0,0,1-2.872,1.208,11.975,11.975,0,0,1-11.669-3.082,12.144,12.144,0,0,1-1.876-2.415,11.712,11.712,0,0,1-1.208-2.855,11.9,11.9,0,0,1-.424-3.192m6.07-.016a6.652,6.652,0,0,0,.438,2.431,6.008,6.008,0,0,0,1.23,1.969,5.731,5.731,0,0,0,1.872,1.317,6.183,6.183,0,0,0,4.77,0,5.706,5.706,0,0,0,1.879-1.317,6,6,0,0,0,1.23-1.969,6.935,6.935,0,0,0,0-4.854,6.073,6.073,0,0,0-1.23-1.984,5.844,5.844,0,0,0-8.521,0,6.078,6.078,0,0,0-1.23,1.984,6.672,6.672,0,0,0-.438,2.423" transform="translate(-305.663 -61.801)" fill="#fff"/>
      <path id="Trazado_50" data-name="Trazado 50" d="M537.364,57.368l-8.529,1.813a.6.6,0,0,0-.065,1.154l4.2,1.4a.6.6,0,0,1,.377.372l1.351,3.91a.6.6,0,0,0,1.143-.033l2.221-7.871a.6.6,0,0,0-.7-.749" transform="translate(-347.016 -50.044)" fill="#b62143"/>
      <path id="Trazado_51" data-name="Trazado 51" d="M13.948,103.55c-1.477.094-2.954.225-4.438.231l-.826,0a22.489,22.489,0,0,0,4.6,5.621.31.31,0,0,0,.248.072c19.811-2.929,28.18-16.027,30.655-20.926a.3.3,0,0,0-.48-.336c-3.643,3.964-14.579,14.37-29.761,15.334" transform="translate(-5.703 -70.249)" fill="#9cce4a"/>
      <path id="Trazado_52" data-name="Trazado 52" d="M82.712,75.776c-.006-.014-.01-.029-.016-.043l0,0a.183.183,0,0,0-.348.083,24.589,24.589,0,0,1-.258,3.832A27.218,27.218,0,0,1,80.455,85.7c-3.307,8.4-10.689,15.932-19.933,20.765a.138.138,0,0,0,.057.26c.006,0,.009,0,.015,0l.019,0c.483.031.968.053,1.458.053a22.38,22.38,0,0,0,20.64-31.009" transform="translate(-39.7 -62.043)" fill="#fff"/>
      <path id="Trazado_53" data-name="Trazado 53" d="M40.983,39.11a.422.422,0,0,0-.819-.155c-3.342,9.137-19.406,22.5-39.941,18.02h0v0a22.537,22.537,0,0,0,.965,10.38v-.01s0,.01,0,.01a35.081,35.081,0,0,0,5.022-.072C34.983,64.365,41.2,44.78,40.983,39.11" transform="translate(0 -37.775)" fill="#9cce4a"/>
      <path id="Trazado_54" data-name="Trazado 54" d="M24.832,36.055A22.376,22.376,0,0,0,3.747,50.945a34.453,34.453,0,0,0,4.916.711A17.442,17.442,0,0,1,33.1,43.123a26.462,26.462,0,0,0,3.393-3.791,22.264,22.264,0,0,0-11.66-3.277" transform="translate(-2.461 -36.055)" fill="#fff"/>
    </g>
  </g>
</svg>
