<svg id="Grupo_42" data-name="Grupo 42" xmlns="http://www.w3.org/2000/svg" xmlns:xlink="http://www.w3.org/1999/xlink" width="259.236" height="20.825" viewBox="0 0 259.236 20.825">
  <defs>
    <clipPath id="clip-path">
      <rect id="Rectángulo_24" data-name="Rectángulo 24" width="259.236" height="20.825" fill="none"/>
    </clipPath>
  </defs>
  <g id="Grupo_13" data-name="Grupo 13" transform="translate(0 0)" clip-path="url(#clip-path)">
    <path id="Trazado_20" data-name="Trazado 20" d="M0,20.745V3.265a2,2,0,0,1,.605-1.42,1.939,1.939,0,0,1,1.462-.609H7.692c2.976,0,5.233.785,6.694,2.4C15.829,5.287,16.6,7.706,16.6,10.988a13.988,13.988,0,0,1-.8,4.732,8.367,8.367,0,0,1-2.39,3.3,8.5,8.5,0,0,1-2.654,1.333,16.864,16.864,0,0,1-4.141.392Zm3.95-3.525h3.2a5.142,5.142,0,0,0,4.093-1.465c.87-.894,1.3-2.455,1.3-4.767a7.723,7.723,0,0,0-1.224-4.816A4.181,4.181,0,0,0,7.692,4.658H3.95Z" transform="translate(0 -0.383)" fill="#161615"/>
    <path id="Trazado_21" data-name="Trazado 21" d="M26.86,20.745V3.265a1.826,1.826,0,0,1,.635-1.42,1.851,1.851,0,0,1,1.472-.609h1.95V20.745Z" transform="translate(-8.323 -0.383)" fill="#161615"/>
    <path id="Trazado_22" data-name="Trazado 22" d="M43.066,1.236H46.24l7.106,19.509H49.061l-1.28-4.031H40.155L38.93,20.745H34.655l6.506-18.22a1.8,1.8,0,0,1,1.905-1.29m.879,3.9-2.7,8.3H46.7Z" transform="translate(-10.738 -0.383)" fill="#161615"/>
    <path id="Trazado_23" data-name="Trazado 23" d="M64.7,20.745V3.265a1.956,1.956,0,0,1,.589-1.42,2.025,2.025,0,0,1,1.488-.609H74.2c2.1,0,3.7.42,4.7,1.35a5.323,5.323,0,0,1,1.56,4.15,5.29,5.29,0,0,1-.781,3.02,3.769,3.769,0,0,1-2.119,1.635,3.3,3.3,0,0,1,1.8,1.375,7.1,7.1,0,0,1,.622,2.885l.081,2.28v.782a3.4,3.4,0,0,0,.1.742c.121.681.3,1.127.687,1.291H76.4a3.374,3.374,0,0,1-.331-1.235c-.066-.574-.14-.951-.14-1.2l-.05-2.113a4.973,4.973,0,0,0-.644-2.415,3.179,3.179,0,0,0-2.235-.64H68.734v7.6Zm4.038-10.99h4.712a3.484,3.484,0,0,0,2.273-.64,2.3,2.3,0,0,0,.746-1.952,2.331,2.331,0,0,0-.746-1.923A2.9,2.9,0,0,0,73.67,4.6H68.734Z" transform="translate(-20.047 -0.383)" fill="#161615"/>
    <path id="Trazado_24" data-name="Trazado 24" d="M90.93,20.745V3.265a1.849,1.849,0,0,1,.576-1.42,1.95,1.95,0,0,1,1.452-.609h1.986V20.745Z" transform="translate(-28.176 -0.383)" fill="#161615"/>
    <path id="Trazado_25" data-name="Trazado 25" d="M98.162,10.735a10.859,10.859,0,0,1,2.517-7.56A9.3,9.3,0,0,1,107.642.42a9.391,9.391,0,0,1,7,2.756,10.8,10.8,0,0,1,2.54,7.56,10.632,10.632,0,0,1-2.54,7.509,9.3,9.3,0,0,1-7,2.711,9.145,9.145,0,0,1-6.963-2.711,10.661,10.661,0,0,1-2.517-7.509m4.061,0a7.633,7.633,0,0,0,1.42,5,4.842,4.842,0,0,0,4,1.758,5.058,5.058,0,0,0,4.05-1.758,7.651,7.651,0,0,0,1.5-5,7.968,7.968,0,0,0-1.5-5.068,5.043,5.043,0,0,0-4.05-1.755,4.828,4.828,0,0,0-4,1.755,7.967,7.967,0,0,0-1.42,5.068" transform="translate(-30.417 -0.13)" fill="#161615"/>
    <path id="Trazado_26" data-name="Trazado 26" d="M139.885,20.745V3.265a1.935,1.935,0,0,1,.593-1.42,1.911,1.911,0,0,1,1.449-.609h12.188V4.6H143.852V8.786h7.6v1.293a2.28,2.28,0,0,1-.531,1.449,2.255,2.255,0,0,1-1.482.6h-5.584v8.616Z" transform="translate(-43.345 -0.383)" fill="#f37e00"/>
    <path id="Trazado_27" data-name="Trazado 27" d="M163.132,20.745V3.265a2.012,2.012,0,0,1,.577-1.42,1.971,1.971,0,0,1,1.439-.609h2.035V20.745Z" transform="translate(-50.549 -0.383)" fill="#f37e00"/>
    <path id="Trazado_28" data-name="Trazado 28" d="M170.889,20.718V3.237a1.848,1.848,0,0,1,.612-1.42,1.942,1.942,0,0,1,1.449-.67h2.156L183.051,14.6V1.147H187V20.718h-4.122L174.852,7.248V20.718Z" transform="translate(-52.953 -0.356)" fill="#f37e00"/>
    <path id="Trazado_29" data-name="Trazado 29" d="M205.519,1.236h3.172l7.1,19.509H211.53L210.2,16.714h-7.6l-1.244,4.031h-4.249l6.457-18.22a1.861,1.861,0,0,1,1.954-1.29m.918,3.9-2.732,8.3h5.434Z" transform="translate(-61.077 -0.383)" fill="#f37e00"/>
    <path id="Trazado_30" data-name="Trazado 30" d="M227.145,20.718V3.237a1.94,1.94,0,0,1,.611-1.42,1.961,1.961,0,0,1,1.459-.67h2.133L239.29,14.6V1.147h3.975V20.718h-4.151l-7.99-13.469V20.718Z" transform="translate(-70.384 -0.356)" fill="#f37e00"/>
    <path id="Trazado_31" data-name="Trazado 31" d="M270.621,13.738a7.35,7.35,0,0,1-2.556,5.317,9.318,9.318,0,0,1-6.109,1.9,8.562,8.562,0,0,1-6.779-2.649c-1.531-1.749-2.309-4.215-2.309-7.571,0-3.4.778-5.962,2.4-7.668C256.892,1.3,259.179.42,262.311.42a9.386,9.386,0,0,1,5.972,1.852A7.378,7.378,0,0,1,270.621,7.4h-2.406a2.017,2.017,0,0,1-1.944-1.24,7.139,7.139,0,0,0-.983-1.28,5.114,5.114,0,0,0-2.977-.836,4.909,4.909,0,0,0-4.073,1.692,7.848,7.848,0,0,0-1.346,5,7.673,7.673,0,0,0,1.346,4.9,4.619,4.619,0,0,0,3.94,1.758,5.161,5.161,0,0,0,3.06-.93,4.73,4.73,0,0,0,1.459-2.724Z" transform="translate(-78.355 -0.13)" fill="#f37e00"/>
    <path id="Trazado_32" data-name="Trazado 32" d="M281.555,20.745V3.265a1.81,1.81,0,0,1,.586-1.42,1.841,1.841,0,0,1,1.416-.609h2.012V20.745Z" transform="translate(-87.244 -0.383)" fill="#f37e00"/>
    <path id="Trazado_33" data-name="Trazado 33" d="M289.307,20.745V3.265a1.848,1.848,0,0,1,.589-1.42,1.879,1.879,0,0,1,1.468-.609h12.117V4.6H293.263V8.786h7.6v1.293a2.058,2.058,0,0,1-.577,1.451,2.009,2.009,0,0,1-1.439.6h-5.585v5.023h10.218v3.593Z" transform="translate(-89.646 -0.383)" fill="#f37e00"/>
    <path id="Trazado_34" data-name="Trazado 34" d="M312.539,20.745V3.265a1.838,1.838,0,0,1,.567-1.42,1.928,1.928,0,0,1,1.442-.609h7.466c2.094,0,3.716.42,4.7,1.356a5.256,5.256,0,0,1,1.625,4.144,5.129,5.129,0,0,1-.82,3.02,4.181,4.181,0,0,1-2.153,1.635,3.037,3.037,0,0,1,1.82,1.375,6.693,6.693,0,0,1,.6,2.885l.12,2.28v.782a2.417,2.417,0,0,0,.075.742c.133.681.357,1.127.69,1.291h-4.442a3.745,3.745,0,0,1-.349-1.226,9.335,9.335,0,0,1-.133-1.211L323.7,16.2a4.507,4.507,0,0,0-.663-2.415,3.116,3.116,0,0,0-2.221-.64h-4.234v7.6Zm4.044-10.99h4.656a3.672,3.672,0,0,0,2.3-.64,2.357,2.357,0,0,0,.733-1.952,2.414,2.414,0,0,0-.733-1.923A2.9,2.9,0,0,0,321.5,4.6h-4.921Z" transform="translate(-96.845 -0.383)" fill="#f37e00"/>
    <path id="Trazado_35" data-name="Trazado 35" d="M338.215,10.735a10.857,10.857,0,0,1,2.52-7.56A9.229,9.229,0,0,1,347.71.42,9.481,9.481,0,0,1,354.7,3.176a11.077,11.077,0,0,1,2.543,7.56,10.908,10.908,0,0,1-2.543,7.509,9.321,9.321,0,0,1-6.995,2.711,9.057,9.057,0,0,1-6.974-2.711,10.659,10.659,0,0,1-2.52-7.509m4.037,0a7.535,7.535,0,0,0,1.436,5A4.863,4.863,0,0,0,347.71,17.5a5.011,5.011,0,0,0,4.015-1.758,7.8,7.8,0,0,0,1.471-5,8.122,8.122,0,0,0-1.471-5.068,5,5,0,0,0-4.015-1.755,4.849,4.849,0,0,0-4.021,1.755,7.909,7.909,0,0,0-1.436,5.068" transform="translate(-104.801 -0.13)" fill="#f37e00"/>
    <path id="Trazado_36" data-name="Trazado 36" d="M373.061,2.865a2.72,2.72,0,0,1-.374,1.455,2.515,2.515,0,0,1-1.052,1.016,2.491,2.491,0,0,1-1.413.383,2.8,2.8,0,0,1-1.449-.383,3.12,3.12,0,0,1-1.048-1.016,2.987,2.987,0,0,1-.388-1.455,3.5,3.5,0,0,1,.231-1.128,4.206,4.206,0,0,1,.583-.884A3.373,3.373,0,0,1,369.1.219a2.91,2.91,0,0,1,2.217,0,3.576,3.576,0,0,1,.961.62,2.8,2.8,0,0,1,.567.9,2.4,2.4,0,0,1,.211,1.128m-.53,0a2.8,2.8,0,0,0-.154-.9,2.518,2.518,0,0,0-.518-.759,2.2,2.2,0,0,0-.745-.446,2.386,2.386,0,0,0-.892-.257,2.466,2.466,0,0,0-.925.257,2.434,2.434,0,0,0-.72.446,2.279,2.279,0,0,0-.491.759,1.732,1.732,0,0,0-.222.9,2.48,2.48,0,0,0,.319,1.141,2.437,2.437,0,0,0,.86.852,2.549,2.549,0,0,0,1.179.312,2.461,2.461,0,0,0,1.156-.312,2.366,2.366,0,0,0,.87-.852,2.111,2.111,0,0,0,.284-1.141m-.942,1.576h-.924a3.928,3.928,0,0,0-.407-.818c-.13-.247-.235-.361-.3-.374-.113-.038-.157-.108-.279-.108v1.3h-.742V1.324h1.318a1.247,1.247,0,0,1,.834.233.685.685,0,0,1,.286.653.609.609,0,0,1-.248.575.925.925,0,0,1-.557.262,1.624,1.624,0,0,1,.387.322c.046.084.17.272.316.5Zm-.966-2.211c0-.112-.05-.168-.157-.26a.706.706,0,0,0-.424-.117h-.361v.791h.342a.627.627,0,0,0,.443-.127c.107-.032.157-.108.157-.286" transform="translate(-113.825 0)" fill="#f37e00"/>
  </g>
</svg>
