<svg xmlns="http://www.w3.org/2000/svg" xmlns:xlink="http://www.w3.org/1999/xlink" width="115" height="113" viewBox="0 0 115 113">
  <defs>
    <clipPath id="clip-path">
      <rect id="Rectángulo_31" data-name="Rectángulo 31" width="89.103" height="51.842" fill="none"/>
    </clipPath>
  </defs>
  <g id="Grupo_72" data-name="Grupo 72" transform="translate(-61 -3731)">
    <g id="Componente_1_1" data-name="Componente 1 – 1" transform="translate(61 3731)">
      <g id="Grupo_26" data-name="Grupo 26" transform="translate(12.949 31.579)">
        <g id="Grupo_25" data-name="Grupo 25" clip-path="url(#clip-path)">
          <path id="Trazado_41" data-name="Trazado 41" d="M114.625,17.928c-1.711-3.6-3.456-7.18-5.166-10.773-.888-1.884-1.748-3.785-2.6-5.677A1.577,1.577,0,0,0,104.28.683c-2.2,1.5-8.828,6.029-12.581,6.073a21.315,21.315,0,0,1-5.864-.766,34.378,34.378,0,0,1-3.687-1.238,17.584,17.584,0,0,0-5.425-1.586,3.93,3.93,0,0,0-2.838.719l-.159.144L72.2,5.427,66.327,10.8c-.113.1-.217.215-.318.329a2.966,2.966,0,0,0-.369.3L59.777,16.79a2.915,2.915,0,0,0-.28.286,1.412,1.412,0,0,0-.176.2,1.94,1.94,0,0,0-.353.727c-.351,1.774,1.521,4.3,3.313,4.624a7.928,7.928,0,0,0,6.326-1.375c1.151-.838,2.414-1.788,3.7-2.752.351-.273.7-.538,1.055-.793a.6.6,0,0,1,.073-.056c.335-.264.671-.52,1.009-.774a6.259,6.259,0,0,1,3.367-.96,6.309,6.309,0,0,1,4.039,1.429c.024.008.039.032.063.048.111.1.232.2.344.3.031.033.056.057.089.089.272.224.536.476.794.728.76.718,1.479,1.467,2.185,2.251l2.63,2.635c.111.111.218.228.318.35.118.1.229.2.341.317l5.624,5.6v.008l2.442,2.437a1.922,1.922,0,0,0,2.255-.385c1.2-1,3.046-2.453,4.27-3.417,1.817-1.439,8.959-6.53,10.805-7.932a1.776,1.776,0,0,0,.6-2.435Z" transform="translate(-25.779 -0.127)" fill="#0077be"/>
          <path id="Trazado_42" data-name="Trazado 42" d="M36.025,46.709a3.212,3.212,0,0,0-4.537,0L25.867,52.32A3.206,3.206,0,1,0,30.4,56.852l5.622-5.614a3.2,3.2,0,0,0,0-4.529" transform="translate(-10.905 -20.024)" fill="#0077be"/>
          <path id="Trazado_43" data-name="Trazado 43" d="M47.906,55.7a3.212,3.212,0,0,0-4.537,0h0l-5.622,5.613a3.208,3.208,0,1,0,4.543,4.529l5.621-5.613a3.2,3.2,0,0,0,0-4.529Z" transform="translate(-16.102 -23.957)" fill="#0077be"/>
          <path id="Trazado_44" data-name="Trazado 44" d="M60.294,63.049a3.212,3.212,0,0,0-4.537,0l-5.621,5.614a3.206,3.206,0,1,0,4.4,4.666c.046-.044.092-.089.137-.137l5.62-5.612a3.2,3.2,0,0,0,0-4.531Z" transform="translate(-21.492 -27.172)" fill="#0077be"/>
          <path id="Trazado_45" data-name="Trazado 45" d="M72.878,75.8a3.157,3.157,0,0,0,.25-3.225,3.2,3.2,0,0,0-4.547-1.333,2.81,2.81,0,0,0-.605.468l-5.619,5.619a3.2,3.2,0,0,0,4.536,4.529l5.62-5.611a2.835,2.835,0,0,0,.366-.449Z" transform="translate(-26.869 -30.96)" fill="#0077be"/>
          <path id="Trazado_46" data-name="Trazado 46" d="M62.5,26.39a1.654,1.654,0,0,0-.21-.206l-1.177-1.178L60.9,24.8l-1.823-1.832-1.055-1.041-1.553-1.563-.094-.084-1.1-1.094a3.7,3.7,0,0,0-.9-.685,4.726,4.726,0,0,0-2.225-.606,4.314,4.314,0,0,0-2.225.606,2.5,2.5,0,0,0-.439.29,3.325,3.325,0,0,0-.457.395.541.541,0,0,0-.075.073c-.394.344-.812.687-1.217,1.02s-.815.635-1.231.952c-.24.176-.491.363-.739.53v.011a28.839,28.839,0,0,1-3.655,2.187c-4.16,2.018-8.352,1.091-10.782-3.165a3.139,3.139,0,0,1-.24-.509,3.841,3.841,0,0,1-.187-.7A4.228,4.228,0,0,1,32.122,15.9q3.99-3.746,7.968-7.515c.988-.926,1.991-1.864,3-2.832.25-.24.51-.476.771-.728A3.925,3.925,0,0,0,41.392,4a1.92,1.92,0,0,0-.272-.02,33.1,33.1,0,0,0-9.534,1.351c-.135.032-.261.073-.4.1l-.219.062c-.408.146-.8.272-1.209.375-.148.041-.281.084-.429.125a16.671,16.671,0,0,1-2.628.635,15.983,15.983,0,0,1-3.242.135,15.888,15.888,0,0,1-5.339-1.685A62.659,62.659,0,0,1,10.885.692,1.815,1.815,0,0,0,9.455.338,1.861,1.861,0,0,0,8.3,1.485c-.855,1.892-1.71,3.8-2.6,5.683C3.992,10.759,2.25,14.34.539,17.931a1.777,1.777,0,0,0,.6,2.435c1.845,1.4,8.988,6.495,10.805,7.932.271.219.574.458.9.709l.125.094c.584.425,1.093.8,1.513,1.123L19.3,25.4a5.161,5.161,0,0,1,3.68-1.52,5.215,5.215,0,0,1,2.86.856,5.049,5.049,0,0,1,.824.668,3.557,3.557,0,0,1,.318.352c.073.084.135.167.2.248s.135.19.2.284.135.238.2.343a.884.884,0,0,1,.052.1c.042.094.094.187.127.271s.071.167.1.249.051.159.073.232a1.809,1.809,0,0,1,.1.392c.03.115.051.219.073.335a3.158,3.158,0,0,1,.052.436,2.721,2.721,0,0,1,.021.511.2.2,0,0,1,.062-.02,2.6,2.6,0,0,1,.4-.092A2.1,2.1,0,0,1,29,28.992a1.048,1.048,0,0,1,.261-.03c.135-.013.26-.021.4-.021s.318.01.469.021c.042,0,.084.009.125.009a5.237,5.237,0,0,1,.9.187,4.658,4.658,0,0,1,1.179.52c.01,0,.021,0,.032.021.094.054.178.114.261.159a2.074,2.074,0,0,1,.249.187,1.389,1.389,0,0,1,.2.168,3.3,3.3,0,0,1,.27.24c.116.115.21.23.318.344.042.054.083.105.124.168a3.23,3.23,0,0,1,.229.309,2.705,2.705,0,0,1,.23.389,4.488,4.488,0,0,1,.4.952,2.73,2.73,0,0,1,.1.4,2.982,2.982,0,0,1,.071.4,5.1,5.1,0,0,1,1.846-.341,5.178,5.178,0,0,1,4.963,3.648,4.742,4.742,0,0,1,.219,1.071c.01.146.021.292.021.427a4.984,4.984,0,0,1,.668-.176c.135-.032.268-.042.407-.062h.1a3.606,3.606,0,0,1,.467-.032,2.988,2.988,0,0,1,.318.011,5.214,5.214,0,0,1,4.9,5.188,3.64,3.64,0,0,1-.03.476c.011.011.011.019,0,.03a2.894,2.894,0,0,1-.043.333c0,.021-.01.032-.01.052a2.59,2.59,0,0,1-.135.582,2.833,2.833,0,0,1-.125.376.071.071,0,0,1-.011.03,1.9,1.9,0,0,1-.073.179c-.03.073-.071.159-.1.228s-.062.114-.092.176a4.95,4.95,0,0,1-.437.677,1,1,0,0,1-.084.1,1.708,1.708,0,0,1-.127.143,1.915,1.915,0,0,1-.249.282l-4.605,4.592a4.37,4.37,0,0,0,2.117.552,4.294,4.294,0,0,0,2.773-.988.252.252,0,0,0,.053-.043,3.017,3.017,0,0,0,.282-.26A4.254,4.254,0,0,0,49.1,47.7a4.385,4.385,0,0,0,6.487-4.57,4.4,4.4,0,0,0,7.151-4.257,4.4,4.4,0,0,0,5.384-6.868l0,0Z" transform="translate(-0.127 -0.132)" fill="#0077be"/>
        </g>
      </g>
      <g id="Elipse_1" data-name="Elipse 1" fill="none" stroke="#0077be" stroke-width="3">
        <ellipse cx="57.5" cy="56.5" rx="57.5" ry="56.5" stroke="none"/>
        <ellipse cx="57.5" cy="56.5" rx="56" ry="55" fill="none"/>
      </g>
    </g>
  </g>
</svg>
